<svg width="115" height="114" viewBox="0 0 115 114" fill="none" xmlns="http://www.w3.org/2000/svg">
<path d="M62.5042 43.0976C62.2433 42.0639 61.9633 41.0302 61.6639 39.9868C61.0166 37.7357 60.3208 35.5427 59.5576 33.398C57.577 27.8235 55.2005 22.6164 52.4278 17.7858C51.9738 16.9936 51.51 16.2014 51.027 15.4286C50.6309 14.7523 50.167 14.1629 49.6066 13.6605C49.0559 13.1485 48.5247 12.7524 48.003 12.4432C47.4813 12.1437 46.9404 11.9313 46.3897 11.796C45.926 11.6801 45.5202 11.6995 45.1627 11.8444L44.9792 11.9312C40.4868 14.0469 36.9412 18.1337 34.3327 24.2105C32.101 29.4371 30.8162 35.5041 30.5071 42.4311C30.4781 42.9625 30.4683 43.4841 30.4587 44.0251C30.4393 44.6434 30.4297 45.2521 30.4297 45.8704C30.4297 51.5414 30.8548 56.8066 31.7049 61.6661C32.5454 66.5256 33.8495 72.0325 35.6078 78.1962C35.7044 78.544 35.8204 78.8919 35.946 79.23C36.2359 80.0125 36.6126 80.7756 37.0667 81.5098C37.7237 82.5532 38.4966 83.3456 39.4144 83.8673L56.5918 93.789C57.5 94.3107 58.2824 94.4267 58.9297 94.1272L59.2002 93.992C59.7219 93.6829 60.118 93.1902 60.3982 92.5139C62.1565 88.379 63.451 84.3888 64.3012 80.5437C64.4944 79.6549 64.6684 78.7082 64.8133 77.7131C65.3157 74.4284 65.5667 70.5736 65.5667 66.1586C65.5667 58.7486 64.5426 51.068 62.5042 43.0976ZM53.5098 58.0241C53.133 58.2366 52.7465 58.3912 52.3311 58.4685C51.0655 58.739 49.626 58.4104 48.003 57.4733C47.462 57.1641 46.9501 56.8066 46.4478 56.4105C44.9503 55.2125 43.6363 53.6379 42.4866 51.6574C40.9602 49.0199 40.1871 46.4695 40.1871 44.0059C40.1871 41.5424 40.9602 39.8708 42.4866 39.0013C42.96 38.7212 43.4624 38.5569 43.9938 38.4893C45.1821 38.3347 46.5152 38.6923 48.003 39.5521C48.6503 39.9289 49.2685 40.3637 49.8578 40.8758C51.2297 42.0254 52.447 43.5228 53.5098 45.368C55.0459 48.0055 55.8092 50.5559 55.8092 53.0195C55.8092 55.483 55.0459 57.1449 53.5098 58.0241Z" fill="#AAFFCC" stroke="#181818" stroke-width="0.5" stroke-linecap="round" stroke-linejoin="round"/>
<path d="M31.3094 81.5485L22.1411 80.3892C20.8369 80.2347 19.6196 79.3846 18.4796 77.8292C17.3396 76.2737 16.7695 74.7182 16.7695 73.1435V53.2126C16.7695 51.7151 17.0789 50.4787 17.6972 49.4933C18.0643 48.9136 18.5086 48.4691 19.04 48.1696L19.3105 48.0345C19.61 47.8896 19.9385 47.7929 20.2863 47.7349L24.5757 46.9717C25.0298 53.2803 25.7349 58.9127 26.672 63.8591C27.6188 68.8056 29.1647 74.7085 31.3094 81.5485Z" fill="#AAFFCC" stroke="#181818" stroke-width="0.5" stroke-linecap="round" stroke-linejoin="round"/>
<path d="M84.8901 56.4974C84.8901 60.729 84.6582 64.4291 84.2041 67.6269L71.4226 74.0128C71.2197 76.5633 70.9782 78.9302 70.6787 81.1039C70.3019 83.867 69.8576 86.3208 69.3263 88.4849C69.2876 88.6588 69.2392 88.8231 69.1909 88.997L59.2015 93.9918C59.7232 93.6827 60.1193 93.19 60.3995 92.5137C62.1578 88.3788 63.4524 84.3887 64.3025 80.5436C64.4958 79.6548 64.6698 78.708 64.8147 77.7129C65.317 74.4282 65.568 70.5735 65.568 66.1585C65.568 58.7485 64.544 51.0678 62.5055 43.0975C62.2446 42.0638 61.9647 41.0301 61.6652 39.9867C61.0179 37.7356 60.3221 35.5425 59.5589 33.3978C57.5784 27.8233 55.2019 22.6162 52.4291 17.7856C51.9751 16.9934 51.5114 16.2013 51.0283 15.4285C50.6322 14.7522 50.1683 14.1628 49.6079 13.6604C49.0573 13.1484 48.526 12.7523 48.0043 12.4431C47.4826 12.1436 46.9417 11.9312 46.391 11.7959C45.9273 11.68 45.5215 11.6993 45.1641 11.8442L63.4716 2.68543L64.3025 2.27008C64.689 2.04787 65.1624 1.99955 65.713 2.1348C66.2637 2.27006 66.8046 2.48252 67.3263 2.78202C67.848 3.09117 68.3793 3.48728 68.93 3.99931C69.4903 4.50169 69.9542 5.09109 70.3503 5.76736C74.8427 13.0615 78.3884 21.2539 80.9872 30.3256C83.586 39.407 84.8901 48.131 84.8901 56.4974Z" fill="#EDF3F1" stroke="#181818" stroke-width="0.5" stroke-linecap="round" stroke-linejoin="round"/>
<path d="M55.8096 53.0193C55.8096 55.4829 55.0462 57.1447 53.5101 58.0239C53.1334 58.2364 52.7469 58.3909 52.3315 58.4682C51.0659 58.7387 49.6264 58.4102 48.0034 57.4731C47.4623 57.164 46.9505 56.8064 46.4481 56.4103C44.9507 55.2123 43.6367 53.6377 42.487 51.6572C40.9606 49.0197 40.1875 46.4693 40.1875 44.0058C40.1875 41.5422 40.9606 39.8707 42.487 39.0012C42.9604 38.721 43.4628 38.5568 43.9941 38.4891C45.1824 38.3346 46.5156 38.6921 48.0034 39.5519C48.6506 39.9287 49.2689 40.3636 49.8582 40.8756C51.23 42.0253 52.4474 43.5226 53.5101 45.3679C55.0462 48.0053 55.8096 50.5557 55.8096 53.0193Z" fill="#EDF3F1" stroke="#181818" stroke-width="0.5" stroke-linecap="round" stroke-linejoin="round"/>
<path d="M79.2274 89.2771V109.208C79.2274 110.387 78.9086 111.188 78.271 111.613H78.2517C78.0488 111.768 77.8073 111.865 77.5271 111.923C76.3871 112.164 75.1697 111.604 73.8655 110.261L64.6875 100.812C66.7356 96.6486 68.2428 92.7068 69.1895 88.9969C69.2378 88.823 69.2862 88.6587 69.3249 88.4848C69.8562 86.3207 70.3006 83.867 70.6773 81.104C70.9768 78.9302 71.2183 76.5632 71.4212 74.0127L75.7204 79.7418C76.8121 81.1909 77.6817 82.7559 78.2903 84.4466C78.2903 84.4562 78.3 84.4757 78.3 84.4853C78.9183 86.1857 79.2274 87.7796 79.2274 89.2771Z" fill="#AAFFCC" stroke="#181818" stroke-width="0.5" stroke-linecap="round" stroke-linejoin="round"/>
<path d="M98.5501 79.616V99.5467C98.5501 100.774 98.2119 101.585 97.5259 102.001L97.2458 102.136L78.2716 111.613C78.9093 111.188 79.2281 110.386 79.2281 109.208V89.277C79.2281 87.7795 78.9189 86.1856 78.3006 84.4852C78.3006 84.4756 78.291 84.4561 78.291 84.4465C77.6823 82.7558 76.8127 81.1908 75.721 79.7417L71.4219 74.0126L84.2034 67.6267L90.7439 64.3516L95.0431 70.0806C96.1444 71.5395 97.014 73.1239 97.6226 74.8242C98.241 76.5245 98.5501 78.1185 98.5501 79.616Z" fill="#EDF3F1" stroke="#181818" stroke-width="0.5" stroke-linecap="round" stroke-linejoin="round"/>
<path d="M35.9452 79.2304L31.3079 81.549C29.1632 74.709 27.6173 68.8061 26.6706 63.8597C25.7334 58.9132 25.0283 53.2808 24.5742 46.9722L30.4579 44.0352C30.4386 44.6438 30.4289 45.2526 30.4289 45.8709C30.4289 51.542 30.854 56.807 31.7041 61.6665C32.5447 66.526 33.8487 72.0329 35.607 78.1966C35.7036 78.5444 35.8196 78.8923 35.9452 79.2304Z" fill="#EDF3F1" stroke="#181818" stroke-width="0.5" stroke-linecap="round" stroke-linejoin="round"/>
<path d="M30.5058 42.4307C30.4769 42.962 30.4671 43.4836 30.4574 44.0246L24.5738 46.9713L20.2844 47.7346C19.9366 47.7925 19.6081 47.8892 19.3086 48.0342L30.5058 42.4307Z" fill="#EDF3F1" stroke="#181818" stroke-width="0.5" stroke-linecap="round" stroke-linejoin="round"/>
</svg>
