<svg width="115" height="114" viewBox="0 0 115 114" fill="none" xmlns="http://www.w3.org/2000/svg">
<path d="M43.1195 28.1064V28.4602L38.1172 30.9564L43.1195 28.1064Z" fill="#EDF3F1" stroke="#166636" stroke-width="0.5" stroke-linecap="round" stroke-linejoin="round"/>
<path d="M71.663 41.237V49.6789L52.0078 59.5064V33.2373L56.5482 40.952L57.0102 41.7382C57.9045 43.2713 58.9559 44.3916 60.1745 45.0894C61.403 45.797 62.4545 45.8952 63.339 45.394L71.663 41.237Z" fill="#EDF3F1" stroke="#166636" stroke-width="0.5" stroke-linecap="round" stroke-linejoin="round"/>
<path d="M84.0247 92.8019C83.8183 93.48 83.435 93.9615 82.8847 94.276L70.3349 101.431L70.0793 101.558L50.6797 111.258L63.2295 104.104C64.1238 103.593 64.5661 102.62 64.5661 101.175C64.5661 99.7303 64.1238 98.2464 63.2295 96.7133C62.345 95.1802 61.264 94.05 60.0061 93.3228C58.8759 92.6741 57.8931 92.5071 57.0578 92.851L60.2812 91.2393L68.9688 86.8955C68.7723 87.3574 68.674 87.9176 68.674 88.5662C68.674 89.9715 69.1162 91.4359 70.0105 92.969C70.895 94.5021 71.9368 95.6322 73.1161 96.3595C74.3052 97.0867 75.3469 97.1948 76.2314 96.6936L84.0247 92.8019Z" fill="#EDF3F1" stroke="#166636" stroke-width="0.5" stroke-linecap="round" stroke-linejoin="round"/>
<path d="M109.771 76.7826C109.771 77.4607 109.682 78.0406 109.496 78.532C109.309 79.0233 108.994 79.387 108.552 79.6425L95.8847 86.8657L95.6095 87.0033L84.0229 92.7918L76.2295 96.6933L84.1604 92.1726L88.8972 89.4701C89.3395 89.2145 89.654 88.8509 89.8407 88.3595C90.0274 87.8682 90.1159 87.2883 90.1159 86.6102C90.1159 85.9321 90.0274 85.2344 89.8407 84.5366C89.654 83.829 89.3395 83.1018 88.8972 82.3352L77.9985 63.5351L76.3376 60.6752C75.4531 59.1421 74.382 58.012 73.1142 57.2847C71.9841 56.6361 71.0111 56.4788 70.1758 56.813L77.5955 53.108L89.5558 47.123C90.4403 46.6218 91.5115 46.7299 92.7694 47.4571C94.0372 48.1844 95.1083 49.3145 95.9927 50.8476L108.552 72.5076C108.994 73.2742 109.309 74.0014 109.496 74.709C109.682 75.4068 109.771 76.0947 109.771 76.7826Z" fill="#EDF3F1" stroke="#166636" stroke-width="0.5" stroke-linecap="round" stroke-linejoin="round"/>
<path d="M84.3279 32.7656C84.3279 34.1219 83.8857 35.0555 82.9914 35.5665L82.7161 35.7041L71.6601 41.237L63.3362 45.3941C64.2305 44.8831 64.6727 43.9494 64.6727 42.5932C64.6727 41.237 64.2305 39.7825 63.3362 38.2494L62.7761 37.2863L54.3931 22.8201L50.6782 16.4027C50.2261 15.6362 49.7447 14.9974 49.2336 14.4863C48.7128 13.9753 48.1526 13.5527 47.563 13.2087C46.9733 12.8648 46.4131 12.6486 45.8923 12.5601C45.4795 12.4913 45.0766 12.5306 44.7031 12.6879L64.1028 2.98807C64.5549 2.73255 65.0364 2.64409 65.5474 2.73254C66.0683 2.82099 66.6285 3.03717 67.2181 3.38113C67.8078 3.7251 68.368 4.14767 68.8888 4.65871C69.3999 5.16974 69.8813 5.80855 70.3334 6.5751L82.9914 28.4219C83.8857 29.955 84.3279 31.4094 84.3279 32.7656Z" fill="#EDF3F1" stroke="#166636" stroke-width="0.5" stroke-linecap="round" stroke-linejoin="round"/>
<path d="M71.663 67.3389L74.7882 72.6556L71.663 70.8473L62.7789 65.7272L52.0078 59.5063L71.663 49.6787L77.5989 53.1085L70.1791 56.8135L69.9039 56.9511C69.0095 57.4622 68.5674 58.4351 68.5674 59.8797C68.5674 61.3244 69.0095 62.8182 69.9039 64.3513L71.663 67.3389Z" fill="#EDF3F1" stroke="#166636" stroke-width="0.5" stroke-linecap="round" stroke-linejoin="round"/>
<path d="M90.1186 86.6108C90.1186 87.2889 90.0301 87.8687 89.8434 88.3601C89.6567 88.8515 89.3422 89.2152 88.9 89.4707L84.1632 92.1733L76.2322 96.6939C75.3477 97.1951 74.3061 97.087 73.117 96.3598C71.9376 95.6325 70.8959 94.5024 70.0114 92.9693C69.1171 91.4362 68.6749 89.9718 68.6749 88.5665C68.6749 87.9179 68.7731 87.3577 68.9696 86.8958C69.1858 86.3749 69.5397 85.972 70.0114 85.7066L71.6624 84.7632L74.8956 82.9156L71.6624 81.0484L62.7783 75.9184L58.4344 73.4222L52.0072 69.7073V95.8389L56.7835 92.9889L57.0586 92.8513C57.8939 92.5073 58.8767 92.6744 60.0069 93.323C61.2648 94.0503 62.3458 95.1804 63.2303 96.7135C64.1246 98.2466 64.5669 99.7306 64.5669 101.175C64.5669 102.62 64.1246 103.593 63.2303 104.104L50.6805 111.258C50.2284 111.514 49.7469 111.602 49.2358 111.514C48.715 111.425 48.1549 111.209 47.5652 110.865C46.9756 110.531 46.4153 110.098 45.8944 109.587C45.3834 109.076 44.9019 108.438 44.4498 107.671L31.7919 85.8246C30.8975 84.2915 30.475 82.837 30.5143 81.4513C30.5438 80.0656 31.0056 79.1222 31.9 78.621L32.1851 78.4834C33.0106 78.1394 33.9736 78.2868 35.0644 78.9158C36.2929 79.6234 37.3445 80.7437 38.229 82.2768L43.1232 90.8366V64.5675L37.197 61.1475L20.3427 51.4182L25.2369 59.7225C26.1213 61.2556 26.5637 62.7494 26.5637 64.1941C26.5637 65.6387 26.1213 66.6116 25.2369 67.1227C24.3425 67.6239 23.2714 67.5158 22.0135 66.7885C20.7556 66.0613 19.6745 64.9311 18.7901 63.398L6.23033 41.7479C5.78809 40.9813 5.47364 40.2442 5.28692 39.5366C5.1002 38.8389 5.01172 38.151 5.01172 37.4729C5.01172 36.7948 5.1002 36.2051 5.28692 35.7137C5.47364 35.2322 5.78809 34.8587 6.23033 34.6032L18.7901 27.4487L19.0751 27.3112C19.9006 26.9673 20.8636 27.1146 21.9544 27.7435C23.1731 28.4511 24.2344 29.5715 25.1189 31.1046C26.0132 32.6377 26.4555 34.102 26.4555 35.5073C26.4555 36.9127 26.0132 37.8661 25.1189 38.3673L20.2346 41.1582L36.7941 50.7204L43.1232 54.3763V28.1072L38.1208 30.9572C37.2363 31.4682 36.1947 31.3503 35.0154 30.6329C33.8263 29.9056 32.7844 28.7754 31.9 27.2423C31.0056 25.7092 30.5634 24.2351 30.5634 22.8396C30.5634 22.5742 30.5832 22.3187 30.6126 22.0829C30.6421 21.8666 30.6814 21.6603 30.7404 21.4735C30.9468 20.7954 31.33 20.2942 31.9 19.9699L44.4498 12.8155L44.7054 12.6877C45.0789 12.5304 45.4817 12.4911 45.8944 12.5599C46.4153 12.6484 46.9756 12.8646 47.5652 13.2085C48.1549 13.5525 48.715 13.9751 49.2358 14.4861C49.7469 14.9972 50.2284 15.636 50.6805 16.4025L54.3953 22.8199L62.7783 37.2861L63.3384 38.2492C64.2327 39.7823 64.675 41.2368 64.675 42.593C64.675 43.9492 64.2327 44.8829 63.3384 45.3939C62.4539 45.8951 61.4024 45.7968 60.1739 45.0892C58.9553 44.3915 57.9039 43.2711 57.0095 41.738L56.5475 40.9518L52.0072 33.2372V59.5063L62.7783 65.7272L71.6624 70.8473L74.7875 72.6556L71.6624 67.3389L69.9033 64.3513C69.009 62.8182 68.5668 61.3244 68.5668 59.8797C68.5668 58.4351 69.009 57.4622 69.9033 56.9511L70.1785 56.8135C71.0138 56.4794 71.9868 56.6367 73.117 57.2854C74.3847 58.0126 75.4558 59.1427 76.3403 60.6758L78.0013 63.5356L88.9 82.3358C89.3422 83.1023 89.6567 83.8296 89.8434 84.5372C90.0301 85.2349 90.1186 85.9229 90.1186 86.6108Z" fill="#AAFFCC" stroke="#166636" stroke-width="0.5" stroke-linecap="round" stroke-linejoin="round"/>
<path d="M71.663 81.0481V84.7629L70.012 85.7063C69.5402 85.9717 69.1864 86.3746 68.9702 86.8955L60.2826 91.2393L57.0592 92.851L56.7841 92.9886L52.0078 95.8386V69.707L58.4351 73.4219L62.7789 75.9181L71.663 81.0481Z" fill="#EDF3F1" stroke="#166636" stroke-width="0.5" stroke-linecap="round" stroke-linejoin="round"/>
<path d="M43.1217 73.0088V90.836L38.2277 82.2762C37.3432 80.7431 36.2915 79.6228 35.0631 78.9152C33.9722 78.2862 33.0091 78.1388 32.1836 78.4828L43.1217 73.0088Z" fill="#EDF3F1" stroke="#166636" stroke-width="0.5" stroke-linecap="round" stroke-linejoin="round"/>
<path d="M26.5646 64.1938C26.5646 62.7492 26.1223 61.2554 25.2378 59.7223L20.3438 51.418L37.1981 61.1473L25.2378 67.1225C26.1223 66.6114 26.5646 65.6385 26.5646 64.1938Z" fill="#EDF3F1" stroke="#166636" stroke-width="0.5" stroke-linecap="round" stroke-linejoin="round"/>
<path d="M43.1223 28.461V29.4831L39.8889 31.3307L28.7642 36.8931L20.2338 41.1583L25.1181 38.3673C26.0124 37.866 26.4546 36.9128 26.4546 35.5074C26.4546 34.1021 26.0124 32.6378 25.1181 31.1047C24.2336 29.5716 23.1722 28.4512 21.9536 27.7436C20.8627 27.1147 19.8997 26.9673 19.0742 27.3112L30.7396 21.4736C30.6806 21.6604 30.6413 21.8667 30.6118 22.0829C30.5823 22.3188 30.5626 22.5743 30.5626 22.8397C30.5626 24.2352 31.0048 25.7093 31.8991 27.2424C32.7836 28.7755 33.8254 29.9057 35.0146 30.6329C36.1939 31.3504 37.2355 31.4683 38.12 30.9573L43.1223 28.461Z" fill="#EDF3F1" stroke="#166636" stroke-width="0.5" stroke-linecap="round" stroke-linejoin="round"/>
<path d="M43.1228 33.1973V54.3758L36.7939 50.7199L20.2344 41.1577L28.7647 36.8925L39.8896 31.3301L43.1228 33.1973Z" fill="#EDF3F1" stroke="#166636" stroke-width="0.5" stroke-linecap="round" stroke-linejoin="round"/>
</svg>
