<svg width="28" height="28" viewBox="0 0 28 28" fill="none" xmlns="http://www.w3.org/2000/svg">
<g clip-path="url(#clip0_1262_23450)">
<path d="M14 14.875C14 15.1071 13.9078 15.3296 13.7437 15.4937C13.5796 15.6578 13.3571 15.75 13.125 15.75H7.875C7.64294 15.75 7.42038 15.6578 7.25628 15.4937C7.09219 15.3296 7 15.1071 7 14.875C7 14.6429 7.09219 14.4204 7.25628 14.2563C7.42038 14.0922 7.64294 14 7.875 14H13.125C13.3571 14 13.5796 14.0922 13.7437 14.2563C13.9078 14.4204 14 14.6429 14 14.875ZM13.125 10.5H7.875C7.64294 10.5 7.42038 10.5922 7.25628 10.7563C7.09219 10.9204 7 11.1429 7 11.375C7 11.6071 7.09219 11.8296 7.25628 11.9937C7.42038 12.1578 7.64294 12.25 7.875 12.25H13.125C13.3571 12.25 13.5796 12.1578 13.7437 11.9937C13.9078 11.8296 14 11.6071 14 11.375C14 11.1429 13.9078 10.9204 13.7437 10.7563C13.5796 10.5922 13.3571 10.5 13.125 10.5ZM25.375 17.661V24.5C25.3763 24.6542 25.3369 24.8061 25.2606 24.9402C25.1844 25.0742 25.074 25.1858 24.9408 25.2635C24.8076 25.3412 24.6561 25.3822 24.5019 25.3826C24.3477 25.3829 24.1961 25.3425 24.0625 25.2653L21.4375 23.7627L18.8125 25.2653C18.6789 25.3425 18.5273 25.3829 18.3731 25.3826C18.2189 25.3822 18.0674 25.3412 17.9342 25.2635C17.801 25.1858 17.6906 25.0742 17.6144 24.9402C17.5381 24.8061 17.4987 24.6542 17.5 24.5V21.875H4.375C3.91087 21.875 3.46575 21.6906 3.13756 21.3624C2.80937 21.0342 2.625 20.5891 2.625 20.125V6.125C2.625 5.66087 2.80937 5.21575 3.13756 4.88756C3.46575 4.55937 3.91087 4.375 4.375 4.375H23.625C24.0891 4.375 24.5342 4.55937 24.8624 4.88756C25.1906 5.21575 25.375 5.66087 25.375 6.125V9.464C25.928 9.9938 26.3681 10.63 26.6687 11.3344C26.9694 12.0387 27.1243 12.7967 27.1243 13.5625C27.1243 14.3283 26.9694 15.0863 26.6687 15.7906C26.3681 16.495 25.928 17.1312 25.375 17.661ZM17.5 20.125V17.661C16.5463 16.7414 15.9436 15.5178 15.7958 14.2013C15.648 12.8848 15.9644 11.558 16.6904 10.4498C17.4165 9.3417 18.5066 8.52178 19.7726 8.13157C21.0386 7.74137 22.4011 7.80536 23.625 8.3125V6.125H4.375V20.125H17.5ZM23.625 18.8125C22.9321 19.1021 22.1885 19.2512 21.4375 19.2512C20.6865 19.2512 19.9429 19.1021 19.25 18.8125V22.9927L21 21.9905C21.1322 21.915 21.2818 21.8753 21.434 21.8753C21.5862 21.8753 21.7358 21.915 21.868 21.9905L23.618 22.9938L23.625 18.8125ZM25.375 13.5625C25.375 13.0454 25.2732 12.5334 25.0753 12.0557C24.8774 11.578 24.5874 11.1439 24.2217 10.7783C23.8561 10.4126 23.422 10.1226 22.9443 9.92472C22.4666 9.72685 21.9546 9.625 21.4375 9.625C20.9204 9.625 20.4084 9.72685 19.9307 9.92472C19.453 10.1226 19.0189 10.4126 18.6533 10.7783C18.2876 11.1439 17.9976 11.578 17.7997 12.0557C17.6018 12.5334 17.5 13.0454 17.5 13.5625C17.5 14.6068 17.9148 15.6083 18.6533 16.3467C19.3917 17.0852 20.3932 17.5 21.4375 17.5C22.4818 17.5 23.4833 17.0852 24.2217 16.3467C24.9602 15.6083 25.375 14.6068 25.375 13.5625Z" fill="#166636"/>
</g>
<defs>
<clipPath id="clip0_1262_23450">
<rect width="28" height="28" fill="white"/>
</clipPath>
</defs>
</svg>
