<svg width="40" height="41" viewBox="0 0 40 41" fill="none" xmlns="http://www.w3.org/2000/svg">
<rect x="0.5" y="0.530273" width="39" height="39" rx="19.5" fill="white"/>
<rect x="0.5" y="0.530273" width="39" height="39" rx="19.5" stroke="#E8EDED"/>
<rect x="10.95" y="10.9803" width="18.1" height="18.1" rx="1.3" stroke="#166636" stroke-width="1.4"/>
<g clip-path="url(#clip0_387_794)">
<g clip-path="url(#clip1_387_794)">
<path d="M24.4996 23.6233V22.2683C24.5048 22.0467 24.4283 21.831 24.2846 21.6623C23.8806 21.1858 22.4921 20.8808 21.9421 20.9978C21.5131 21.0893 21.2131 21.5198 20.9201 21.8128C19.7877 21.1703 18.8497 20.234 18.2051 19.1028C18.4981 18.8098 18.9296 18.5103 19.0211 18.0828C19.1381 17.5343 18.8336 16.1548 18.3601 15.7488C18.1935 15.6058 17.9806 15.5281 17.7611 15.5303H16.4036C15.8866 15.5308 15.4561 15.9948 15.5036 16.5153C15.4996 20.9973 18.9996 24.5303 23.5121 24.5263C24.0351 24.5733 24.5011 24.1413 24.4991 23.6228L24.4996 23.6233Z" stroke="#166636" stroke-linecap="round" stroke-linejoin="round"/>
</g>
</g>
<defs>
<clipPath id="clip0_387_794">
<rect width="12" height="12" fill="white" transform="translate(14 14.0303)"/>
</clipPath>
<clipPath id="clip1_387_794">
<rect width="12" height="12" fill="white" transform="translate(14 14.0303)"/>
</clipPath>
</defs>
</svg>
