<svg width="49" height="48" viewBox="0 0 49 48" fill="none" xmlns="http://www.w3.org/2000/svg">
<rect x="0.333496" width="48" height="48" rx="12" fill="#166636"/>
<g clip-path="url(#clip0_485_965)">
<g clip-path="url(#clip1_485_965)">
<g clip-path="url(#clip2_485_965)">
<path d="M36.7689 16.9821C36.6583 16.4256 36.4125 15.9048 36.053 15.4658C35.9789 15.3723 35.9015 15.2885 35.8175 15.2048C35.1947 14.5789 34.3206 14.1885 33.3657 14.1885H15.3013C14.3464 14.1885 13.4754 14.5789 12.8497 15.2048C12.7659 15.2885 12.6885 15.3723 12.6142 15.4658C12.2625 15.8949 12.0107 16.4144 11.9012 16.9821C11.8559 17.204 11.8332 17.43 11.8335 17.6565V30.3437C11.8335 30.8304 11.9367 31.2982 12.1208 31.7208C12.2916 32.1241 12.5433 32.489 12.8496 32.795C12.9261 32.8715 13.0058 32.9448 13.0885 33.0145C13.7106 33.53 14.4934 33.8118 15.3013 33.8113H33.3657C34.2045 33.8113 34.9823 33.5113 35.5787 33.0113C35.6626 32.9437 35.7401 32.8725 35.8175 32.795C36.1237 32.489 36.3754 32.1241 36.5497 31.7208V31.7176C36.7337 31.2951 36.8335 30.8304 36.8335 30.3437V17.6565C36.8334 17.4302 36.8118 17.2043 36.7689 16.9821ZM14.1044 16.4594C14.4143 16.15 14.8303 15.9626 15.3013 15.9626H33.3657C33.8367 15.9626 34.2564 16.15 34.5626 16.4594C34.6173 16.515 34.668 16.5744 34.7145 16.637L25.2464 24.8887C24.9853 25.1176 24.6627 25.2306 24.3335 25.2306C24.0076 25.2306 23.6853 25.1176 23.4207 24.8887L13.9562 16.6335C13.998 16.5725 14.0497 16.5146 14.1044 16.4594ZM13.6076 30.3437V18.4694L20.4594 24.4467L13.6111 30.4176C13.6076 30.395 13.6076 30.3695 13.6076 30.3437ZM33.3657 32.0369H15.3013C14.9946 32.0369 14.7077 31.9562 14.4627 31.8146L21.6882 25.5178L22.3628 26.1046C22.9273 26.5951 23.6337 26.8436 24.3335 26.8436C25.0591 26.8433 25.7602 26.5808 26.3077 26.1046L26.9819 25.5178L34.2046 31.8146C33.9593 31.9562 33.6724 32.0369 33.3657 32.0369ZM35.0594 30.3437C35.0594 30.3695 35.0594 30.395 35.0561 30.4176L28.2078 24.4501L35.0594 18.4726V30.3437Z" fill="white"/>
</g>
</g>
</g>
<defs>
<clipPath id="clip0_485_965">
<rect width="25" height="25" fill="white" transform="translate(11.8335 11.5)"/>
</clipPath>
<clipPath id="clip1_485_965">
<rect width="25" height="25" fill="white" transform="translate(11.8335 11.5)"/>
</clipPath>
<clipPath id="clip2_485_965">
<rect width="25" height="25" fill="white" transform="translate(11.8335 11.5)"/>
</clipPath>
</defs>
</svg>
