<svg width="48" height="48" viewBox="0 0 48 48" fill="none" xmlns="http://www.w3.org/2000/svg">
<rect width="48" height="48" rx="12" fill="#166636"/>
<g clip-path="url(#clip0_485_971)">
<g clip-path="url(#clip1_485_971)">
<path d="M24 26.0833C24.4104 26.0833 24.8167 26.0024 25.1959 25.8454C25.575 25.6883 25.9195 25.4581 26.2097 25.168C26.4999 24.8778 26.7301 24.5333 26.8871 24.1541C27.0442 23.775 27.125 23.3686 27.125 22.9583C27.125 22.5479 27.0442 22.1415 26.8871 21.7624C26.7301 21.3832 26.4999 21.0387 26.2097 20.7485C25.9195 20.4584 25.575 20.2282 25.1959 20.0711C24.8167 19.9141 24.4104 19.8333 24 19.8333C23.1712 19.8333 22.3763 20.1625 21.7903 20.7485C21.2042 21.3346 20.875 22.1295 20.875 22.9583C20.875 23.7871 21.2042 24.5819 21.7903 25.168C22.3763 25.754 23.1712 26.0833 24 26.0833Z" stroke="white" stroke-width="1.5625" stroke-linecap="round" stroke-linejoin="round"/>
<path d="M23.9998 33.375C28.6019 31.2917 32.3332 27.5604 32.3332 22.9583C32.3332 20.7482 31.4552 18.6286 29.8924 17.0658C28.3296 15.503 26.21 14.625 23.9998 14.625C21.7897 14.625 19.6701 15.503 18.1073 17.0658C16.5445 18.6286 15.6665 20.7482 15.6665 22.9583C15.6665 27.5604 19.3978 31.2917 23.9998 33.375Z" stroke="white" stroke-width="1.5625" stroke-linecap="round" stroke-linejoin="round"/>
</g>
</g>
<defs>
<clipPath id="clip0_485_971">
<rect width="25" height="25" fill="white" transform="translate(11.5 11.5)"/>
</clipPath>
<clipPath id="clip1_485_971">
<rect width="25" height="25" fill="white" transform="translate(11.5 11.5)"/>
</clipPath>
</defs>
</svg>
