<svg width="40" height="41" viewBox="0 0 40 41" fill="none" xmlns="http://www.w3.org/2000/svg">
<rect x="0.5" y="0.530273" width="39" height="39" rx="19.5" fill="white"/>
<rect x="0.5" y="0.530273" width="39" height="39" rx="19.5" stroke="#E8EDED"/>
<path d="M28.25 10.2803H11.75C11.3522 10.2803 10.9706 10.4383 10.6893 10.7196C10.408 11.0009 10.25 11.3824 10.25 11.7803V28.2803C10.25 28.6781 10.408 29.0596 10.6893 29.3409C10.9706 29.6222 11.3522 29.7803 11.75 29.7803H28.25C28.6478 29.7803 29.0294 29.6222 29.3107 29.3409C29.592 29.0596 29.75 28.6781 29.75 28.2803V11.7803C29.75 11.3824 29.592 11.0009 29.3107 10.7196C29.0294 10.4383 28.6478 10.2803 28.25 10.2803ZM28.25 28.2803H11.75V11.7803H28.25V28.2803Z" fill="#166636"/>
<g clip-path="url(#clip0_380_1294)">
<path d="M23 15.0303H21.5C20.837 15.0303 20.2011 15.2937 19.7322 15.7625C19.2634 16.2313 19 16.8672 19 17.5303V19.0303H17.5V21.0303H19V25.0303H21V21.0303H22.5L23 19.0303H21V17.5303C21 17.3977 21.0527 17.2705 21.1464 17.1767C21.2402 17.083 21.3674 17.0303 21.5 17.0303H23V15.0303Z" stroke="#166636" stroke-linecap="round" stroke-linejoin="round"/>
</g>
<defs>
<clipPath id="clip0_380_1294">
<rect width="12" height="12" fill="white" transform="translate(14 14.0303)"/>
</clipPath>
</defs>
</svg>
