<svg width="40" height="41" viewBox="0 0 40 41" fill="none" xmlns="http://www.w3.org/2000/svg">
<rect x="0.5" y="0.530258" width="39" height="39" rx="19.5" fill="white"/>
<rect x="0.5" y="0.530258" width="39" height="39" rx="19.5" stroke="#E8EDED"/>
<path d="M20 15.5303C19.11 15.5303 18.24 15.7942 17.4999 16.2886C16.7599 16.7831 16.1831 17.4859 15.8425 18.3082C15.5019 19.1305 15.4128 20.0352 15.5865 20.9082C15.7601 21.7811 16.1887 22.5829 16.818 23.2122C17.4474 23.8416 18.2492 24.2702 19.1221 24.4438C19.995 24.6174 20.8998 24.5283 21.7221 24.1877C22.5443 23.8471 23.2471 23.2703 23.7416 22.5303C24.2361 21.7903 24.5 20.9203 24.5 20.0303C24.4988 18.8372 24.0243 17.6933 23.1806 16.8496C22.337 16.006 21.1931 15.5315 20 15.5303ZM20 23.0303C19.4067 23.0303 18.8266 22.8543 18.3333 22.5247C17.8399 22.195 17.4554 21.7265 17.2284 21.1783C17.0013 20.6301 16.9419 20.0269 17.0576 19.445C17.1734 18.863 17.4591 18.3285 17.8787 17.9089C18.2982 17.4894 18.8328 17.2037 19.4147 17.0879C19.9967 16.9721 20.5999 17.0316 21.1481 17.2586C21.6962 17.4857 22.1648 17.8702 22.4944 18.3635C22.8241 18.8569 23 19.4369 23 20.0303C23 20.8259 22.6839 21.589 22.1213 22.1516C21.5587 22.7142 20.7956 23.0303 20 23.0303ZM24.5 10.2803H15.5C14.1081 10.2817 12.7736 10.8353 11.7893 11.8196C10.8051 12.8038 10.2515 14.1383 10.25 15.5303V24.5303C10.2515 25.9222 10.8051 27.2567 11.7893 28.2409C12.7736 29.2252 14.1081 29.7788 15.5 29.7803H24.5C25.8919 29.7788 27.2264 29.2252 28.2107 28.2409C29.1949 27.2567 29.7485 25.9222 29.75 24.5303V15.5303C29.7485 14.1383 29.1949 12.8038 28.2107 11.8196C27.2264 10.8353 25.8919 10.2817 24.5 10.2803ZM28.25 24.5303C28.25 25.5248 27.8549 26.4786 27.1516 27.1819C26.4484 27.8852 25.4946 28.2803 24.5 28.2803H15.5C14.5054 28.2803 13.5516 27.8852 12.8483 27.1819C12.1451 26.4786 11.75 25.5248 11.75 24.5303V15.5303C11.75 14.5357 12.1451 13.5819 12.8483 12.8786C13.5516 12.1753 14.5054 11.7803 15.5 11.7803H24.5C25.4946 11.7803 26.4484 12.1753 27.1516 12.8786C27.8549 13.5819 28.25 14.5357 28.25 15.5303V24.5303ZM26 15.1553C26 15.3778 25.934 15.5953 25.8104 15.7803C25.6868 15.9653 25.5111 16.1095 25.3055 16.1946C25.1 16.2798 24.8738 16.3021 24.6555 16.2586C24.4373 16.2152 24.2368 16.1081 24.0795 15.9508C23.9222 15.7934 23.815 15.593 23.7716 15.3747C23.7282 15.1565 23.7505 14.9303 23.8356 14.7247C23.9208 14.5192 24.065 14.3435 24.25 14.2199C24.435 14.0962 24.6525 14.0303 24.875 14.0303C25.1734 14.0303 25.4595 14.1488 25.6705 14.3598C25.8815 14.5707 26 14.8569 26 15.1553Z" fill="#166636"/>
</svg>
