<svg width="40" height="41" viewBox="0 0 40 41" fill="none" xmlns="http://www.w3.org/2000/svg">
<rect x="0.5" y="0.530273" width="39" height="39" rx="19.5" fill="white"/>
<rect x="0.5" y="0.530273" width="39" height="39" rx="19.5" stroke="#E8EDED"/>
<path d="M28.25 10.2803H11.75C11.3522 10.2803 10.9706 10.4383 10.6893 10.7196C10.408 11.0009 10.25 11.3824 10.25 11.7803V28.2803C10.25 28.6781 10.408 29.0596 10.6893 29.3409C10.9706 29.6222 11.3522 29.7803 11.75 29.7803H28.25C28.6478 29.7803 29.0294 29.6222 29.3107 29.3409C29.592 29.0596 29.75 28.6781 29.75 28.2803V11.7803C29.75 11.3824 29.592 11.0009 29.3107 10.7196C29.0294 10.4383 28.6478 10.2803 28.25 10.2803ZM28.25 28.2803H11.75V11.7803H28.25V28.2803ZM17 18.5303V24.5303C17 24.7292 16.921 24.92 16.7803 25.0606C16.6397 25.2013 16.4489 25.2803 16.25 25.2803C16.0511 25.2803 15.8603 25.2013 15.7197 25.0606C15.579 24.92 15.5 24.7292 15.5 24.5303V18.5303C15.5 18.3314 15.579 18.1406 15.7197 17.9999C15.8603 17.8593 16.0511 17.7803 16.25 17.7803C16.4489 17.7803 16.6397 17.8593 16.7803 17.9999C16.921 18.1406 17 18.3314 17 18.5303ZM25.25 21.1553V24.5303C25.25 24.7292 25.171 24.92 25.0303 25.0606C24.8897 25.2013 24.6989 25.2803 24.5 25.2803C24.3011 25.2803 24.1103 25.2013 23.9697 25.0606C23.829 24.92 23.75 24.7292 23.75 24.5303V21.1553C23.75 20.658 23.5525 20.1811 23.2008 19.8294C22.8492 19.4778 22.3723 19.2803 21.875 19.2803C21.3777 19.2803 20.9008 19.4778 20.5492 19.8294C20.1975 20.1811 20 20.658 20 21.1553V24.5303C20 24.7292 19.921 24.92 19.7803 25.0606C19.6397 25.2013 19.4489 25.2803 19.25 25.2803C19.0511 25.2803 18.8603 25.2013 18.7197 25.0606C18.579 24.92 18.5 24.7292 18.5 24.5303V18.5303C18.5009 18.3466 18.5693 18.1696 18.692 18.0329C18.8148 17.8962 18.9834 17.8094 19.166 17.7888C19.3485 17.7682 19.5323 17.8154 19.6824 17.9213C19.8325 18.0272 19.9385 18.1845 19.9803 18.3634C20.4877 18.0192 21.0792 17.8197 21.6914 17.7864C22.3036 17.753 22.9133 17.8871 23.455 18.1741C23.9968 18.4611 24.4501 18.8903 24.7664 19.4155C25.0826 19.9407 25.2498 20.5422 25.25 21.1553ZM17.375 15.9053C17.375 16.1278 17.309 16.3453 17.1854 16.5303C17.0618 16.7153 16.8861 16.8595 16.6805 16.9446C16.475 17.0298 16.2488 17.0521 16.0305 17.0087C15.8123 16.9652 15.6118 16.8581 15.4545 16.7008C15.2972 16.5434 15.19 16.343 15.1466 16.1248C15.1032 15.9065 15.1255 15.6803 15.2106 15.4748C15.2958 15.2692 15.44 15.0935 15.625 14.9699C15.81 14.8463 16.0275 14.7803 16.25 14.7803C16.5484 14.7803 16.8345 14.8988 17.0455 15.1098C17.2565 15.3208 17.375 15.6069 17.375 15.9053Z" fill="#166636"/>
</svg>
