<svg width="40" height="40" viewBox="0 0 40 40" fill="none" xmlns="http://www.w3.org/2000/svg">
<rect width="40" height="40" rx="20" fill="#CEFFE2"/>
<path d="M10.625 18.5H29.375C29.4745 18.5 29.5698 18.5395 29.6402 18.6098C29.7105 18.6802 29.75 18.7755 29.75 18.875V22.625C29.75 22.7245 29.7105 22.8198 29.6402 22.8902C29.5698 22.9605 29.4745 23 29.375 23H10.625C10.5255 23 10.4302 22.9605 10.3598 22.8902C10.2895 22.8198 10.25 22.7245 10.25 22.625V18.875C10.25 18.7755 10.2895 18.6802 10.3598 18.6098C10.4302 18.5395 10.5255 18.5 10.625 18.5ZM10.25 26.75C10.25 27.1478 10.408 27.5294 10.6893 27.8107C10.9706 28.092 11.3522 28.25 11.75 28.25H28.25C28.6478 28.25 29.0294 28.092 29.3107 27.8107C29.592 27.5294 29.75 27.1478 29.75 26.75V24.875C29.75 24.7755 29.7105 24.6802 29.6402 24.6098C29.5698 24.5395 29.4745 24.5 29.375 24.5H10.625C10.5255 24.5 10.4302 24.5395 10.3598 24.6098C10.2895 24.6802 10.25 24.7755 10.25 24.875V26.75ZM29.75 14.75V16.625C29.75 16.7245 29.7105 16.8198 29.6402 16.8902C29.5698 16.9605 29.4745 17 29.375 17H10.625C10.5255 17 10.4302 16.9605 10.3598 16.8902C10.2895 16.8198 10.25 16.7245 10.25 16.625V14.75C10.25 14.3522 10.408 13.9706 10.6893 13.6893C10.9706 13.408 11.3522 13.25 11.75 13.25H15.5V12.5C15.5 11.9033 15.7371 11.331 16.159 10.909C16.581 10.4871 17.1533 10.25 17.75 10.25H22.25C22.8467 10.25 23.419 10.4871 23.841 10.909C24.2629 11.331 24.5 11.9033 24.5 12.5V13.25H28.25C28.6478 13.25 29.0294 13.408 29.3107 13.6893C29.592 13.9706 29.75 14.3522 29.75 14.75ZM23 12.5C23 12.3011 22.921 12.1103 22.7803 11.9697C22.6397 11.829 22.4489 11.75 22.25 11.75H17.75C17.5511 11.75 17.3603 11.829 17.2197 11.9697C17.079 12.1103 17 12.3011 17 12.5V13.25H23V12.5Z" fill="black"/>
</svg>
