<svg width="40" height="40" viewBox="0 0 40 40" fill="none" xmlns="http://www.w3.org/2000/svg">
<rect width="40" height="40" rx="20" fill="#CEFFE2"/>
<path d="M24.5001 29.7504C24.5001 29.9494 24.4211 30.1401 24.2805 30.2808C24.1398 30.4214 23.949 30.5004 23.7501 30.5004H16.2501C16.0512 30.5004 15.8604 30.4214 15.7198 30.2808C15.5791 30.1401 15.5001 29.9494 15.5001 29.7504C15.5001 29.5515 15.5791 29.3608 15.7198 29.2201C15.8604 29.0795 16.0512 29.0004 16.2501 29.0004H23.7501C23.949 29.0004 24.1398 29.0795 24.2805 29.2201C24.4211 29.3608 24.5001 29.5515 24.5001 29.7504ZM28.2501 17.7504C28.2534 19.0007 27.9709 20.2352 27.4243 21.3597C26.8778 22.4842 26.0815 23.469 25.0964 24.2389C24.9122 24.3801 24.7627 24.5615 24.6593 24.7693C24.556 24.9772 24.5015 25.2059 24.5001 25.4379V26.0004C24.5001 26.3983 24.3421 26.7798 24.0608 27.0611C23.7795 27.3424 23.3979 27.5004 23.0001 27.5004H17.0001C16.6023 27.5004 16.2208 27.3424 15.9395 27.0611C15.6582 26.7798 15.5001 26.3983 15.5001 26.0004V25.4379C15.5 25.2086 15.4472 24.9824 15.346 24.7766C15.2447 24.5709 15.0977 24.3911 14.9161 24.2511C13.9334 23.4857 13.1377 22.5069 12.5892 21.3886C12.0407 20.2703 11.7537 19.0419 11.7501 17.7964C11.7257 13.3283 15.337 9.60732 19.8014 9.50044C20.9014 9.47393 21.9956 9.66774 23.0196 10.0705C24.0436 10.4732 24.9767 11.0767 25.7639 11.8454C26.5512 12.6141 27.1767 13.5326 27.6037 14.5467C28.0306 15.5608 28.2504 16.6501 28.2501 17.7504ZM23.5307 17.9698C23.4611 17.9001 23.3784 17.8448 23.2873 17.807C23.1963 17.7693 23.0987 17.7499 23.0001 17.7499C22.9016 17.7499 22.804 17.7693 22.7129 17.807C22.6219 17.8448 22.5392 17.9001 22.4695 17.9698L20.0001 20.4401L17.5307 17.9698C17.39 17.8291 17.1991 17.75 17.0001 17.75C16.8011 17.75 16.6102 17.8291 16.4695 17.9698C16.3288 18.1105 16.2497 18.3014 16.2497 18.5004C16.2497 18.6995 16.3288 18.8903 16.4695 19.0311L19.2501 21.8108V25.2504C19.2501 25.4494 19.3291 25.6401 19.4698 25.7808C19.6104 25.9214 19.8012 26.0004 20.0001 26.0004C20.199 26.0004 20.3898 25.9214 20.5305 25.7808C20.6711 25.6401 20.7501 25.4494 20.7501 25.2504V21.8108L23.5307 19.0311C23.6005 18.9614 23.6558 18.8787 23.6935 18.7876C23.7313 18.6966 23.7507 18.599 23.7507 18.5004C23.7507 18.4019 23.7313 18.3043 23.6935 18.2132C23.6558 18.1222 23.6005 18.0395 23.5307 17.9698Z" fill="black"/>
</svg>
