<svg width="40" height="40" viewBox="0 0 40 40" fill="none" xmlns="http://www.w3.org/2000/svg">
<rect width="40" height="40" rx="20" fill="#CEFFE2"/>
<path d="M30.5004 13.25V19.25C30.5005 19.3984 30.4566 19.5435 30.3742 19.667C30.2918 19.7904 30.1746 19.8867 30.0375 19.9435C29.9004 20.0003 29.7495 20.0151 29.6039 19.9861C29.4584 19.9572 29.3247 19.8856 29.2198 19.7806L26.7504 17.3103L21.281 22.7806C21.2114 22.8504 21.1287 22.9057 21.0376 22.9434C20.9466 22.9812 20.849 23.0006 20.7504 23.0006C20.6519 23.0006 20.5543 22.9812 20.4632 22.9434C20.3722 22.9057 20.2894 22.8504 20.2198 22.7806L17.0004 19.5603L10.781 25.7806C10.6403 25.9214 10.4494 26.0004 10.2504 26.0004C10.0514 26.0004 9.86052 25.9214 9.71979 25.7806C9.57906 25.6399 9.5 25.449 9.5 25.25C9.5 25.051 9.57906 24.8601 9.71979 24.7194L16.4698 17.9694C16.5394 17.8996 16.6222 17.8443 16.7132 17.8066C16.8043 17.7688 16.9019 17.7494 17.0004 17.7494C17.099 17.7494 17.1966 17.7688 17.2876 17.8066C17.3787 17.8443 17.4614 17.8996 17.531 17.9694L20.7504 21.1897L25.6901 16.25L23.2198 13.7806C23.1148 13.6757 23.0433 13.542 23.0143 13.3965C22.9853 13.2509 23.0001 13.1 23.057 12.9629C23.1138 12.8258 23.21 12.7086 23.3334 12.6262C23.4569 12.5438 23.602 12.4999 23.7504 12.5H29.7504C29.9493 12.5 30.1401 12.579 30.2807 12.7197C30.4214 12.8603 30.5004 13.0511 30.5004 13.25Z" fill="black"/>
</svg>
