<svg width="40" height="40" viewBox="0 0 40 40" fill="none" xmlns="http://www.w3.org/2000/svg">
<rect width="40" height="40" rx="20" fill="#CEFFE2"/>
<path fill-rule="evenodd" clip-rule="evenodd" d="M20.9989 11C21.5035 10.9998 21.9895 11.1904 22.3594 11.5335C22.7294 11.8766 22.956 12.3468 22.9939 12.85L22.9989 13V27H23.9989V17.5C23.9989 17.383 24.0399 17.2696 24.1148 17.1797C24.1897 17.0898 24.2938 17.0291 24.4089 17.008L24.4989 17H25.9989C26.5035 16.9998 26.9895 17.1904 27.3594 17.5335C27.7294 17.8766 27.956 18.3468 27.9939 18.85L27.9989 19V27H28.9989C29.2538 27.0003 29.4989 27.0979 29.6843 27.2728C29.8696 27.4478 29.9811 27.687 29.9961 27.9414C30.011 28.1958 29.9282 28.4464 29.7646 28.6418C29.601 28.8373 29.369 28.9629 29.1159 28.993L28.9989 29H10.9989C10.744 28.9997 10.4989 28.9021 10.3135 28.7272C10.1282 28.5522 10.0167 28.313 10.0017 28.0586C9.98678 27.8042 10.0696 27.5536 10.2332 27.3582C10.3967 27.1627 10.6288 27.0371 10.8819 27.007L10.9989 27H11.9989V13C11.9987 12.4954 12.1893 12.0094 12.5324 11.6395C12.8755 11.2695 13.3457 11.0428 13.8489 11.005L13.9989 11H20.9989ZM18.9989 23H15.9989V25H18.9989V23ZM18.9989 19H15.9989V21H18.9989V19ZM18.9989 15H15.9989V17H18.9989V15Z" fill="#166636"/>
</svg>
