<svg width="48" height="40" viewBox="0 0 48 40" fill="none" xmlns="http://www.w3.org/2000/svg">
<g clip-path="url(#clip0_1258_22774)">
<g clip-path="url(#clip1_1258_22774)">
<g clip-path="url(#clip2_1258_22774)">
<mask id="mask0_1258_22774" style="mask-type:luminance" maskUnits="userSpaceOnUse" x="0" y="0" width="40" height="40">
<path d="M0 0H40V40H0V0Z" fill="white"/>
</mask>
<g mask="url(#mask0_1258_22774)">
<path d="M2.46995 39.5798C2.06335 39.581 1.66557 39.4612 1.32722 39.2357C0.988859 39.0102 0.725199 38.6892 0.569763 38.3135C0.414327 37.9377 0.374135 37.5243 0.454298 37.1257C0.534462 36.727 0.731359 36.3612 1.01995 36.0748L32.57 4.5248H8.84995C8.30626 4.5248 7.78483 4.30882 7.40038 3.92437C7.01594 3.53992 6.79995 3.0185 6.79995 2.4748C6.79995 1.93111 7.01594 1.40969 7.40038 1.02524C7.78483 0.640786 8.30626 0.424805 8.84995 0.424805H37.53C37.9338 0.428337 38.3278 0.550529 38.6628 0.776182C38.9978 1.00184 39.2591 1.32099 39.4141 1.69396C39.5692 2.06693 39.6111 2.47725 39.5348 2.87389C39.4585 3.27053 39.2673 3.63599 38.985 3.9248L3.92495 38.9848C3.53787 39.3686 3.01503 39.5792 2.46995 39.5798Z" fill="white"/>
<path d="M37.5266 33.1498C37.2574 33.1498 36.9908 33.0968 36.7421 32.9938C36.4933 32.8907 36.2674 32.7397 36.077 32.5494C35.8866 32.359 35.7356 32.133 35.6326 31.8843C35.5296 31.6356 35.4766 31.369 35.4766 31.0998V2.4748C35.4766 1.93111 35.6925 1.40969 36.077 1.02524C36.4614 0.640786 36.9829 0.424805 37.5266 0.424805C38.0703 0.424805 38.5917 0.640786 38.9761 1.02524C39.3606 1.40969 39.5766 1.93111 39.5766 2.4748V31.0998C39.5766 31.369 39.5235 31.6356 39.4205 31.8843C39.3175 32.133 39.1665 32.359 38.9761 32.5494C38.7858 32.7397 38.5598 32.8907 38.3111 32.9938C38.0623 33.0968 37.7958 33.1498 37.5266 33.1498Z" fill="white"/>
</g>
</g>
</g>
</g>
<defs>
<clipPath id="clip0_1258_22774">
<rect width="48" height="40" fill="white"/>
</clipPath>
<clipPath id="clip1_1258_22774">
<rect width="40" height="40" fill="white"/>
</clipPath>
<clipPath id="clip2_1258_22774">
<rect width="40" height="40" fill="white"/>
</clipPath>
</defs>
</svg>
