<svg width="28" height="28" viewBox="0 0 28 28" fill="none" xmlns="http://www.w3.org/2000/svg">
<path d="M18.375 16.6248C18.375 16.8569 18.2828 17.0795 18.1187 17.2436C17.9546 17.4077 17.7321 17.4998 17.5 17.4998H10.5C10.2679 17.4998 10.0454 17.4077 9.88128 17.2436C9.71719 17.0795 9.625 16.8569 9.625 16.6248C9.625 16.3928 9.71719 16.1702 9.88128 16.0061C10.0454 15.842 10.2679 15.7498 10.5 15.7498H17.5C17.7321 15.7498 17.9546 15.842 18.1187 16.0061C18.2828 16.1702 18.375 16.3928 18.375 16.6248ZM17.5 12.2498H10.5C10.2679 12.2498 10.0454 12.342 9.88128 12.5061C9.71719 12.6702 9.625 12.8928 9.625 13.1248C9.625 13.3569 9.71719 13.5795 9.88128 13.7436C10.0454 13.9077 10.2679 13.9998 10.5 13.9998H17.5C17.7321 13.9998 17.9546 13.9077 18.1187 13.7436C18.2828 13.5795 18.375 13.3569 18.375 13.1248C18.375 12.8928 18.2828 12.6702 18.1187 12.5061C17.9546 12.342 17.7321 12.2498 17.5 12.2498ZM23.625 5.24984V23.6248C23.625 24.089 23.4406 24.5341 23.1124 24.8623C22.7842 25.1905 22.3391 25.3748 21.875 25.3748H6.125C5.66087 25.3748 5.21575 25.1905 4.88756 24.8623C4.55937 24.5341 4.375 24.089 4.375 23.6248V5.24984C4.375 4.78571 4.55937 4.34059 4.88756 4.0124C5.21575 3.68422 5.66087 3.49984 6.125 3.49984H10.0909C10.5826 2.94938 11.1849 2.50897 11.8586 2.20742C12.5322 1.90587 13.2619 1.75 14 1.75C14.7381 1.75 15.4678 1.90587 16.1414 2.20742C16.8151 2.50897 17.4174 2.94938 17.9091 3.49984H21.875C22.3391 3.49984 22.7842 3.68422 23.1124 4.0124C23.4406 4.34059 23.625 4.78571 23.625 5.24984ZM10.5 6.99984H17.5C17.5 6.07158 17.1313 5.18134 16.4749 4.52497C15.8185 3.86859 14.9283 3.49984 14 3.49984C13.0717 3.49984 12.1815 3.86859 11.5251 4.52497C10.8687 5.18134 10.5 6.07158 10.5 6.99984ZM21.875 5.24984H18.9492C19.1483 5.81183 19.25 6.40365 19.25 6.99984V7.87484C19.25 8.10691 19.1578 8.32947 18.9937 8.49356C18.8296 8.65765 18.6071 8.74984 18.375 8.74984H9.625C9.39294 8.74984 9.17038 8.65765 9.00628 8.49356C8.84219 8.32947 8.75 8.10691 8.75 7.87484V6.99984C8.75002 6.40365 8.85174 5.81183 9.05078 5.24984H6.125V23.6248H21.875V5.24984Z" fill="#166636"/>
</svg>
