<svg width="24" height="25" viewBox="0 0 24 25" fill="none" xmlns="http://www.w3.org/2000/svg">
<path d="M12 2.90002C6.486 2.90002 2 7.38602 2 12.9C2 18.414 6.486 22.9 12 22.9C17.514 22.9 22 18.414 22 12.9C22 7.38602 17.514 2.90002 12 2.90002ZM19.931 11.9H17.167C17.0436 9.71127 16.4313 7.57799 15.375 5.65702C16.5992 6.22907 17.6589 7.10142 18.4554 8.19293C19.252 9.28444 19.7596 10.5597 19.931 11.9ZM12.53 4.92702C13.565 6.29102 14.957 8.70702 15.157 11.9H9.03C9.169 9.30402 10.024 6.87202 11.481 4.92602C11.653 4.91602 11.825 4.90002 12 4.90002C12.179 4.90002 12.354 4.91602 12.53 4.92702ZM8.688 5.62702C7.704 7.51802 7.136 9.66202 7.03 11.9H4.069C4.24177 10.5479 4.75663 9.26212 5.56489 8.16444C6.37315 7.06675 7.44808 6.19341 8.688 5.62702ZM4.069 13.9H7.043C7.179 16.279 7.708 18.378 8.599 20.13C7.38119 19.5559 6.32773 18.6842 5.53596 17.5953C4.74419 16.5064 4.23966 15.2355 4.069 13.9ZM11.45 20.873C10.049 19.175 9.222 16.796 9.041 13.9H15.154C14.946 16.673 14.037 19.096 12.551 20.872C12.369 20.884 12.187 20.9 12 20.9C11.814 20.9 11.633 20.884 11.45 20.873ZM15.461 20.101C16.416 18.307 16.999 16.2 17.152 13.9H19.93C19.7612 15.2243 19.264 16.4853 18.4834 17.5684C17.7029 18.6514 16.6639 19.522 15.461 20.101Z" fill="#F6F6F6"/>
</svg>
