<svg width="24" height="25" viewBox="0 0 24 25" fill="none" xmlns="http://www.w3.org/2000/svg">
<path fill-rule="evenodd" clip-rule="evenodd" d="M4.5 4.1427C3.67157 4.1427 3 4.81427 3 5.6427V20.6427C3 21.4711 3.67157 22.1427 4.5 22.1427H19.5C20.3284 22.1427 21 21.4711 21 20.6427V5.6427C21 4.81427 20.3284 4.1427 19.5 4.1427H4.5ZM8.52076 8.14542C8.52639 9.10167 7.81061 9.69089 6.96123 9.68667C6.16107 9.68245 5.46357 9.04542 5.46779 8.14683C5.47201 7.30167 6.13998 6.62245 7.00764 6.64214C7.88795 6.66183 8.52639 7.3073 8.52076 8.14542ZM12.2797 10.9044H9.75971H9.7583V19.4643H12.4217V19.2646C12.4217 18.8847 12.4214 18.5047 12.4211 18.1246C12.4203 17.1108 12.4194 16.0959 12.4246 15.0824C12.426 14.8363 12.4372 14.5804 12.5005 14.3455C12.7381 13.468 13.5271 12.9013 14.4074 13.0406C14.9727 13.1291 15.3467 13.4568 15.5042 13.9898C15.6013 14.323 15.6449 14.6816 15.6491 15.029C15.6605 16.0766 15.6589 17.1242 15.6573 18.1719C15.6567 18.5417 15.6561 18.9117 15.6561 19.2815V19.4629H18.328V19.2576C18.328 18.8056 18.3278 18.3537 18.3275 17.9018C18.327 16.7723 18.3264 15.6428 18.3294 14.5129C18.3308 14.0024 18.276 13.499 18.1508 13.0054C17.9638 12.2713 17.5771 11.6638 16.9485 11.2251C16.5027 10.9129 16.0133 10.7118 15.4663 10.6893C15.404 10.6867 15.3412 10.6833 15.2781 10.6799C14.9984 10.6648 14.7141 10.6494 14.4467 10.7034C13.6817 10.8566 13.0096 11.2068 12.5019 11.8241C12.4429 11.8949 12.3852 11.9668 12.2991 12.0741L12.2797 12.0984V10.9044ZM5.68164 19.4671H8.33242V10.91H5.68164V19.4671Z" fill="#F6F6F6"/>
</svg>
