<svg width="28" height="28" viewBox="0 0 28 28" fill="none" xmlns="http://www.w3.org/2000/svg">
<g clip-path="url(#clip0_1262_23441)">
<path d="M25.2558 18.8128C25.3714 19.0134 25.4028 19.2516 25.3431 19.4753C25.2834 19.699 25.1375 19.8899 24.9373 20.0063L14.4373 26.1313C14.3035 26.2094 14.1513 26.2505 13.9963 26.2505C13.8414 26.2505 13.6892 26.2094 13.5553 26.1313L3.05532 20.0063C2.85482 19.8893 2.70899 19.6975 2.64991 19.473C2.59084 19.2485 2.62336 19.0098 2.74032 18.8093C2.85728 18.6088 3.0491 18.4629 3.27358 18.4039C3.49806 18.3448 3.73682 18.3773 3.93732 18.4943L13.9998 24.3626L24.0623 18.4943C24.2629 18.3786 24.5012 18.3472 24.7249 18.4069C24.9486 18.4666 25.1395 18.6126 25.2558 18.8128ZM24.0623 13.2443L13.9998 19.1126L3.93732 13.2443C3.73795 13.1441 3.50786 13.124 3.29411 13.1878C3.08035 13.2517 2.89907 13.3948 2.78732 13.5879C2.67558 13.781 2.64181 14.0095 2.69293 14.2267C2.74404 14.4438 2.87618 14.6333 3.06232 14.7563L13.5623 20.8813C13.6962 20.9594 13.8484 21.0005 14.0033 21.0005C14.1583 21.0005 14.3105 20.9594 14.4443 20.8813L24.9443 14.7563C25.0436 14.6983 25.1305 14.6214 25.2001 14.5299C25.2696 14.4385 25.3205 14.3341 25.3497 14.223C25.379 14.1118 25.3861 13.996 25.3705 13.8821C25.355 13.7683 25.3172 13.6585 25.2593 13.5593C25.2014 13.46 25.1245 13.3731 25.033 13.3035C24.9415 13.234 24.8372 13.1831 24.7261 13.1539C24.6149 13.1246 24.4991 13.1175 24.3852 13.133C24.2713 13.1486 24.1616 13.1863 24.0623 13.2443ZM2.62482 8.75026C2.62513 8.59696 2.66571 8.44644 2.74249 8.31376C2.81927 8.18108 2.92956 8.07091 3.06232 7.99426L13.5623 1.86926C13.6962 1.79116 13.8484 1.75 14.0033 1.75C14.1583 1.75 14.3105 1.79116 14.4443 1.86926L24.9443 7.99426C25.0765 8.07129 25.1862 8.18164 25.2624 8.31429C25.3387 8.44694 25.3788 8.59726 25.3788 8.75026C25.3788 8.90325 25.3387 9.05358 25.2624 9.18623C25.1862 9.31888 25.0765 9.42923 24.9443 9.50626L14.4443 15.6313C14.3105 15.7094 14.1583 15.7505 14.0033 15.7505C13.8484 15.7505 13.6962 15.7094 13.5623 15.6313L3.06232 9.50626C2.92956 9.42961 2.81927 9.31943 2.74249 9.18675C2.66571 9.05408 2.62513 8.90355 2.62482 8.75026ZM5.23699 8.75026L13.9998 13.8626L22.7627 8.75026L13.9998 3.63793L5.23699 8.75026Z" fill="#166636"/>
</g>
<defs>
<clipPath id="clip0_1262_23441">
<rect width="28" height="28" fill="white"/>
</clipPath>
</defs>
</svg>
