<svg width="40" height="40" viewBox="0 0 40 40" fill="none" xmlns="http://www.w3.org/2000/svg">
<rect width="40" height="40" rx="8" fill="#D9FACA"/>
<path d="M6.66797 8.33366C6.66797 7.41319 7.41417 6.66699 8.33464 6.66699H15.0013C15.9218 6.66699 16.668 7.41319 16.668 8.33366V15.0003C16.668 15.9208 15.9218 16.667 15.0013 16.667H8.33464C7.41417 16.667 6.66797 15.9208 6.66797 15.0003V8.33366Z" stroke="#166636" stroke-width="2.5" stroke-linecap="round" stroke-linejoin="round"/>
<path d="M23.332 8.33366C23.332 7.41319 24.0782 6.66699 24.9987 6.66699H31.6654C32.5859 6.66699 33.332 7.41319 33.332 8.33366V15.0003C33.332 15.9208 32.5859 16.667 31.6654 16.667H24.9987C24.0782 16.667 23.332 15.9208 23.332 15.0003V8.33366Z" stroke="#166636" stroke-width="2.5" stroke-linecap="round" stroke-linejoin="round"/>
<path d="M6.66797 24.9997C6.66797 24.0792 7.41417 23.333 8.33464 23.333H15.0013C15.9218 23.333 16.668 24.0792 16.668 24.9997V31.6663C16.668 32.5868 15.9218 33.333 15.0013 33.333H8.33464C7.41417 33.333 6.66797 32.5868 6.66797 31.6663V24.9997Z" stroke="#166636" stroke-width="2.5" stroke-linecap="round" stroke-linejoin="round"/>
<path d="M23.332 24.9997C23.332 24.0792 24.0782 23.333 24.9987 23.333H31.6654C32.5859 23.333 33.332 24.0792 33.332 24.9997V31.6663C33.332 32.5868 32.5859 33.333 31.6654 33.333H24.9987C24.0782 33.333 23.332 32.5868 23.332 31.6663V24.9997Z" stroke="#166636" stroke-width="2.5" stroke-linecap="round" stroke-linejoin="round"/>
</svg>
