<svg width="46" height="46" viewBox="0 0 46 46" fill="none" xmlns="http://www.w3.org/2000/svg">
<rect width="45.3333" height="45.3333" rx="8" fill="#D9FACA"/>
<path d="M22.6667 6C13.4667 6 6 13.4667 6 22.6667C6 31.8667 13.4667 39.3333 22.6667 39.3333C31.8667 39.3333 39.3333 31.8667 39.3333 22.6667C39.3333 13.4667 31.8667 6 22.6667 6Z" stroke="#166636" stroke-width="2.5" stroke-linecap="round" stroke-linejoin="round"/>
<path d="M28.3333 16.0552C27.0394 14.7613 24.7614 13.8622 22.6667 13.8056M22.6667 13.8056C20.2054 13.7395 17.9444 14.7897 17.9444 17.9441C17.9444 23.6108 28.3333 20.7775 28.3333 26.4441C28.3333 29.5986 26.0723 31.5932 22.6667 31.5271M22.6667 13.8056V11.333M17 29.2775C18.2939 30.5713 20.5719 31.4705 22.6667 31.5271M22.6667 31.5271V33.9997" stroke="#166636" stroke-width="2.5" stroke-linecap="round" stroke-linejoin="round"/>
</svg>
