<svg width="50" height="46" viewBox="0 0 50 46" fill="none" xmlns="http://www.w3.org/2000/svg">
<rect width="49.4694" height="45.1189" rx="8" fill="#D9FACA"/>
<path d="M22.2367 11.3143C19.249 9.69796 14.7265 8.26122 11.6571 8H11.5429C9.58368 8 8 9.58368 8 11.5429V30.9551C8 32.5388 9.2898 33.9919 10.8735 34.1878L11.3796 34.2531C14.0571 34.6123 17.8286 35.7225 20.8653 36.996C21.9265 37.4368 23.102 36.6368 23.102 35.4776V12.7674C23.102 12.1469 22.7755 11.6082 22.2367 11.3143ZM12.9143 16.2612H16.5878C17.2572 16.2612 17.8123 16.8163 17.8123 17.4857C17.8123 18.1714 17.2572 18.7102 16.5878 18.7102H12.9143C12.2449 18.7102 11.6898 18.1714 11.6898 17.4857C11.6898 16.8163 12.2449 16.2612 12.9143 16.2612ZM17.8123 23.6082H12.9143C12.2449 23.6082 11.6898 23.0694 11.6898 22.3837C11.6898 21.7143 12.2449 21.1592 12.9143 21.1592H17.8123C18.4816 21.1592 19.0367 21.7143 19.0367 22.3837C19.0367 23.0694 18.4816 23.6082 17.8123 23.6082Z" fill="#166636"/>
<path d="M41.4692 11.5429V30.9551C41.4692 32.5388 40.1794 33.9919 38.5958 34.1878L38.0897 34.2531C35.4121 34.6123 31.6407 35.7225 28.6039 36.996C27.5427 37.4368 26.3672 36.6368 26.3672 35.4776V12.7674C26.3672 12.1633 26.71 11.6082 27.2488 11.3143C30.2366 9.69796 34.759 8.26122 37.8284 8H37.9264C39.8856 8 41.4692 9.58368 41.4692 11.5429Z" fill="#166636"/>
</svg>
