<svg width="28" height="28" viewBox="0 0 28 28" fill="none" xmlns="http://www.w3.org/2000/svg">
<g clip-path="url(#clip0_1262_23490)">
<path d="M22.0815 5.978C21.0347 4.92088 19.7898 4.08058 18.4179 3.50523C17.0459 2.92988 15.574 2.63076 14.0863 2.625H14C10.9832 2.625 8.08989 3.82343 5.95666 5.95666C3.82343 8.08989 2.625 10.9832 2.625 14V20.125C2.625 20.8212 2.90156 21.4889 3.39384 21.9812C3.88613 22.4734 4.55381 22.75 5.25 22.75H7C7.69619 22.75 8.36387 22.4734 8.85615 21.9812C9.34844 21.4889 9.625 20.8212 9.625 20.125V15.75C9.625 15.0538 9.34844 14.3861 8.85615 13.8938C8.36387 13.4016 7.69619 13.125 7 13.125H4.41467C4.583 11.3003 5.26807 9.56131 6.38954 8.11205C7.51102 6.6628 9.02242 5.5633 10.7465 4.94247C12.4707 4.32164 14.3361 4.2052 16.124 4.60682C17.912 5.00843 19.5483 5.91145 20.8413 7.21C22.4214 8.79893 23.3931 10.8925 23.5865 13.125H21C20.3038 13.125 19.6361 13.4016 19.1438 13.8938C18.6516 14.3861 18.375 15.0538 18.375 15.75V20.125C18.375 20.8212 18.6516 21.4889 19.1438 21.9812C19.6361 22.4734 20.3038 22.75 21 22.75H23.625C23.625 23.4462 23.3484 24.1139 22.8562 24.6062C22.3639 25.0984 21.6962 25.375 21 25.375H14.875C14.6429 25.375 14.4204 25.4672 14.2563 25.6313C14.0922 25.7954 14 26.0179 14 26.25C14 26.4821 14.0922 26.7046 14.2563 26.8687C14.4204 27.0328 14.6429 27.125 14.875 27.125H21C22.1603 27.125 23.2731 26.6641 24.0936 25.8436C24.9141 25.0231 25.375 23.9103 25.375 22.75V14C25.3808 12.5119 25.0928 11.0374 24.5277 9.6608C23.9625 8.28422 23.1312 7.03272 22.0815 5.978ZM7 14.875C7.23206 14.875 7.45462 14.9672 7.61872 15.1313C7.78281 15.2954 7.875 15.5179 7.875 15.75V20.125C7.875 20.3571 7.78281 20.5796 7.61872 20.7437C7.45462 20.9078 7.23206 21 7 21H5.25C5.01794 21 4.79538 20.9078 4.63128 20.7437C4.46719 20.5796 4.375 20.3571 4.375 20.125V14.875H7ZM21 21C20.7679 21 20.5454 20.9078 20.3813 20.7437C20.2172 20.5796 20.125 20.3571 20.125 20.125V15.75C20.125 15.5179 20.2172 15.2954 20.3813 15.1313C20.5454 14.9672 20.7679 14.875 21 14.875H23.625V21H21Z" fill="#166636"/>
</g>
<defs>
<clipPath id="clip0_1262_23490">
<rect width="28" height="28" fill="white"/>
</clipPath>
</defs>
</svg>
