<svg width="43" height="43" viewBox="0 0 43 43" fill="none" xmlns="http://www.w3.org/2000/svg">
<path d="M34.7695 6.71875H8.23047C7.47315 6.71875 6.74685 7.01959 6.21135 7.5551C5.67584 8.0906 5.375 8.8169 5.375 9.57422V17.84C5.37571 18.3887 5.53451 18.9256 5.83239 19.3864C6.13028 19.8472 6.55464 20.2125 7.05469 20.4384L17.5695 25.2171C16.0126 26.0884 14.7887 27.4514 14.0894 29.0927C13.3901 30.7341 13.2549 32.561 13.7051 34.2874C14.1553 36.0137 15.1654 37.542 16.5771 38.6329C17.9889 39.7237 19.7226 40.3154 21.5067 40.3154C23.2908 40.3154 25.0245 39.7237 26.4363 38.6329C27.8481 37.542 28.8581 36.0137 29.3083 34.2874C29.7585 32.561 29.6234 30.7341 28.9241 29.0927C28.2248 27.4514 27.0008 26.0884 25.4439 25.2171L35.9453 20.4384C36.4454 20.2125 36.8697 19.8472 37.1676 19.3864C37.4655 18.9256 37.6243 18.3887 37.625 17.84V9.57422C37.625 8.8169 37.3242 8.0906 36.7887 7.5551C36.2531 7.01959 35.5268 6.71875 34.7695 6.71875ZM26.875 9.40625V21.6125L21.5 24.0548L16.125 21.6125V9.40625H26.875ZM8.0625 17.84V9.57422C8.0625 9.52967 8.0802 9.48695 8.1117 9.45545C8.1432 9.42395 8.18592 9.40625 8.23047 9.40625H13.4375V20.3897L8.1616 17.9928C8.13213 17.9796 8.10711 17.9581 8.08953 17.931C8.07195 17.9039 8.06257 17.8723 8.0625 17.84ZM21.5 37.625C20.4369 37.625 19.3977 37.3098 18.5138 36.7191C17.6299 36.1285 16.941 35.2891 16.5341 34.3069C16.1273 33.3248 16.0209 32.244 16.2283 31.2014C16.4357 30.1587 16.9476 29.201 17.6993 28.4493C18.451 27.6976 19.4087 27.1857 20.4514 26.9783C21.494 26.7709 22.5748 26.8773 23.5569 27.2841C24.5391 27.691 25.3785 28.3799 25.9691 29.2638C26.5598 30.1477 26.875 31.1869 26.875 32.25C26.875 33.6755 26.3087 35.0427 25.3007 36.0507C24.2927 37.0587 22.9255 37.625 21.5 37.625ZM34.9375 17.84C34.9374 17.8723 34.928 17.9039 34.9105 17.931C34.8929 17.9581 34.8679 17.9796 34.8384 17.9928L29.5625 20.3897V9.40625H34.7695C34.8141 9.40625 34.8568 9.42395 34.8883 9.45545C34.9198 9.48695 34.9375 9.52967 34.9375 9.57422V17.84Z" fill="#166636"/>
</svg>
