<svg width="43" height="43" viewBox="0 0 43 43" fill="none" xmlns="http://www.w3.org/2000/svg">
<path d="M36.2812 9.40625H29.5625V8.0625C29.5625 6.99335 29.1378 5.96798 28.3818 5.21198C27.6258 4.45597 26.6004 4.03125 25.5312 4.03125H17.4688C16.3996 4.03125 15.3742 4.45597 14.6182 5.21198C13.8622 5.96798 13.4375 6.99335 13.4375 8.0625V9.40625H6.71875C6.00598 9.40625 5.3224 9.6894 4.8184 10.1934C4.3144 10.6974 4.03125 11.381 4.03125 12.0938V33.5938C4.03125 34.3065 4.3144 34.9901 4.8184 35.4941C5.3224 35.9981 6.00598 36.2812 6.71875 36.2812H36.2812C36.994 36.2812 37.6776 35.9981 38.1816 35.4941C38.6856 34.9901 38.9688 34.3065 38.9688 33.5938V12.0938C38.9688 11.381 38.6856 10.6974 38.1816 10.1934C37.6776 9.6894 36.994 9.40625 36.2812 9.40625ZM6.71875 18.8125H36.2812V26.875H6.71875V18.8125ZM16.125 8.0625C16.125 7.70612 16.2666 7.36433 16.5186 7.11233C16.7706 6.86032 17.1124 6.71875 17.4688 6.71875H25.5312C25.8876 6.71875 26.2294 6.86032 26.4814 7.11233C26.7334 7.36433 26.875 7.70612 26.875 8.0625V9.40625H16.125V8.0625ZM36.2812 12.0938V16.125H6.71875V12.0938H36.2812ZM36.2812 33.5938H6.71875V29.5625H36.2812V33.5938Z" fill="#166636"/>
</svg>
