<svg width="43" height="43" viewBox="0 0 43 43" fill="none" xmlns="http://www.w3.org/2000/svg">
<path d="M30.2346 38.9683C30.2346 39.5029 30.0222 40.0156 29.6442 40.3936C29.2662 40.7716 28.7536 40.984 28.219 40.984H14.7815C14.2469 40.984 13.7342 40.7716 13.3562 40.3936C12.9782 40.0156 12.7659 39.5029 12.7659 38.9683C12.7659 38.4338 12.9782 37.9211 13.3562 37.5431C13.7342 37.1651 14.2469 36.9527 14.7815 36.9527H28.219C28.7536 36.9527 29.2662 37.1651 29.6442 37.5431C30.0222 37.9211 30.2346 38.4338 30.2346 38.9683ZM36.9534 17.4683C36.9595 19.8101 36.4304 22.1224 35.4066 24.2285C34.3828 26.3347 32.8913 28.1791 31.0459 29.6209C30.796 29.8113 30.5929 30.0563 30.4523 30.3373C30.3117 30.6182 30.2372 30.9276 30.2346 31.2418V31.5777C30.2346 32.4687 29.8807 33.3231 29.2507 33.9531C28.6207 34.5831 27.7662 34.9371 26.8752 34.9371H16.1252C15.2343 34.9371 14.3798 34.5831 13.7498 33.9531C13.1198 33.3231 12.7659 32.4687 12.7659 31.5777V31.2418C12.7655 30.9328 12.6941 30.6281 12.5572 30.3511C12.4203 30.0741 12.2216 29.8323 11.9764 29.6444C10.1361 28.2109 8.64591 26.3777 7.61867 24.2833C6.59142 22.189 6.05401 19.8884 6.0471 17.5557C6.00175 9.18579 12.7659 2.21676 21.129 2.0152C23.1894 1.96569 25.2388 2.32882 27.1567 3.08322C29.0747 3.83762 30.8223 4.96804 32.2968 6.40795C33.7713 7.84787 34.9429 9.56818 35.7426 11.4677C36.5423 13.3671 36.9539 15.4074 36.9534 17.4683ZM32.9221 17.4683C32.9225 15.9448 32.6182 14.4365 32.0269 13.0324C31.4357 11.6282 30.5695 10.3566 29.4793 9.29225C28.3892 8.22793 27.0971 7.39246 25.6792 6.83503C24.2613 6.27761 22.7462 6.00948 21.2231 6.04645C15.0435 6.19426 10.0448 11.3459 10.0784 17.5322C10.0841 19.2562 10.4818 20.9565 11.2413 22.5042C12.0008 24.052 13.1022 25.4069 14.4623 26.4664C15.1475 26.9953 15.7108 27.6655 16.1137 28.4316C16.5166 29.1977 16.7497 30.0416 16.7971 30.9058H26.2201C26.2685 30.0399 26.502 29.1944 26.9047 28.4262C27.3075 27.6581 27.8702 26.9853 28.5549 26.453C29.9189 25.3868 31.0214 24.0231 31.7783 22.4661C32.5351 20.909 32.9264 19.1996 32.9221 17.4683ZM29.551 16.5747C29.3726 15.0665 28.7763 13.6382 27.8292 12.451C26.8821 11.2638 25.622 10.365 24.1911 9.85598C23.691 9.69257 23.1467 9.7312 22.6747 9.96362C22.2027 10.196 21.8402 10.6038 21.6648 11.0999C21.4894 11.5959 21.5148 12.1409 21.7358 12.6184C21.9568 13.0959 22.3557 13.4681 22.8473 13.6554C23.5664 13.9075 24.2006 14.3557 24.6782 14.9493C25.1558 15.543 25.4578 16.2585 25.55 17.0148C25.6088 17.5463 25.8763 18.0326 26.2937 18.3668C26.5003 18.5323 26.7376 18.6555 26.9918 18.7293C27.2461 18.8031 27.5124 18.8261 27.7755 18.797C28.0387 18.7678 28.2935 18.6872 28.5255 18.5596C28.7575 18.432 28.9621 18.2599 29.1275 18.0533C29.293 17.8466 29.4162 17.6094 29.49 17.3551C29.5638 17.1008 29.5868 16.8345 29.5577 16.5714L29.551 16.5747Z" fill="white"/>
</svg>
