<svg width="43" height="43" viewBox="0 0 43 43" fill="none" xmlns="http://www.w3.org/2000/svg">
<path d="M38.9688 34.9375C38.9688 35.2939 38.8272 35.6357 38.5752 35.8877C38.3232 36.1397 37.9814 36.2812 37.625 36.2812H5.375C5.01862 36.2812 4.67683 36.1397 4.42483 35.8877C4.17282 35.6357 4.03125 35.2939 4.03125 34.9375V8.0625C4.03125 7.70612 4.17282 7.36433 4.42483 7.11233C4.67683 6.86032 5.01862 6.71875 5.375 6.71875C5.73138 6.71875 6.07317 6.86032 6.32517 7.11233C6.57718 7.36433 6.71875 7.70612 6.71875 8.0625V26.319L15.1743 17.8618C15.2991 17.7369 15.4473 17.6377 15.6104 17.5701C15.7736 17.5025 15.9484 17.4677 16.125 17.4677C16.3016 17.4677 16.4764 17.5025 16.6396 17.5701C16.8027 17.6377 16.9509 17.7369 17.0757 17.8618L21.5 22.2878L30.3503 13.4375H26.875C26.5186 13.4375 26.1768 13.2959 25.9248 13.0439C25.6728 12.7919 25.5312 12.4501 25.5312 12.0938C25.5312 11.7374 25.6728 11.3956 25.9248 11.1436C26.1768 10.8916 26.5186 10.75 26.875 10.75H33.5938C33.9501 10.75 34.2919 10.8916 34.5439 11.1436C34.7959 11.3956 34.9375 11.7374 34.9375 12.0938V18.8125C34.9375 19.1689 34.7959 19.5107 34.5439 19.7627C34.2919 20.0147 33.9501 20.1562 33.5938 20.1562C33.2374 20.1562 32.8956 20.0147 32.6436 19.7627C32.3916 19.5107 32.25 19.1689 32.25 18.8125V15.3372L22.4507 25.1382C22.3259 25.2631 22.1777 25.3623 22.0146 25.4299C21.8514 25.4975 21.6766 25.5323 21.5 25.5323C21.3234 25.5323 21.1486 25.4975 20.9854 25.4299C20.8223 25.3623 20.6741 25.2631 20.5493 25.1382L16.125 20.7122L6.71875 30.1185V33.5938H37.625C37.9814 33.5938 38.3232 33.7353 38.5752 33.9873C38.8272 34.2393 38.9688 34.5811 38.9688 34.9375Z" fill="white"/>
</svg>
