<svg width="43" height="43" viewBox="0 0 43 43" fill="none" xmlns="http://www.w3.org/2000/svg">
<path d="M29.5625 38.9688C29.5625 39.3251 29.4209 39.6669 29.1689 39.9189C28.9169 40.1709 28.5751 40.3125 28.2188 40.3125H14.7813C14.4249 40.3125 14.0831 40.1709 13.8311 39.9189C13.5791 39.6669 13.4375 39.3251 13.4375 38.9688C13.4375 38.6124 13.5791 38.2706 13.8311 38.0186C14.0831 37.7666 14.4249 37.625 14.7813 37.625H28.2188C28.5751 37.625 28.9169 37.7666 29.1689 38.0186C29.4209 38.2706 29.5625 38.6124 29.5625 38.9688ZM36.2813 17.4688C36.287 19.7089 35.781 21.9207 34.8017 23.9354C33.8225 25.9501 32.3958 27.7145 30.6308 29.0939C30.3008 29.3468 30.0329 29.6719 29.8478 30.0443C29.6626 30.4166 29.565 30.8264 29.5625 31.2422V32.25C29.5625 32.9628 29.2794 33.6463 28.7754 34.1504C28.2714 34.6544 27.5878 34.9375 26.875 34.9375H16.125C15.4122 34.9375 14.7287 34.6544 14.2247 34.1504C13.7207 33.6463 13.4375 32.9628 13.4375 32.25V31.2422C13.4372 30.8313 13.3428 30.426 13.1614 30.0574C12.9799 29.6887 12.7164 29.3666 12.3911 29.1157C10.6304 27.7445 9.20477 25.9907 8.22204 23.9871C7.23931 21.9836 6.72524 19.7827 6.71876 17.5511C6.67508 9.54567 13.1452 2.87899 21.1439 2.6875C23.1148 2.64001 25.0752 2.98725 26.9099 3.70878C28.7445 4.43032 30.4163 5.51157 31.8268 6.88889C33.2373 8.26621 34.358 9.91178 35.123 11.7287C35.888 13.5457 36.2818 15.4973 36.2813 17.4688ZM33.5938 17.4688C33.5942 15.8557 33.272 14.2588 32.646 12.7722C32.0201 11.2855 31.103 9.93908 29.9489 8.81217C28.7947 7.68525 27.4268 6.80061 25.9256 6.21032C24.4244 5.62003 22.8203 5.33602 21.2077 5.375C14.657 5.52953 9.37098 10.9835 9.40626 17.5343C9.41239 19.3594 9.83356 21.1592 10.6379 22.7976C11.4422 24.4359 12.6086 25.8698 14.0489 26.9909C14.6963 27.4942 15.22 28.139 15.5799 28.8758C15.9397 29.6127 16.1262 30.4221 16.125 31.2422V32.25H26.875V31.2422C26.8769 30.4198 27.0665 29.6087 27.4295 28.8708C27.7925 28.1329 28.3193 27.4876 28.9696 26.9842C30.4143 25.8552 31.5819 24.4109 32.3833 22.7618C33.1847 21.1127 33.5987 19.3023 33.5938 17.4688ZM30.8878 15.8999C30.5393 13.9537 29.603 12.1609 28.2047 10.7629C26.8065 9.36499 25.0135 8.429 23.0672 8.08098C22.8931 8.05164 22.715 8.05687 22.543 8.09637C22.371 8.13587 22.2084 8.20886 22.0646 8.31118C21.9208 8.4135 21.7986 8.54314 21.7049 8.6927C21.6111 8.84226 21.5478 9.00882 21.5185 9.18285C21.4891 9.35689 21.4944 9.535 21.5339 9.70702C21.5734 9.87904 21.6464 10.0416 21.7487 10.1854C21.851 10.3292 21.9806 10.4514 22.1302 10.5452C22.2798 10.6389 22.4463 10.7022 22.6204 10.7315C25.4036 11.2002 27.7652 13.5618 28.2372 16.3501C28.2904 16.663 28.4527 16.9471 28.6952 17.1518C28.9378 17.3566 29.2451 17.4689 29.5625 17.4688C29.6384 17.4683 29.7143 17.4621 29.7893 17.4503C30.1405 17.3903 30.4535 17.1933 30.6595 16.9026C30.8656 16.6118 30.9476 16.2512 30.8878 15.8999Z" fill="#166636"/>
</svg>
