<svg width="32" height="32" viewBox="0 0 32 32" fill="none" xmlns="http://www.w3.org/2000/svg">
<path d="M8.70769 8.87944H17.255C17.9264 12.2979 20.9454 14.8848 24.5576 14.8848C28.6613 14.8848 32 11.5462 32 7.44244C32 3.33862 28.6613 0 24.5576 0C20.9453 0 17.9263 2.58694 17.2549 6.00544H8.70769C8.109 4.24056 6.43969 2.96994 4.47244 2.96994C2.00237 2.96994 0 4.97231 0 7.44244C0 9.40963 1.27063 11.0789 3.03544 11.6776V22.741C1.27063 23.3396 0 25.0089 0 26.9762C0 29.4462 2.00237 31.4486 4.47244 31.4486C6.43962 31.4486 8.10894 30.178 8.70763 28.4131H15.9717C16.5704 30.178 18.2397 31.4486 20.2069 31.4486C22.677 31.4486 24.6793 29.4461 24.6793 26.9761C24.6793 24.5061 22.6769 22.5037 20.2069 22.5037C18.2397 22.5037 16.5704 23.7742 15.9718 25.5391H8.70769C8.262 24.2254 7.22319 23.1866 5.9095 22.741V11.6776C7.22312 11.2319 8.262 10.1931 8.70769 8.87944ZM24.5576 3.5925C26.6804 3.5925 28.4075 5.31956 28.4075 7.44244C28.4075 9.56525 26.6804 11.2924 24.5576 11.2924C22.4347 11.2924 20.7076 9.56537 20.7076 7.44244C20.7077 5.31956 22.4347 3.5925 24.5576 3.5925Z" fill="#166636"/>
</svg>
