<svg width="32" height="20" viewBox="0 0 32 20" fill="none" xmlns="http://www.w3.org/2000/svg">
<path d="M9.22319 13.8819C9.21832 13.832 9.20269 13.7862 9.20269 13.7364V13.3096C9.20269 13.1065 9.23588 12.9063 9.30232 12.7159C9.30232 12.7159 10.3658 11.292 10.8688 9.61916C10.3179 8.45704 9.81794 7.01079 9.81794 5.57716C9.81794 5.24416 9.84238 4.92191 9.87657 4.60448C9.15882 3.85254 8.18907 3.42673 7.11775 3.42673C4.90582 3.42673 3.11094 5.23141 3.11094 8.0361C3.11094 10.2802 4.93713 12.7158 4.93713 12.7158C5.00157 12.9062 5.03482 13.1064 5.03482 13.3095V13.7363C5.03482 14.2685 4.72425 14.7529 4.23988 14.9746L1.34044 16.1592C0.666566 16.4697 0.187066 17.0889 0.0533158 17.8174L0.00350328 18.455C-0.0218717 18.7871 0.0913783 19.1142 0.317941 19.3574C0.543503 19.6025 0.860941 19.7402 1.19394 19.7402H5.93319L6.1275 17.2432L6.14019 17.1758C6.3775 15.8662 7.24275 14.7529 8.45169 14.1963L9.22319 13.8819Z" fill="#166636"/>
<path d="M31.9468 17.8174C31.814 17.0889 31.3345 16.4697 30.6607 16.1592L27.7593 14.9746C27.275 14.7529 26.9663 14.2685 26.9663 13.7363V13.3095C26.9663 13.1064 26.9986 12.9062 27.0649 12.7158C27.0649 12.7158 28.8901 10.2802 28.8901 8.0361C28.8901 5.23141 27.0962 3.42673 24.8804 3.42673C23.8111 3.42673 22.8413 3.85254 22.1216 4.60641C22.1568 4.92285 22.1811 5.2441 22.1811 5.5771C22.1811 7.00973 21.6821 8.45604 21.1323 9.6181C21.6343 11.291 22.6997 12.7158 22.6997 12.7158C22.7641 12.9062 22.7983 13.1064 22.7983 13.3095V13.7363C22.7983 13.7861 22.7817 13.832 22.7768 13.8818L23.4956 14.1748C24.7553 14.751 25.6206 15.8642 25.8608 17.1738L25.8726 17.2422L26.0659 19.7402H30.8071C31.1401 19.7402 31.4575 19.6025 31.6821 19.3574C31.9087 19.1142 32.022 18.7871 31.9966 18.455L31.9468 17.8174Z" fill="#166636"/>
<path d="M22.9916 15.4082L19.4819 13.9736C18.896 13.7041 18.522 13.1181 18.522 12.4756V11.958C18.522 11.7139 18.561 11.4707 18.6421 11.2393C18.6421 11.2393 20.8491 8.29394 20.8491 5.57712C20.8491 2.18256 18.6783 0 15.9995 0C13.3218 0 11.1499 2.18262 11.1499 5.57712C11.1499 8.29394 13.3589 11.2393 13.3589 11.2393C13.438 11.4707 13.479 11.7139 13.479 11.958V12.4756C13.479 13.1181 13.1021 13.7041 12.5171 13.9736L9.00733 15.4082C8.19189 15.7822 7.61083 16.5322 7.45071 17.415L7.27002 19.7402H15.9995H24.729L24.5503 17.415C24.3881 16.5322 23.8071 15.7823 22.9916 15.4082Z" fill="#166636"/>
</svg>
