<svg width="40" height="40" viewBox="0 0 40 40" fill="none" xmlns="http://www.w3.org/2000/svg">
<path d="M2.05589 39.155C1.64928 39.1562 1.25151 39.0364 0.913154 38.8109C0.574796 38.5854 0.311137 38.2644 0.155701 37.8887C0.000264104 37.5129 -0.0399276 37.0995 0.0402359 36.7009C0.120399 36.3022 0.317296 35.9364 0.605892 35.65L32.1559 4.1H8.43589C7.8922 4.1 7.37077 3.88402 6.98632 3.49957C6.60187 3.11512 6.38589 2.59369 6.38589 2.05C6.38589 1.50631 6.60187 0.984881 6.98632 0.600431C7.37077 0.215981 7.8922 0 8.43589 0H37.1159C37.5198 0.00353227 37.9137 0.125724 38.2487 0.351377C38.5837 0.577031 38.845 0.896189 39.0001 1.26916C39.1551 1.64213 39.1971 2.05245 39.1208 2.44908C39.0445 2.84572 38.8533 3.21118 38.5709 3.5L3.51089 38.56C3.12381 38.9438 2.60097 39.1544 2.05589 39.155Z" fill="black"/>
<path d="M37.1125 32.725C36.8433 32.725 36.5767 32.672 36.328 32.569C36.0793 32.4659 35.8533 32.3149 35.6629 32.1246C35.4726 31.9342 35.3216 31.7082 35.2185 31.4595C35.1155 31.2108 35.0625 30.9442 35.0625 30.675V2.05C35.0625 1.50631 35.2785 0.984881 35.6629 0.600431C36.0474 0.215981 36.5688 0 37.1125 0C37.6562 0 38.1776 0.215981 38.5621 0.600431C38.9465 0.984881 39.1625 1.50631 39.1625 2.05V30.675C39.1625 30.9442 39.1095 31.2108 39.0065 31.4595C38.9034 31.7082 38.7524 31.9342 38.5621 32.1246C38.3717 32.3149 38.1457 32.4659 37.897 32.569C37.6483 32.672 37.3817 32.725 37.1125 32.725Z" fill="black"/>
</svg>
