<svg width="40" height="40" viewBox="0 0 40 40" fill="none" xmlns="http://www.w3.org/2000/svg">
<rect width="40" height="40" rx="20" fill="#CEFFE2"/>
<path d="M17.5 20C18.6935 20 19.8381 19.5259 20.682 18.682C21.5259 17.8381 22 16.6935 22 15.5C22 14.3065 21.5259 13.1619 20.682 12.318C19.8381 11.4741 18.6935 11 17.5 11C16.3065 11 15.1619 11.4741 14.318 12.318C13.4741 13.1619 13 14.3065 13 15.5C13 16.6935 13.4741 17.8381 14.318 18.682C15.1619 19.5259 16.3065 20 17.5 20ZM29 17C29 17.7956 28.6839 18.5587 28.1213 19.1213C27.5587 19.6839 26.7956 20 26 20C25.2044 20 24.4413 19.6839 23.8787 19.1213C23.3161 18.5587 23 17.7956 23 17C23 16.2044 23.3161 15.4413 23.8787 14.8787C24.4413 14.3161 25.2044 14 26 14C26.7956 14 27.5587 14.3161 28.1213 14.8787C28.6839 15.4413 29 16.2044 29 17ZM17.5 21C19.493 21 21.305 21.608 22.637 22.466C23.304 22.896 23.875 23.403 24.29 23.956C24.697 24.501 25 25.156 25 25.857C25 26.612 24.65 27.217 24.136 27.654C23.651 28.064 23.019 28.33 22.366 28.513C21.053 28.88 19.316 29 17.5 29C15.684 29 13.947 28.88 12.635 28.513C11.981 28.33 11.349 28.064 10.865 27.654C10.349 27.218 10 26.612 10 25.857C10 25.155 10.303 24.501 10.71 23.957C11.125 23.403 11.696 22.895 12.363 22.467C13.695 21.607 15.507 21 17.5 21ZM26 21C27.32 21 28.518 21.436 29.4 22.051C30.222 22.624 31 23.528 31 24.571C31 25.158 30.747 25.644 30.362 25.997C30.005 26.325 29.553 26.525 29.118 26.657C28.248 26.92 27.128 27 26 27H25.797C25.927 26.652 26 26.27 26 25.857C26 24.867 25.577 24.007 25.09 23.357C24.604 22.708 23.96 22.137 23.241 21.666C24.095 21.2289 25.0406 21.0006 26 21Z" fill="#166636"/>
</svg>
