<svg width="43" height="43" viewBox="0 0 43 43" fill="none" xmlns="http://www.w3.org/2000/svg">
<g clip-path="url(#clip0_2714_145495)">
<path d="M42.7145 18.1255L38.4279 9.54902C38.27 9.23335 38.0514 8.95188 37.7847 8.72068C37.518 8.48948 37.2084 8.31309 36.8735 8.20156C36.5386 8.09004 36.1851 8.04557 35.833 8.07071C35.4809 8.09584 35.1372 8.19008 34.8216 8.34805L30.6442 10.4359L21.8443 8.10785C21.6185 8.04909 21.3815 8.04909 21.1557 8.10785L12.3558 10.4359L8.1784 8.34805C7.86276 8.19008 7.51909 8.09584 7.16702 8.07071C6.81495 8.04557 6.46138 8.09004 6.1265 8.20156C5.79161 8.31309 5.48198 8.48948 5.21528 8.72068C4.94857 8.95188 4.73002 9.23335 4.57211 9.54902L0.28555 18.1238C0.127585 18.4395 0.0333451 18.7831 0.00821105 19.1352C-0.016923 19.4873 0.0275414 19.8408 0.139065 20.1757C0.250588 20.5106 0.426987 20.8202 0.658186 21.087C0.889385 21.3537 1.17086 21.5722 1.48653 21.7301L6.02168 23.9994L15.3423 30.656C15.4796 30.7537 15.634 30.8249 15.7975 30.8659L26.5475 33.5534C26.7726 33.6099 27.0085 33.6071 27.2322 33.5453C27.4559 33.4834 27.6598 33.3647 27.824 33.2007L37.0741 23.949L41.5118 21.7301C42.1489 21.4112 42.6333 20.8523 42.8585 20.1764C43.0837 19.5005 43.0313 18.7628 42.7128 18.1255H42.7145ZM33.4947 23.7306L27.7148 19.1014C27.4559 18.894 27.1294 18.7898 26.7982 18.8087C26.4671 18.8276 26.1546 18.9684 25.9209 19.2039C22.9294 22.2172 19.5952 21.8359 17.4688 20.4922L24.7317 13.4375H30.0748L34.6452 22.5767L33.4947 23.7306ZM6.97574 10.75L10.4141 12.4666L6.1191 21.0414L2.6875 19.3265L6.97574 10.75ZM26.4601 30.7601L16.6995 28.3212L8.43539 22.4188L13.1385 13.0125L21.5 10.797L23.1461 11.2321L15.5875 18.5689L15.5741 18.5841C15.2895 18.8686 15.0725 19.2134 14.9391 19.593C14.8056 19.9726 14.7591 20.3773 14.8029 20.7773C14.8468 21.1773 14.9799 21.5623 15.1924 21.904C15.405 22.2457 15.6915 22.5352 16.0309 22.7514C19.4844 24.9568 23.6517 24.599 26.9338 21.9115L31.5781 25.6421L26.4601 30.7601ZM36.8742 21.0398L32.5876 12.4734L36.0243 10.75L40.3125 19.3265L36.8742 21.0398ZM22.1349 36.6054C22.0623 36.8959 21.8948 37.1537 21.659 37.3381C21.4232 37.5225 21.1325 37.6229 20.8332 37.6233C20.7228 37.6232 20.6128 37.6096 20.5056 37.583L13.5064 35.8328C13.3427 35.7924 13.1882 35.7211 13.0512 35.6228L8.6252 32.4616C8.35306 32.248 8.17383 31.9376 8.12483 31.595C8.07583 31.2525 8.16083 30.9043 8.36215 30.6229C8.56346 30.3415 8.86556 30.1486 9.20555 30.0844C9.54553 30.0201 9.8972 30.0895 10.1873 30.278L14.405 33.2914L21.1641 34.9778C21.5097 35.0643 21.8069 35.2845 21.9902 35.59C22.1735 35.8956 22.228 36.2614 22.1416 36.6071L22.1349 36.6054Z" fill="#166636"/>
</g>
<defs>
<clipPath id="clip0_2714_145495">
<rect width="43" height="43" fill="white"/>
</clipPath>
</defs>
</svg>
