<svg width="32" height="32" viewBox="0 0 32 32" fill="none" xmlns="http://www.w3.org/2000/svg">
<g clip-path="url(#clip0_1545_85382)">
<path d="M8.70769 9.15483H17.255C17.9264 12.5733 20.9454 15.1602 24.5576 15.1602C28.6613 15.1602 32 11.8216 32 7.71783C32 3.61402 28.6613 0.275391 24.5576 0.275391C20.9453 0.275391 17.9263 2.86233 17.2549 6.28083H8.70769C8.109 4.51595 6.43969 3.24533 4.47244 3.24533C2.00237 3.24533 0 5.2477 0 7.71783C0 9.68502 1.27063 11.3543 3.03544 11.953V23.0164C1.27063 23.615 0 25.2843 0 27.2516C0 29.7216 2.00237 31.724 4.47244 31.724C6.43962 31.724 8.10894 30.4534 8.70763 28.6885H15.9717C16.5704 30.4534 18.2397 31.724 20.2069 31.724C22.677 31.724 24.6793 29.7215 24.6793 27.2515C24.6793 24.7815 22.6769 22.7791 20.2069 22.7791C18.2397 22.7791 16.5704 24.0496 15.9718 25.8145H8.70769C8.262 24.5008 7.22319 23.462 5.9095 23.0164V11.953C7.22312 11.5073 8.262 10.4685 8.70769 9.15483ZM24.5576 3.86789C26.6804 3.86789 28.4075 5.59495 28.4075 7.71783C28.4075 9.84064 26.6804 11.5678 24.5576 11.5678C22.4347 11.5678 20.7076 9.84076 20.7076 7.71783C20.7077 5.59495 22.4347 3.86789 24.5576 3.86789Z" fill="#1DD739"/>
</g>
<defs>
<clipPath id="clip0_1545_85382">
<rect width="32" height="32" fill="white"/>
</clipPath>
</defs>
</svg>
