<svg width="26" height="27" viewBox="0 0 26 27" fill="none" xmlns="http://www.w3.org/2000/svg">
<g clip-path="url(#clip0_878_120)">
<path d="M13.0002 26.2895C20.0085 26.2895 25.6899 20.6081 25.6899 13.5998C25.6899 6.59151 20.0085 0.910156 13.0002 0.910156C5.9919 0.910156 0.310547 6.59151 0.310547 13.5998C0.310547 20.6081 5.9919 26.2895 13.0002 26.2895Z" fill="#D9D2CC"/>
<path d="M10.3433 9.9799C10.3431 10.2424 10.2387 10.494 10.053 10.6796C9.86732 10.865 9.61561 10.9692 9.35313 10.9691C9.09067 10.9689 8.83901 10.8646 8.65351 10.6788C8.46801 10.4932 8.36389 10.2414 8.36401 9.97891C8.36415 9.7165 8.46853 9.46479 8.65422 9.27933C8.83989 9.09384 9.09166 8.9897 9.35411 8.98984C9.61661 8.98996 9.86823 9.09436 10.0538 9.28003C10.2392 9.4657 10.3434 9.7175 10.3433 9.9799ZM10.3729 11.7019H8.3937V17.8968H10.3729V11.7019ZM13.5001 11.7019H11.5308V17.8968H13.4802V14.646C13.4802 12.835 15.8405 12.6668 15.8405 14.646V17.8968H17.795V13.973C17.795 10.92 14.3016 11.0339 13.4802 12.5332L13.5001 11.7019Z" fill="#010101"/>
</g>
<defs>
<clipPath id="clip0_878_120">
<rect width="25.3793" height="26.2857" fill="white" transform="translate(0.310303 0.400391)"/>
</clipPath>
</defs>
</svg>
