<svg width="80" height="67" viewBox="0 0 80 67" fill="none" xmlns="http://www.w3.org/2000/svg">
<path d="M78.2122 38.6116C78.1068 39.6661 77.1386 40.1933 76.3142 40.6726C75.5473 41.1136 74.7805 41.5641 74.0232 42.005C72.7962 42.7144 71.5788 43.4238 70.3518 44.1331C68.818 45.0246 67.2939 45.9161 65.7601 46.798C64.073 47.7757 62.3859 48.7631 60.6892 49.7409C58.9925 50.7282 57.2958 51.7156 55.5895 52.7029C54.027 53.6136 52.4741 54.5146 50.9116 55.4253C49.6367 56.1634 48.3713 56.9015 47.0964 57.6396C46.2625 58.1189 45.4285 58.6078 44.5945 59.0871C43.9618 59.4514 43.3675 59.8156 42.6486 60.0265C40.7793 60.5633 38.7088 60.3812 37.0216 59.4034C36.4177 59.0488 35.8042 58.7037 35.2003 58.349C34.0884 57.7067 32.986 57.0741 31.874 56.4318C30.417 55.5882 28.9599 54.7447 27.5029 53.9107C25.8445 52.9521 24.1766 51.9935 22.5182 51.035C20.8023 50.0476 19.0865 49.0507 17.3706 48.0633C15.7506 47.1239 14.1305 46.1941 12.5009 45.2547L8.35984 42.8678C7.3725 42.2926 6.37556 41.7271 5.38822 41.1519C4.93768 40.8931 4.48714 40.6343 4.03661 40.3659C3.32725 39.9537 2.62748 39.3018 2.62748 38.4199C2.62748 39.2251 2.62748 40.0304 2.6179 40.8452C2.6179 41.1327 2.59872 41.4299 2.6179 41.7271C2.67541 42.5035 3.28891 43.1074 3.93116 43.4909C4.32418 43.7305 4.72679 43.951 5.1294 44.181C6.16468 44.7754 7.19995 45.3793 8.23523 45.9736C9.73063 46.8363 11.2164 47.6991 12.7118 48.5618C14.4852 49.5875 16.2682 50.6132 18.0416 51.6389C19.8917 52.7125 21.7417 53.7765 23.6014 54.8501C25.3652 55.8662 27.1194 56.8823 28.8832 57.8985C30.3499 58.742 31.8069 59.5856 33.2736 60.4291C34.2609 61.0043 35.2579 61.5698 36.2452 62.145C36.8204 62.4709 37.3859 62.8448 38.009 63.0748C39.9549 63.7842 42.2364 63.6308 44.0289 62.5859C44.7095 62.1929 45.3901 61.7903 46.0707 61.3973C47.3265 60.6688 48.5822 59.9402 49.8284 59.2117C51.4676 58.2627 53.0972 57.3137 54.7364 56.3551C56.5673 55.2911 58.3982 54.2271 60.2195 53.163L65.7122 49.9709C67.3514 49.0123 68.9906 48.0633 70.6394 47.1047C71.9143 46.3666 73.1892 45.6285 74.4641 44.8808C75.1639 44.4686 75.8733 44.066 76.573 43.6538C76.7839 43.5292 77.0044 43.4046 77.2057 43.2608C77.7425 42.8582 78.1643 42.3022 78.1739 41.6024C78.1835 41.2478 78.1739 40.9027 78.1739 40.548C78.1739 39.8482 78.1739 39.1389 78.1835 38.4391C78.2218 38.5062 78.2122 38.5637 78.2122 38.6116C78.2122 38.6308 78.2122 38.5829 78.2122 38.6116Z" fill="#89FD7A"/>
<path d="M76.8484 36.5414C78.6697 37.5958 78.6793 39.3117 76.8675 40.3661L43.8537 59.5571C42.042 60.6115 39.0799 60.6115 37.2586 59.5571L4.02435 40.3661C2.20303 39.3117 2.19344 37.5958 4.00517 36.5414L37.019 17.3504C38.8307 16.296 41.7927 16.296 43.6141 17.3504L76.8484 36.5414Z" fill="#F2FFDD"/>
<path d="M46.4237 21.0503C46.5291 21.0407 46.6346 21.0215 46.7304 21.0119C46.8263 21.0023 46.9317 20.9928 47.018 20.9832H47.0372C47.133 20.9736 47.2193 20.964 47.3056 20.964H47.6411C47.6986 20.964 47.7561 20.9736 47.8137 20.9832C47.8232 20.9832 47.8424 20.9832 47.852 20.9928C47.8903 21.0023 47.9191 21.0119 47.9574 21.0215C47.9766 21.0215 47.9862 21.0311 48.0054 21.0311C48.0341 21.0407 48.0629 21.0503 48.0821 21.0599C48.0916 21.0694 48.1108 21.0694 48.1204 21.079C48.1492 21.0886 48.1683 21.0982 48.1971 21.1174C48.2163 21.127 48.2258 21.1365 48.245 21.1365L46.6538 20.2067L46.6442 20.1971C46.6346 20.1875 46.625 20.1875 46.6154 20.178C46.5962 20.1684 46.5675 20.1492 46.5387 20.1396C46.5387 20.1396 46.5291 20.1396 46.5291 20.13C46.5196 20.13 46.51 20.1204 46.5004 20.1204C46.4716 20.1109 46.4429 20.1013 46.4237 20.0917C46.4141 20.0917 46.4141 20.0821 46.4045 20.0821C46.3949 20.0821 46.3854 20.0821 46.3758 20.0725C46.3374 20.0629 46.3087 20.0533 46.2703 20.0438C46.2607 20.0438 46.2511 20.0438 46.2416 20.0342H46.232C46.1745 20.0246 46.1169 20.015 46.0594 20.015H46.0211C45.9252 20.0054 45.8294 20.0054 45.7335 20.015H45.7239H45.7143C45.6281 20.015 45.5322 20.0246 45.4459 20.0342H45.4268L45.1392 20.0629C45.0337 20.0725 44.9283 20.0917 44.8229 20.1013H44.8037C44.6982 20.1109 44.5832 20.13 44.4682 20.1396C43.0399 20.2642 41.4582 20.3697 40.0299 20.5039C39.6273 20.6093 39.2151 20.7148 38.8125 20.8202L40.4038 21.75C40.8064 21.6446 41.2186 21.5392 41.6212 21.4337C43.0399 21.2899 44.6311 21.1941 46.0594 21.0694C46.1745 21.0599 46.2895 21.0503 46.3949 21.0311C46.4045 21.0503 46.4141 21.0503 46.4237 21.0503Z" fill="#166636"/>
<path d="M40.2592 21.7121L38.668 20.7822H38.6776L40.2592 21.7121Z" fill="#0F6732"/>
<path d="M40.2709 21.7121L38.6797 20.7822L38.7372 20.811L40.3285 21.7408C40.3093 21.7408 40.2901 21.7216 40.2709 21.7121Z" fill="#29A352"/>
<path d="M40.3295 21.7404L38.7383 20.8105C38.7575 20.8201 38.7766 20.8201 38.7862 20.8297L40.3775 21.7595C40.3679 21.7595 40.3487 21.75 40.3295 21.7404Z" fill="#2AA854"/>
<path d="M40.3764 21.7599L38.7852 20.8301C38.7947 20.8301 38.8043 20.8397 38.8139 20.8397L40.4052 21.7695C40.4052 21.7695 40.3956 21.7695 40.3764 21.7599Z" fill="#2CAD44"/>
<path d="M38.4116 20.4755L36.8203 19.5457C36.8299 19.5457 36.8299 19.5361 36.8395 19.5361L38.4307 20.466C38.4212 20.466 38.4116 20.4755 38.4116 20.4755Z" fill="#166636"/>
<path d="M38.4311 20.4654L36.8398 19.5355C37.0316 19.4589 37.2233 19.3822 37.415 19.2959L39.0063 20.2257C38.8145 20.312 38.6228 20.3887 38.4311 20.4654Z" fill="#166636"/>
<path d="M39.0053 20.2262L37.4141 19.2964C37.4716 19.2677 37.5387 19.2485 37.5962 19.2197L39.1875 20.1496C39.1204 20.1783 39.0628 20.2071 39.0053 20.2262Z" fill="#166636"/>
<path d="M31.2002 23.0827C31.1235 22.2199 31.0469 21.3668 30.9702 20.504L29.3789 19.5742C29.4556 20.4369 29.5323 21.2901 29.609 22.1528C29.8007 22.6417 30.2512 22.45 30.3854 23.2169L31.9767 24.1467C31.8425 23.3798 31.3919 23.5715 31.2002 23.0827Z" fill="#166636"/>
<path d="M30.3862 23.2266L29.811 23.7251C29.7919 23.7826 29.7727 23.8497 29.7535 23.9168C29.7343 23.9648 29.7152 24.0223 29.7056 24.0798C29.696 24.1086 29.6864 24.1469 29.6768 24.1757C29.6576 24.2236 29.6481 24.2715 29.6289 24.3194C29.6193 24.3482 29.6097 24.3674 29.6001 24.3961C29.581 24.4728 29.5522 24.5399 29.5234 24.6166C29.5234 24.6262 29.5234 24.6262 29.5139 24.6358L29.3701 25.0671V25.0767C29.3221 25.2205 29.2646 25.3643 29.2167 25.5081C29.2167 25.5177 29.2167 25.5177 29.2071 25.5273C29.1496 25.6711 29.0921 25.8053 29.0346 25.9395C29.025 25.9586 29.0154 25.9682 29.0154 25.9874C28.9866 26.0545 28.9579 26.112 28.9291 26.1791C28.9195 26.2079 28.9099 26.227 28.8908 26.2558C28.8716 26.2941 28.862 26.3229 28.8428 26.3516C28.8237 26.3804 28.8141 26.4092 28.7949 26.4379L28.7662 26.4954C28.747 26.5338 28.7278 26.5625 28.7086 26.6009C28.6991 26.6105 28.6991 26.6201 28.6895 26.6296C28.6607 26.6776 28.632 26.7159 28.6032 26.7543C28.2006 27.1185 27.7884 27.4828 27.3858 27.847C25.9671 29.352 24.3854 31.0775 22.9571 32.5921C22.8133 32.7454 22.6791 32.8892 22.5353 33.0234L22.4874 33.0714C22.3436 33.2151 22.2094 33.3589 22.0752 33.4931C21.9506 33.6178 21.8356 33.7424 21.7109 33.867C21.6918 33.8862 21.6726 33.9149 21.6438 33.9341L21.2988 34.3079L21.2796 34.3271C21.27 34.3367 21.2604 34.3559 21.2508 34.3655C21.1645 34.4613 21.0783 34.5668 21.0016 34.6722C20.992 34.6818 20.9824 34.701 20.9728 34.7105C20.9728 34.7201 20.9632 34.7201 20.9632 34.7297C20.9249 34.7776 20.8866 34.8352 20.8482 34.8831C20.829 34.9118 20.8003 34.9406 20.7811 34.9789L20.7715 34.9885C20.7524 35.0077 20.7428 35.0365 20.7236 35.0556C20.6948 35.1036 20.6565 35.1515 20.6277 35.1994C20.6182 35.209 20.6086 35.2282 20.6086 35.2378C20.599 35.2569 20.5798 35.2857 20.5702 35.3049C20.5511 35.3336 20.5319 35.3624 20.5127 35.4007C20.4935 35.4295 20.4744 35.4678 20.4552 35.4966L20.4264 35.5541C20.4169 35.5637 20.4168 35.5733 20.4073 35.5829C20.3785 35.6404 20.3402 35.7075 20.3114 35.765C20.3018 35.7746 20.3018 35.7842 20.3018 35.7937C20.2922 35.8129 20.2826 35.8321 20.2826 35.8417C20.2635 35.88 20.2539 35.9088 20.2347 35.9471C20.2155 35.9855 20.1964 36.0334 20.1868 36.0717C20.1772 36.0909 20.1772 36.1101 20.1676 36.1197C20.1676 36.1293 20.158 36.1388 20.158 36.1484C20.1293 36.2251 20.1005 36.2922 20.0813 36.3689C20.0813 36.3785 20.0718 36.3881 20.0718 36.3977L20.043 36.4839C20.0238 36.5319 20.0142 36.5798 19.9951 36.6277C19.9855 36.6661 19.9759 36.714 19.9567 36.7523C19.9567 37.826 19.88 41.4782 19.9088 42.8681L21.5001 43.798C21.4713 42.3984 21.548 38.7558 21.548 37.6822C21.5672 37.5863 21.5959 37.5 21.6247 37.4042L21.6534 37.3179C21.6822 37.222 21.7205 37.1262 21.7493 37.0399C21.7589 37.0207 21.7589 37.0016 21.7685 36.992C21.7972 36.9153 21.8356 36.8386 21.8643 36.7619C21.8739 36.7428 21.8835 36.7236 21.8835 36.714C21.9218 36.6277 21.9698 36.551 22.0081 36.4648L22.0369 36.4072C22.0752 36.3401 22.1136 36.2826 22.1519 36.2155C22.1615 36.1964 22.1807 36.1676 22.1902 36.1484C22.2286 36.0909 22.2669 36.0238 22.3053 35.9663C22.3244 35.9471 22.334 35.9184 22.3532 35.8992C22.382 35.8609 22.4011 35.8321 22.4299 35.7937C22.4682 35.7458 22.5066 35.6883 22.5449 35.6404C22.5545 35.6212 22.5737 35.602 22.5928 35.5829C22.6695 35.4774 22.7558 35.3816 22.8421 35.2761L22.8996 35.2186C23.0146 35.094 23.1201 34.9694 23.2447 34.8447C23.2639 34.8256 23.283 34.7968 23.3118 34.7776C23.4268 34.653 23.5514 34.5284 23.6761 34.4038C23.8103 34.2696 23.954 34.1258 24.0882 33.982L24.1362 33.9341C24.2704 33.7903 24.4142 33.6465 24.558 33.4931C25.9863 31.969 27.5583 30.2435 28.9866 28.7481C29.3892 28.3839 29.8014 28.0196 30.204 27.6553C30.2136 27.6457 30.2136 27.6362 30.2232 27.6266L30.2807 27.5403C30.2807 27.5307 30.2903 27.5307 30.2903 27.5211C30.2999 27.5115 30.2999 27.502 30.3095 27.4924C30.3191 27.4732 30.3287 27.454 30.3478 27.4349C30.3574 27.4157 30.367 27.4061 30.3766 27.3869L30.4053 27.3294C30.4149 27.3198 30.4149 27.3102 30.4245 27.3007L30.4533 27.2431C30.4724 27.2144 30.482 27.176 30.5012 27.1473C30.5108 27.1377 30.5108 27.1281 30.5204 27.1089C30.53 27.0993 30.53 27.0802 30.5396 27.0706C30.5683 27.0131 30.5971 26.946 30.6258 26.8789C30.6354 26.8693 30.6354 26.8597 30.645 26.8405C30.645 26.8405 30.645 26.8309 30.6546 26.8309C30.7121 26.6967 30.7696 26.5625 30.8271 26.4187V26.4092V26.3996C30.8846 26.2558 30.9326 26.112 30.9805 25.9682V25.9586C31.0284 25.8148 31.0859 25.6711 31.1243 25.5273C31.1243 25.5177 31.1243 25.5177 31.1339 25.5081C31.1626 25.4314 31.1818 25.3547 31.2106 25.2876C31.2201 25.2589 31.2297 25.2397 31.2393 25.2109C31.2585 25.163 31.2681 25.1151 31.2872 25.0671C31.2968 25.0384 31.3064 25 31.316 24.9713C31.3352 24.9138 31.3543 24.8563 31.3639 24.8083C31.3831 24.7412 31.4023 24.6741 31.4215 24.6166L31.9966 24.1181L30.3862 23.2266ZM39.6845 3.4893L38.0932 2.55947H38.0836L38.0261 2.53071C38.0165 2.53071 38.007 2.52112 38.007 2.52112H37.9974C37.9974 2.52112 37.9878 2.52113 37.9878 2.51154C37.9686 2.51154 37.959 2.50195 37.9399 2.50195H37.9111L37.0004 2.84705L36.4349 2.55947C36.3678 2.54988 36.3007 2.5403 36.224 2.5403H35.9076C35.8885 2.5403 35.8693 2.5403 35.8501 2.54988C35.783 2.54988 35.7255 2.55947 35.6584 2.56905C35.6297 2.56905 35.5913 2.56905 35.5626 2.57864C35.5434 2.57864 35.5146 2.58823 35.4955 2.58823C35.4763 2.58823 35.4475 2.59781 35.4284 2.59781C35.3325 2.61698 35.2462 2.63616 35.1504 2.66491H35.1408C35.1216 2.6745 35.1024 2.6745 35.0833 2.68408C34.997 2.70326 34.9203 2.73201 34.834 2.76077C34.7957 2.77036 34.7669 2.78953 34.7286 2.79912L34.5848 2.85663C34.5656 2.86622 34.556 2.86622 34.5369 2.8758C34.4602 2.90456 34.3835 2.9429 34.3068 2.98125C34.2685 3.00042 34.2301 3.01959 34.1918 3.02918C34.0767 3.08669 33.9617 3.14421 33.8563 3.21131C33.7508 3.26882 33.6454 3.33592 33.5399 3.40303L33.4537 3.46054C33.377 3.50847 33.3003 3.56599 33.214 3.6235C33.1853 3.64267 33.1661 3.66185 33.1373 3.68102C33.0415 3.74812 32.936 3.82481 32.8402 3.90149C32.821 3.91108 32.8018 3.93025 32.7922 3.93984C32.706 4.00694 32.6293 4.06445 32.5526 4.13155C32.5238 4.15073 32.4951 4.17948 32.4663 4.19866C32.3896 4.26576 32.3129 4.32327 32.2363 4.39037C32.2171 4.40954 32.1979 4.41913 32.1787 4.4383C32.0829 4.51499 31.9966 4.60126 31.9103 4.67795C31.8912 4.69712 31.8624 4.71629 31.8432 4.73547C31.7761 4.80257 31.709 4.86008 31.6419 4.92718C31.6132 4.94636 31.594 4.97511 31.5652 4.99428C31.4886 5.07097 31.4119 5.14766 31.3352 5.21476L31.3256 5.22435L31.1051 5.44482C31.0859 5.46399 31.0668 5.48316 31.0476 5.51192L30.8942 5.6653C30.8751 5.69405 30.8463 5.71323 30.8271 5.7324L30.6833 5.87619L30.6354 5.92412C30.5779 5.99122 30.5108 6.04873 30.4533 6.10625L32.0445 7.03608C32.102 6.97856 32.1596 6.91146 32.2267 6.85395C32.2458 6.83477 32.2554 6.8156 32.2746 6.80602L32.4184 6.66223L32.4855 6.59513C32.5334 6.5472 32.5813 6.48968 32.6389 6.44175C32.658 6.42258 32.6772 6.39382 32.706 6.37465L32.9264 6.15418L32.9456 6.135C33.0223 6.05832 33.099 5.99122 33.1757 5.91453C33.2044 5.89536 33.2236 5.8666 33.2524 5.84743C33.3195 5.78033 33.3866 5.72281 33.4537 5.65571C33.4728 5.63654 33.5016 5.61737 33.5208 5.5982C33.607 5.52151 33.7029 5.43524 33.7892 5.35855C33.8083 5.33938 33.8275 5.32979 33.8467 5.31062C33.9234 5.24352 34.0001 5.17642 34.0767 5.1189C34.1055 5.09973 34.1343 5.07097 34.163 5.0518C34.2397 4.9847 34.326 4.92718 34.4027 4.86008C34.4218 4.8505 34.441 4.83132 34.4602 4.82174C34.556 4.74505 34.6519 4.67795 34.7573 4.60126C34.7861 4.58209 34.8053 4.56292 34.834 4.54375C34.9107 4.48623 34.9874 4.4383 35.0737 4.38079L35.1599 4.32327C35.2654 4.25617 35.3708 4.18907 35.4763 4.13155C35.5913 4.06445 35.7063 4.00694 35.8118 3.94942C35.8501 3.93025 35.8885 3.91108 35.9268 3.90149C36.0035 3.86315 36.0802 3.82481 36.1569 3.79605C36.2144 3.76729 36.2815 3.74812 36.339 3.71936C36.3774 3.70977 36.4061 3.6906 36.4445 3.68102C36.5307 3.65226 36.6074 3.6235 36.6937 3.60433C36.7129 3.59474 36.732 3.59474 36.7512 3.58516C36.8471 3.5564 36.9429 3.53723 37.0388 3.51806C37.058 3.51806 37.0867 3.50847 37.1059 3.50847C37.1634 3.49889 37.2209 3.4893 37.2688 3.4893C37.3359 3.47971 37.3935 3.47013 37.4606 3.47013C37.5181 3.47013 37.566 3.47013 37.6235 3.46054H37.7769C37.8632 3.46054 37.959 3.47013 38.0453 3.47971L38.6109 3.76729L39.5215 3.4222C39.5503 3.4222 39.579 3.43178 39.6174 3.44137H39.627C39.627 3.46054 39.6557 3.47971 39.6845 3.4893ZM29.6864 14.7527C29.6864 14.724 29.6768 14.6856 29.6768 14.6569C29.6576 14.5035 29.6385 14.3597 29.6289 14.2159C29.6289 14.1776 29.6193 14.1488 29.6193 14.1105C29.6097 13.9954 29.6001 13.8804 29.6001 13.7654C29.6001 13.727 29.6001 13.6887 29.5905 13.6503C29.581 13.5066 29.581 13.3724 29.581 13.2286V13.1998C29.581 13.0752 29.581 12.941 29.5905 12.8164V12.7013C29.6001 12.5863 29.6001 12.4809 29.6097 12.3754C29.6097 12.3562 29.6097 12.3275 29.6193 12.2987C29.6289 12.1741 29.6481 12.0399 29.6576 11.9153C29.6576 11.877 29.6672 11.8386 29.6768 11.8099C29.6864 11.7332 29.696 11.6565 29.7152 11.5894C29.7247 11.551 29.7247 11.5127 29.7343 11.4743C29.7439 11.3977 29.7631 11.3306 29.7727 11.2539C29.7823 11.2251 29.7823 11.1868 29.7919 11.158C29.8206 11.0046 29.859 10.8609 29.8973 10.7171C29.9069 10.6883 29.9165 10.6595 29.9165 10.6308C29.9548 10.5062 29.9836 10.3911 30.0219 10.2761C30.0219 10.2665 30.0219 10.2665 30.0315 10.2569C30.0603 10.1611 30.0986 10.0652 30.1369 9.96936C30.1465 9.9406 30.1657 9.90226 30.1753 9.8735C30.204 9.8064 30.2232 9.7393 30.252 9.68178C30.2616 9.65303 30.2807 9.61468 30.2903 9.58593C30.3191 9.52841 30.3478 9.46131 30.3766 9.40379C30.3862 9.37504 30.4053 9.34628 30.4149 9.31752C30.4533 9.24083 30.4916 9.16415 30.53 9.09704C30.5396 9.08746 30.5395 9.07787 30.5491 9.06829C30.5971 8.98201 30.645 8.90533 30.6929 8.81905C30.7025 8.79988 30.7217 8.77113 30.7313 8.75195C30.7696 8.69444 30.808 8.62734 30.8367 8.56982C30.8559 8.54106 30.8751 8.51231 30.8846 8.48355C30.923 8.42603 30.9613 8.35893 31.0093 8.30142C31.0284 8.28224 31.038 8.25349 31.0572 8.23432C31.1243 8.14804 31.1818 8.06177 31.2489 7.9755C31.2585 7.96591 31.2681 7.94674 31.2777 7.93715L31.5365 7.62082C31.5365 7.62082 31.5365 7.61123 31.5461 7.61123C31.6803 7.45786 31.8145 7.31407 31.9487 7.17987L32.0541 7.07442L30.4629 6.14459L30.3766 6.23086L30.3574 6.25004C30.2136 6.38424 30.0794 6.52803 29.9548 6.6814L29.9452 6.69099C29.859 6.79643 29.7727 6.89229 29.6864 7.00732C29.6768 7.01691 29.6768 7.02649 29.6672 7.03608L29.6576 7.04566C29.5905 7.13194 29.5234 7.21821 29.4659 7.30448C29.4563 7.31407 29.4563 7.32366 29.4468 7.32366C29.4372 7.34283 29.4276 7.35241 29.418 7.37159C29.3797 7.4291 29.3413 7.48662 29.2934 7.55372C29.2838 7.57289 29.2742 7.58247 29.2646 7.60165C29.255 7.61123 29.255 7.62082 29.2455 7.63999C29.2071 7.69751 29.1688 7.75502 29.14 7.82212L29.1113 7.87964C29.1113 7.88922 29.1017 7.88922 29.1017 7.89881C29.0537 7.98508 29.0058 8.06177 28.9579 8.14804C28.9483 8.15763 28.9483 8.16721 28.9387 8.1768C28.9004 8.25349 28.862 8.32059 28.8237 8.39728C28.8237 8.40686 28.8141 8.40686 28.8141 8.41645C28.8045 8.43562 28.7949 8.45479 28.7853 8.48355C28.7566 8.54106 28.7278 8.60816 28.6991 8.66568C28.6895 8.67527 28.6895 8.69444 28.6799 8.70403C28.6703 8.7232 28.6607 8.74237 28.6607 8.76154C28.632 8.82864 28.6032 8.88615 28.584 8.95326L28.5553 9.01077C28.5553 9.02036 28.5457 9.03953 28.5457 9.04912C28.5073 9.14497 28.4786 9.24083 28.4402 9.33669C28.4402 9.34628 28.4402 9.34628 28.4307 9.35586C28.3923 9.4709 28.354 9.59551 28.3252 9.71054C28.3252 9.72972 28.3156 9.7393 28.3156 9.75847C28.3156 9.76806 28.306 9.78723 28.306 9.79682C28.2677 9.9406 28.2293 10.0844 28.2006 10.2378C28.2006 10.2474 28.2006 10.2569 28.191 10.2665C28.1814 10.2953 28.1814 10.3145 28.1814 10.3432C28.1622 10.4103 28.1527 10.487 28.1431 10.5637C28.1335 10.602 28.1335 10.6404 28.1239 10.6883C28.1143 10.765 28.1047 10.8417 28.0951 10.9088C28.0951 10.9375 28.0856 10.9567 28.0856 10.9855V11.0142C28.0664 11.1388 28.0568 11.2635 28.0472 11.3977C28.0472 11.4168 28.0472 11.4456 28.0376 11.4743C28.028 11.5798 28.0185 11.6948 28.0185 11.8003V11.9153C28.0185 12.0399 28.0089 12.1645 28.0089 12.2891V12.3275C28.0089 12.4617 28.0185 12.6055 28.0185 12.7493C28.0185 12.7876 28.0185 12.826 28.028 12.8643C28.0376 12.9793 28.0376 13.0944 28.0472 13.2094C28.0472 13.2477 28.0568 13.2765 28.0568 13.3148C28.0664 13.4586 28.0856 13.612 28.1047 13.7558C28.1047 13.7845 28.1143 13.8229 28.1143 13.8516L28.1718 14.2255C28.1814 14.2638 28.1814 14.3118 28.191 14.3597C28.2198 14.5131 28.2485 14.676 28.2773 14.8294C28.2869 14.8678 28.2869 14.9157 28.2965 14.954V15.2416C28.2965 15.2608 28.2965 15.2799 28.2869 15.2991C28.2869 15.3279 28.2773 15.3662 28.2677 15.395C28.2677 15.4046 28.2581 15.4237 28.2581 15.4333L28.2294 15.5484C28.2294 15.5579 28.2294 15.5579 28.2198 15.5675C28.2102 15.6154 28.191 15.6634 28.1718 15.7209C28.1718 15.7305 28.1622 15.7401 28.1622 15.7592C28.1335 15.8263 28.1143 15.903 28.0856 15.9701C28.0568 16.0372 28.0376 16.1043 28.0185 16.1618C28.0185 16.1714 28.0089 16.1714 28.0089 16.181C28.0089 16.1906 28.0089 16.1906 27.9993 16.2002C27.9897 16.2194 27.9801 16.2481 27.9801 16.2673C27.9801 16.2769 27.9705 16.2865 27.9705 16.296V16.3056C27.9705 16.3152 27.9609 16.3248 27.9609 16.344C27.9609 16.3536 27.9514 16.3631 27.9514 16.3823V16.4015C27.9514 16.4111 27.9514 16.4207 27.9418 16.4303V16.4686C27.9418 16.5069 27.9322 16.5453 27.9418 16.574C28.0185 17.3984 28.0376 19.3827 28.6511 19.7374L30.2424 20.6672C29.6289 20.3125 29.6097 18.3283 29.533 17.5039V17.3984V17.3601C29.533 17.3505 29.533 17.3409 29.5426 17.3313C29.5426 17.3122 29.5522 17.293 29.5522 17.2834C29.5522 17.2738 29.5618 17.2642 29.5618 17.2451C29.5618 17.2355 29.5714 17.2163 29.5714 17.2067C29.581 17.1875 29.581 17.1588 29.5905 17.1396C29.5905 17.13 29.6001 17.1204 29.6001 17.1013C29.6193 17.0342 29.6481 16.9766 29.6672 16.9095C29.696 16.8424 29.7152 16.7753 29.7439 16.7082C29.7439 16.6987 29.7535 16.6987 29.7535 16.6891V16.6795C29.7727 16.6316 29.7823 16.5836 29.8014 16.5261V16.5069L29.8302 16.3919V16.3823C29.8302 16.3727 29.8302 16.3632 29.8398 16.3536C29.8494 16.3248 29.8494 16.2865 29.859 16.2577V16.2289V16.1906V16.1427V16.066V16.0181V15.9414V15.903C29.859 15.8647 29.8494 15.8168 29.8398 15.7784C29.811 15.6155 29.7823 15.4621 29.7535 15.3087C29.7439 15.2608 29.7343 15.2224 29.7343 15.1745C29.7247 15.002 29.7056 14.8773 29.6864 14.7527Z" fill="#EDF3F1"/>
<path d="M35.4575 4.141C36.2914 3.6617 37.1733 3.37413 38.0265 3.48916L38.5921 3.77673L39.5027 3.43164C39.9533 3.47957 40.2312 4.2752 40.2504 4.32313C40.4901 5.30089 40.5188 5.38716 40.4996 6.54706C40.4901 6.99759 40.2792 9.17359 40.3367 9.75833C40.3846 10.2472 40.4996 10.228 40.6722 10.554C40.9789 11.1195 40.8831 12.2027 40.7681 13.0175C40.701 13.4681 40.5667 14.1295 40.3654 14.58C40.1354 15.0785 39.6848 15.3469 39.4835 15.8933C39.196 16.6793 39.3589 17.4558 39.1864 18.2227C38.9851 19.1046 38.4483 19.4592 38.4195 20.4754L39.196 20.159C39.4548 20.6575 39.9341 21.6736 40.423 21.779C40.8256 21.6736 41.2378 21.5681 41.6404 21.4627C43.0591 21.3189 44.6503 21.2231 46.0786 21.0984C47.3823 20.9834 48.3984 20.6287 48.8777 21.942C48.8777 23.0156 48.9832 26.5624 48.9544 27.9907L21.4908 43.817C21.4621 42.4175 21.5388 38.7748 21.5388 37.7012C22.0085 35.8415 23.2546 34.9021 24.5487 33.5122C25.977 31.988 27.5491 30.2625 28.9774 28.7671C29.38 28.4029 29.7922 28.0386 30.1948 27.6744C30.6741 27.0033 31.1534 25.4408 31.4026 24.6548L31.9778 24.1563C31.8436 23.3895 31.3931 23.5812 31.2013 23.0923C31.1246 22.2296 31.048 21.3764 30.9713 20.5137C30.8562 20.5904 30.4345 20.7054 30.3674 20.6958C29.6101 20.5808 29.5909 18.3665 29.5142 17.475C29.4759 17.0724 29.9839 16.4301 29.8401 15.7303C29.0062 11.6659 30.1756 8.84767 32.0449 7.06469C32.8597 6.22114 34.0963 4.92704 35.4575 4.141Z" fill="#1CB15A"/>
<path d="M36.5874 22.8621C37.0188 22.6128 36.8175 23.0634 36.8079 23.0825L35.878 25.1819C35.9356 25.4119 37.0955 29.7735 37.0955 30.0323C37.0955 30.2911 35.5617 32.2946 35.37 32.4C35.1879 32.5055 33.6445 32.3233 33.6445 32.0262C33.6445 31.7386 34.7661 26.0829 34.8332 25.7858L33.8458 24.7888C33.8362 24.7792 33.702 24.5204 34.1334 24.2712L36.5874 22.8621Z" fill="#28CE2E"/>
<path d="M35.4781 33.253L34.3182 32.582C34.2511 32.5436 34.2031 32.4957 34.2031 32.4478C34.2031 32.4382 34.2031 32.4094 34.2127 32.3711L35.3726 33.0421C35.363 33.0804 35.363 33.1092 35.363 33.1188C35.363 33.1667 35.4109 33.2147 35.4781 33.253Z" fill="#ACC5EA"/>
<path d="M35.3708 33.0427L34.2109 32.3717C34.3068 31.624 35.3325 26.4956 35.39 26.208L36.5499 26.879C36.4924 27.1666 35.4667 32.295 35.3708 33.0427Z" fill="#ACC5EA"/>
<path d="M38.5431 23.878L37.6133 23.3412L37.3832 23.207H37.3736H37.364H37.3544H37.3449H37.2969H37.2873H37.2778C37.2586 23.207 37.249 23.2166 37.2298 23.2262H37.2202C37.1915 23.2358 37.1627 23.255 37.1244 23.2741L34.6896 24.6928C34.6512 24.712 34.6225 24.7312 34.5937 24.7504C34.5841 24.7599 34.5745 24.7599 34.5745 24.7695C34.5554 24.7887 34.5266 24.8079 34.5074 24.827L34.4978 24.8366C34.4978 24.8366 34.4978 24.8462 34.4883 24.8462L34.4691 24.8654L34.4595 24.875V24.8941C34.4595 24.9037 34.4499 24.9037 34.4499 24.9133C34.4499 24.9229 34.4403 24.9229 34.4403 24.9325L34.4307 24.9421L34.4212 24.9517C34.4212 24.9517 34.4212 24.9612 34.4116 24.9612C34.4116 24.9612 34.4116 24.9708 34.402 24.9708C34.402 24.9708 34.402 24.9804 34.3924 24.9804C34.3924 24.9804 34.3924 24.99 34.3828 24.99V25.1146C34.3828 25.1338 34.3828 25.1434 34.3924 25.153V25.1626C34.3924 25.1721 34.402 25.1817 34.402 25.1913C34.402 25.2009 34.4116 25.2009 34.4116 25.2009L35.3989 26.1978L36.5588 26.8688L35.5715 25.8719C35.5715 25.8719 35.5715 25.8623 35.5619 25.8623C35.5619 25.8527 35.5523 25.8432 35.5523 25.8336V25.824C35.5523 25.8144 35.5427 25.7952 35.5427 25.7856V25.776V25.7281V25.7089V25.6994C35.5427 25.6898 35.5523 25.6802 35.5523 25.661C35.5523 25.6514 35.5619 25.6323 35.5715 25.6227C35.5811 25.6131 35.581 25.5939 35.5906 25.5843C35.6002 25.5747 35.6098 25.5556 35.6194 25.546V25.5364C35.629 25.5268 35.6386 25.5172 35.6482 25.4981C35.6482 25.4981 35.6482 25.4885 35.6577 25.4885L35.6673 25.4789C35.6865 25.4597 35.7057 25.4405 35.7344 25.4214L35.7536 25.4022C35.7824 25.383 35.8111 25.3639 35.8495 25.3447L38.3034 23.926C38.3418 23.9068 38.3705 23.8876 38.3993 23.878C38.4185 23.8685 38.4472 23.8589 38.4568 23.8589H38.4664C38.4856 23.8589 38.5047 23.8493 38.5143 23.8493C38.5239 23.8685 38.5335 23.878 38.5431 23.878Z" fill="#ACC5EA"/>
<path d="M38.3062 23.9451C38.7375 23.6958 38.5362 24.1464 38.5266 24.1655L37.5968 26.2649C37.6543 26.4949 38.8142 30.8565 38.8142 31.1153C38.8142 31.3741 37.2805 33.3776 37.0887 33.483C36.9066 33.5885 35.3633 33.4063 35.3633 33.1092C35.3633 32.8216 36.4848 27.1659 36.5519 26.8688L35.5646 25.8718C35.555 25.8622 35.4208 25.6034 35.8522 25.3542L38.3062 23.9451Z" fill="white"/>
<path d="M42.7645 45.2266C42.822 45.3225 42.8987 45.3896 42.985 45.4375L44.4037 46.2619C44.1736 46.1277 44.0203 45.8401 44.0203 45.4279L42.6016 44.6035C42.6111 44.8623 42.6687 45.0732 42.7645 45.2266Z" fill="#4CC620"/>
<path d="M60.2101 23.1497C60.1814 23.1306 60.1622 23.121 60.1334 23.1114H60.1238C60.1143 23.1114 60.1047 23.1018 60.1047 23.1018C60.0951 23.1018 60.0855 23.0922 60.0663 23.0922C60.0568 23.0922 60.0376 23.0826 60.028 23.0826C60.0184 23.0826 60.0088 23.0826 60.0088 23.0731H59.9992C59.9705 23.0731 59.9513 23.0635 59.9226 23.0635H59.7404C59.7308 23.0635 59.7212 23.0635 59.7117 23.0731C59.6925 23.0731 59.6733 23.0826 59.6541 23.0826C59.6446 23.0826 59.635 23.0826 59.6254 23.0922C59.6158 23.0922 59.6062 23.1018 59.5966 23.1018C59.5679 23.1114 59.5391 23.121 59.5008 23.1306C59.4912 23.1306 59.4816 23.1402 59.472 23.1402C59.4624 23.1402 59.4624 23.1497 59.4528 23.1497C59.3953 23.1689 59.3474 23.1977 59.2899 23.2264L43.8758 32.1221C43.8087 32.1605 43.7416 32.2084 43.6745 32.2563C43.6649 32.2659 43.6553 32.2755 43.6361 32.2851C43.5786 32.333 43.5115 32.3905 43.454 32.4481C43.4444 32.4481 43.4444 32.4576 43.4348 32.4576L43.4061 32.4864C43.3773 32.5152 43.3485 32.5439 43.3198 32.5823L43.291 32.611C43.2814 32.6206 43.2719 32.6302 43.2719 32.6398C43.2527 32.659 43.2335 32.6781 43.2239 32.6973C43.2143 32.7069 43.2048 32.7261 43.1952 32.7356C43.1856 32.7452 43.176 32.7548 43.1664 32.774C43.1568 32.7932 43.1377 32.8027 43.1281 32.8219L43.0993 32.8507C43.0897 32.8698 43.0706 32.889 43.061 32.9082C43.0514 32.9178 43.0418 32.9369 43.0322 32.9465C43.0322 32.9561 43.0226 32.9561 43.0226 32.9657C43.0035 33.004 42.9747 33.0424 42.9555 33.0807V33.0903C42.9555 33.0999 42.9459 33.1095 42.9459 33.1095C42.9268 33.1382 42.9172 33.167 42.898 33.1862C42.8884 33.1958 42.8884 33.2149 42.8788 33.2245C42.8693 33.2341 42.8693 33.2533 42.8597 33.2629C42.8501 33.2725 42.8501 33.282 42.8405 33.3012C42.8309 33.33 42.8117 33.3587 42.8021 33.3875C42.8021 33.3971 42.7926 33.3971 42.7926 33.4067V33.4162C42.7734 33.4546 42.7638 33.4929 42.7446 33.5313C42.7446 33.5409 42.7446 33.5409 42.7351 33.5504C42.7255 33.56 42.7255 33.5792 42.7159 33.5888C42.7063 33.608 42.6967 33.6271 42.6967 33.6463C42.6871 33.6655 42.6871 33.6751 42.6871 33.6942C42.6775 33.7134 42.6775 33.7326 42.6679 33.7517C42.6679 33.7613 42.6584 33.7709 42.6584 33.7901C42.6488 33.8093 42.6488 33.8284 42.6488 33.8476C42.6392 33.8668 42.6392 33.8955 42.6296 33.9147C42.6296 33.9243 42.6296 33.9339 42.62 33.9435C42.62 33.9626 42.6104 33.9722 42.6104 33.9914C42.6008 34.0297 42.6008 34.0585 42.5913 34.0968C42.5913 34.1064 42.5913 34.116 42.5817 34.1256V34.1544C42.5721 34.231 42.5625 34.3077 42.5625 34.3844L42.5913 44.6126L44.01 45.4369L43.9812 35.2088C43.9812 35.1321 43.9908 35.0554 44.0004 34.9787C44.0004 34.9596 44.0004 34.9404 44.01 34.9212C44.0196 34.8829 44.0196 34.8541 44.0291 34.8158C44.0291 34.787 44.0387 34.7678 44.0387 34.7391C44.0483 34.7199 44.0483 34.6912 44.0579 34.672C44.0675 34.6432 44.0771 34.6145 44.0867 34.5761C44.0962 34.557 44.0962 34.5378 44.1058 34.5186C44.1154 34.4803 44.125 34.4515 44.1442 34.4132C44.1538 34.4036 44.1538 34.3844 44.1633 34.3748L44.2209 34.231C44.2209 34.2215 44.2304 34.2215 44.2304 34.2119C44.2496 34.1735 44.2688 34.1256 44.288 34.0872C44.2975 34.0777 44.2975 34.0585 44.3071 34.0489C44.3263 34.0106 44.3455 33.9722 44.3742 33.9339C44.3742 33.9243 44.3838 33.9147 44.3838 33.9147C44.4126 33.8668 44.4413 33.8284 44.4701 33.7805C44.4797 33.7709 44.4893 33.7517 44.4989 33.7422C44.518 33.7134 44.5372 33.6846 44.566 33.6463C44.5755 33.6271 44.5947 33.6175 44.6043 33.5984C44.6235 33.5696 44.6426 33.5504 44.6618 33.5217C44.681 33.5025 44.7002 33.4833 44.7097 33.4546C44.7289 33.4354 44.7385 33.4162 44.7577 33.3971C44.7864 33.3683 44.8152 33.3395 44.8439 33.3012C44.8535 33.282 44.8727 33.2724 44.8919 33.2533C44.9494 33.1958 45.0069 33.1382 45.074 33.0903C45.0836 33.0807 45.0932 33.0711 45.1123 33.0616C45.1795 33.0136 45.2466 32.9657 45.3137 32.9274L60.7278 24.0317C60.7853 24.0029 60.8332 23.9741 60.8907 23.955C60.9099 23.9454 60.9291 23.9454 60.9387 23.9358L61.0249 23.907C61.0441 23.8974 61.0633 23.8974 61.0824 23.8879C61.1016 23.8879 61.1208 23.8783 61.14 23.8783C61.1591 23.8783 61.1879 23.8687 61.2071 23.8687H61.3508C61.3796 23.8687 61.4179 23.8783 61.4467 23.8783C61.4563 23.8783 61.4659 23.8783 61.4659 23.8879C61.4946 23.8974 61.5138 23.8974 61.533 23.907C61.5426 23.907 61.5522 23.9166 61.5522 23.9166C61.5809 23.9262 61.6097 23.9454 61.6384 23.955L60.2101 23.1497Z" fill="#4CC620"/>
<path d="M60.7082 24.0701C61.4272 23.6579 62.0119 23.9934 62.0119 24.8082L62.0406 35.0363C62.0406 35.8607 61.4559 36.8672 60.7465 37.2794L45.3324 46.1751C44.6135 46.5873 44.0288 46.2518 44.0288 45.437L44 35.2089C44 34.3845 44.5847 33.378 45.2941 32.9658L60.7082 24.0701Z" fill="#067200"/>
<path d="M62.0119 26.1787L62.0215 28.2301L44.0096 38.6116L44 36.5602L62.0119 26.1787Z" fill="white"/>
<path d="M60.1784 32.5629C60.3222 32.4862 60.4181 32.5533 60.3893 32.7163L59.8142 35.4866C59.795 35.6016 59.7087 35.7167 59.6033 35.7742L55.884 37.9214C55.7402 37.9981 55.6443 37.931 55.6731 37.768L56.2482 34.9977C56.2674 34.8827 56.3537 34.7677 56.4591 34.7101L60.1784 32.5629Z" fill="#4CC620"/>
<path d="M56.5379 38.3628C56.5379 38.3532 56.5283 38.3436 56.5283 38.334V38.3149V38.2861V38.2669C56.5283 38.2573 56.5283 38.2382 56.5379 38.219L55.9723 37.8931V38.0081C55.9723 38.0177 55.9819 38.0273 55.9819 38.0369C55.9819 38.0369 55.9819 38.0464 55.9915 38.0464L56.0202 38.0752L56.5858 38.4011L56.557 38.3724C56.5474 38.3724 56.5475 38.3628 56.5379 38.3628ZM60.631 32.6688C60.631 32.6688 60.6215 32.6688 60.6215 32.6592H60.6119H60.6023H60.5735H60.5639H60.5352H60.5256H60.516H60.5064C60.4968 32.6592 60.4873 32.6688 60.4681 32.6783L56.7392 34.8256C56.7296 34.8352 56.7104 34.8448 56.7008 34.8543L56.6912 34.8639C56.6817 34.8735 56.6721 34.8735 56.6625 34.8831L56.6433 34.9023L56.6337 34.9119L56.6146 34.931C56.6146 34.931 56.6146 34.9406 56.605 34.9406V34.9502C56.605 34.9598 56.5954 34.9598 56.5954 34.9694L56.5858 34.979C56.5858 34.9885 56.5762 34.9886 56.5762 34.9981C56.5762 35.0077 56.5666 35.0077 56.5666 35.0173V35.0269C56.5666 35.0365 56.5666 35.0365 56.557 35.0461C56.557 35.0461 56.557 35.0556 56.5475 35.0556C56.5475 35.0652 56.5475 35.0652 56.5379 35.0748C56.5379 35.0844 56.5379 35.0844 56.5283 35.094L55.9531 37.8643L56.5187 38.1902L57.0938 35.4199C57.0938 35.4103 57.1034 35.3912 57.1034 35.3816C57.1034 35.372 57.113 35.3528 57.1226 35.3432C57.1322 35.3336 57.1322 35.3145 57.1418 35.3049C57.1514 35.2953 57.161 35.2857 57.161 35.2665L57.1897 35.2378L57.1993 35.2282C57.2089 35.2186 57.2089 35.209 57.2185 35.209C57.228 35.1994 57.2376 35.1899 57.2472 35.1899L57.2568 35.1803C57.2664 35.1707 57.2856 35.1611 57.2951 35.1515L61.0241 33.0043C61.0432 32.9947 61.0528 32.9851 61.072 32.9851H61.0816C61.0912 32.9851 61.1103 32.9755 61.1199 32.9755H61.1583C61.1678 32.9755 61.1774 32.9851 61.187 32.9851L60.631 32.6688Z" fill="#E8CFAC"/>
<path d="M45.7455 38.6027C45.8414 38.5452 45.9181 38.5931 45.9181 38.6986V39.6092C45.9181 39.7243 45.8414 39.8585 45.7455 39.9064L44.9499 40.3665C44.854 40.4241 44.7773 40.3761 44.7773 40.2707V39.36C44.7773 39.2546 44.854 39.1108 44.9499 39.0629L45.7455 38.6027Z" fill="#4CC620"/>
<path d="M61.0318 33.0141C61.1756 32.9374 61.2714 33.0045 61.2427 33.1674L60.6675 35.9378C60.6483 36.0528 60.5621 36.1678 60.4566 36.2253L56.7277 38.3726C56.5839 38.4493 56.4881 38.3822 56.5168 38.2192L57.092 35.4489C57.1111 35.3339 57.1974 35.2188 57.3029 35.1613L61.0318 33.0141Z" fill="white"/>
<path d="M45.5336 40.7494L44.9297 40.4043C44.9297 40.4618 44.9489 40.5002 44.9776 40.5193L45.5815 40.8644C45.5528 40.8357 45.5336 40.7973 45.5336 40.7494Z" fill="#E8CFAC"/>
<path d="M46.0203 38.7176C46.0203 38.7176 46.0108 38.7176 46.0108 38.708H46.0012H45.9916H45.982H45.9724H45.9437H45.9341H45.9245H45.9149C45.9053 38.708 45.8957 38.7176 45.8861 38.7176L45.0905 39.1777C45.0713 39.1873 45.0522 39.2065 45.0426 39.2161H45.033L45.0234 39.2256L45.0138 39.2352L45.0042 39.2448C44.9947 39.2544 44.9947 39.2544 44.9947 39.264V39.2832C44.9947 39.2927 44.9851 39.2927 44.9851 39.3023C44.9851 39.3119 44.9755 39.3119 44.9755 39.3215C44.9755 39.3215 44.9755 39.3311 44.9659 39.3311C44.9659 39.3407 44.9563 39.3407 44.9563 39.3503C44.9563 39.3503 44.9563 39.3598 44.9467 39.3598C44.9467 39.3694 44.9467 39.3694 44.9371 39.379C44.9371 39.3886 44.9371 39.3886 44.9276 39.3982V39.4174C44.9276 39.4269 44.9276 39.4269 44.918 39.4365V40.4143L45.5219 40.7594V39.8487V39.8104V39.8008C45.5219 39.7912 45.5315 39.772 45.5315 39.7625C45.5315 39.7529 45.541 39.7337 45.5506 39.7241C45.5602 39.7145 45.5602 39.6954 45.5698 39.6858C45.5794 39.6762 45.589 39.657 45.5986 39.6474L45.6273 39.6187L45.6369 39.6091L45.6465 39.5995C45.6657 39.5803 45.6848 39.5707 45.6944 39.5611L46.4901 39.101C46.4996 39.0914 46.5092 39.0914 46.5188 39.0819H46.5284C46.538 39.0819 46.5476 39.0723 46.5572 39.0723H46.5859C46.5955 39.0723 46.6051 39.0819 46.6147 39.0819L46.0203 38.7176Z" fill="#E8CFAC"/>
<path d="M48.0268 37.385C48.1226 37.3274 48.1993 37.3754 48.1993 37.4808V38.3915C48.1993 38.5065 48.1226 38.6407 48.0268 38.6886L47.2311 39.1488C47.1353 39.2063 47.0586 39.1583 47.0586 39.0529V38.1422C47.0586 38.0368 47.1353 37.893 47.2311 37.8451L48.0268 37.385Z" fill="#4CC620"/>
<path d="M46.4994 39.0812C46.5953 39.0237 46.672 39.0717 46.672 39.1771V40.0878C46.672 40.2028 46.5953 40.337 46.4994 40.3849L45.7038 40.8451C45.6079 40.9026 45.5312 40.8546 45.5312 40.7492V39.8385C45.5312 39.7331 45.6079 39.5893 45.7038 39.5414L46.4994 39.0812Z" fill="white"/>
<path d="M47.8422 39.5228L47.2383 39.1777C47.2383 39.2352 47.2575 39.2736 47.2862 39.2928L47.8901 39.6379C47.8614 39.6187 47.8422 39.5803 47.8422 39.5228Z" fill="#E8CFAC"/>
<path d="M48.3328 37.4901C48.3328 37.4901 48.3233 37.4901 48.3233 37.4805H48.3137H48.3041H48.2945H48.2849H48.2562H48.2466H48.237H48.2274C48.2178 37.4805 48.2082 37.4901 48.1986 37.4901L47.403 37.9502C47.3838 37.9598 47.3647 37.9789 47.3551 37.9885H47.3455L47.3359 37.9981L47.3263 38.0077L47.3167 38.0173C47.3072 38.0269 47.3072 38.0269 47.3072 38.0364V38.0556C47.3072 38.0652 47.2976 38.0652 47.2976 38.0748C47.2976 38.0844 47.288 38.0844 47.288 38.094C47.288 38.094 47.288 38.1036 47.2784 38.1036C47.2784 38.1131 47.2688 38.1131 47.2688 38.1227C47.2688 38.1227 47.2688 38.1323 47.2592 38.1323C47.2592 38.1419 47.2592 38.1419 47.2496 38.1515C47.2496 38.1611 47.2496 38.1611 47.2401 38.1706V38.1898C47.2401 38.1994 47.2401 38.1994 47.2305 38.209V39.1868L47.8344 39.5318V38.6212V38.5828V38.5733C47.8344 38.5637 47.844 38.5445 47.844 38.5349C47.844 38.5253 47.8536 38.5062 47.8631 38.4966C47.8727 38.487 47.8727 38.4678 47.8823 38.4582C47.8919 38.4486 47.9015 38.4295 47.9111 38.4199L47.9398 38.3911L47.9494 38.3815L47.959 38.372C47.9782 38.3528 47.9973 38.3432 48.0069 38.3336L48.8026 37.8735C48.8121 37.8639 48.8217 37.8639 48.8313 37.8543H48.8409C48.8505 37.8543 48.8601 37.8447 48.8697 37.8447H48.8984C48.908 37.8447 48.9176 37.8543 48.9272 37.8543L48.3328 37.4901Z" fill="#E8CFAC"/>
<path d="M50.1713 36.2062C50.2672 36.1487 50.3438 36.1967 50.3438 36.3021V37.2128C50.3438 37.3278 50.2672 37.462 50.1713 37.5099L49.3757 37.9701C49.2798 38.0276 49.2031 37.9796 49.2031 37.8742V36.9635C49.2031 36.8581 49.2798 36.7143 49.3757 36.6664L50.1713 36.2062Z" fill="#4CC620"/>
<path d="M48.8002 37.8547C48.8961 37.7972 48.9728 37.8451 48.9728 37.9505V38.8612C48.9728 38.9762 48.8961 39.1104 48.8002 39.1584L48.0046 39.6185C47.9087 39.676 47.832 39.6281 47.832 39.5226V38.612C47.832 38.5065 47.9087 38.3627 48.0046 38.3148L48.8002 37.8547Z" fill="white"/>
<path d="M50.018 38.3529L49.4141 38.0078C49.4141 38.0653 49.4332 38.1037 49.462 38.1228L50.0659 38.4679C50.0371 38.4392 50.018 38.4008 50.018 38.3529Z" fill="#E8CFAC"/>
<path d="M50.5086 36.3211C50.5086 36.3211 50.499 36.3211 50.499 36.3115H50.4895H50.4799H50.4703H50.4607H50.4319H50.4224H50.4128H50.4032C50.3936 36.3115 50.384 36.3211 50.3744 36.3211L49.5788 36.7812C49.5596 36.7908 49.5405 36.81 49.5309 36.8196H49.5213L49.5117 36.8292L49.5021 36.8387L49.4925 36.8483C49.4829 36.8579 49.4829 36.8579 49.4829 36.8675V36.8867C49.4829 36.8963 49.4734 36.8963 49.4734 36.9058C49.4734 36.9154 49.4638 36.9154 49.4638 36.925C49.4638 36.925 49.4638 36.9346 49.4542 36.9346C49.4542 36.9442 49.4446 36.9442 49.4446 36.9538C49.4446 36.9538 49.4446 36.9634 49.435 36.9634C49.435 36.9729 49.435 36.9729 49.4254 36.9825C49.4254 36.9921 49.4254 36.9921 49.4158 37.0017V37.0209C49.4158 37.0305 49.4158 37.0305 49.4062 37.04V38.0178L50.0102 38.3629V37.4522V37.4139V37.4043C50.0102 37.3947 50.0197 37.3756 50.0197 37.366C50.0197 37.3564 50.0293 37.3372 50.0389 37.3276C50.0485 37.318 50.0485 37.2989 50.0581 37.2893C50.0677 37.2797 50.0773 37.2605 50.0868 37.2509L50.1156 37.2222L50.1252 37.2126L50.1348 37.203C50.1539 37.1838 50.1731 37.1742 50.1827 37.1647L50.9783 36.7045C50.9879 36.695 50.9975 36.695 51.0071 36.6854H51.0167C51.0263 36.6854 51.0358 36.6758 51.0454 36.6758H51.0742C51.0838 36.6758 51.0934 36.6854 51.103 36.6854L50.5086 36.3211Z" fill="#E8CFAC"/>
<path d="M50.9877 36.6848C51.0836 36.6272 51.1602 36.6752 51.1602 36.7806V37.6913C51.1602 37.8063 51.0836 37.9405 50.9877 37.9884L50.1921 38.4486C50.0962 38.5061 50.0195 38.4582 50.0195 38.3527V37.442C50.0195 37.3366 50.0962 37.1928 50.1921 37.1449L50.9877 36.6848Z" fill="white"/>
</svg>
