<svg width="32" height="32" viewBox="0 0 32 32" fill="none" xmlns="http://www.w3.org/2000/svg">
<g clip-path="url(#clip0_1545_85389)">
<path d="M9.22319 20.0118C9.21832 19.962 9.20269 19.9161 9.20269 19.8663V19.4395C9.20269 19.2364 9.23588 19.0362 9.30232 18.8458C9.30232 18.8458 10.3658 17.422 10.8688 15.7491C10.3179 14.587 9.81794 13.1407 9.81794 11.7071C9.81794 11.3741 9.84238 11.0518 9.87657 10.7344C9.15882 9.98245 8.18907 9.55664 7.11775 9.55664C4.90582 9.55664 3.11094 11.3613 3.11094 14.166C3.11094 16.4101 4.93713 18.8457 4.93713 18.8457C5.00157 19.0361 5.03482 19.2363 5.03482 19.4395V19.8662C5.03482 20.3985 4.72425 20.8828 4.23988 21.1045L1.34044 22.2891C0.666566 22.5996 0.187066 23.2188 0.0533158 23.9473L0.00350328 24.585C-0.0218717 24.917 0.0913783 25.2441 0.317941 25.4873C0.543503 25.7325 0.860941 25.8701 1.19394 25.8701H5.93319L6.1275 23.3731L6.14019 23.3057C6.3775 21.9961 7.24275 20.8828 8.45169 20.3262L9.22319 20.0118Z" fill="#1DD739"/>
<path d="M31.9473 23.9473C31.8145 23.2188 31.335 22.5996 30.6612 22.2891L27.7598 21.1045C27.2754 20.8828 26.9668 20.3985 26.9668 19.8662V19.4395C26.9668 19.2363 26.9991 19.0361 27.0654 18.8457C27.0654 18.8457 28.8906 16.4101 28.8906 14.166C28.8906 11.3613 27.0967 9.55664 24.8809 9.55664C23.8116 9.55664 22.8418 9.98245 22.1221 10.7363C22.1573 11.0528 22.1816 11.374 22.1816 11.707C22.1816 13.1396 21.6826 14.586 21.1328 15.748C21.6348 17.4209 22.7002 18.8457 22.7002 18.8457C22.7646 19.0361 22.7988 19.2363 22.7988 19.4395V19.8662C22.7988 19.916 22.7822 19.9619 22.7773 20.0117L23.4961 20.3047C24.7558 20.8809 25.6211 21.9941 25.8613 23.3037L25.8731 23.3721L26.0664 25.8701H30.8076C31.1406 25.8701 31.458 25.7325 31.6826 25.4873C31.9092 25.2441 32.0225 24.917 31.9971 24.585L31.9473 23.9473Z" fill="#1DD739"/>
<path d="M22.9912 21.5381L19.4814 20.1035C18.8955 19.8339 18.5215 19.248 18.5215 18.6054V18.0879C18.5215 17.8438 18.5605 17.6006 18.6416 17.3691C18.6416 17.3691 20.8487 14.4238 20.8487 11.707C20.8487 8.31244 18.6778 6.12988 15.999 6.12988C13.3213 6.12988 11.1494 8.31251 11.1494 11.707C11.1494 14.4238 13.3584 17.3691 13.3584 17.3691C13.4375 17.6006 13.4785 17.8438 13.4785 18.0879V18.6054C13.4785 19.248 13.1016 19.8339 12.5166 20.1035L9.00684 21.5381C8.19141 21.9121 7.61034 22.6621 7.45022 23.5449L7.26953 25.8701H15.999H24.7285L24.5498 23.5449C24.3877 22.6621 23.8066 21.9121 22.9912 21.5381Z" fill="#1DD739"/>
</g>
<defs>
<clipPath id="clip0_1545_85389">
<rect width="32" height="32" fill="white"/>
</clipPath>
</defs>
</svg>
