<svg width="80" height="66" viewBox="0 0 80 66" fill="none" xmlns="http://www.w3.org/2000/svg">
<path d="M77.3675 36.8944C77.2644 37.9252 76.318 38.4405 75.5122 38.9091C74.7625 39.3401 74.0129 39.7805 73.2726 40.2115C72.0732 40.9049 70.8832 41.5983 69.6838 42.2917C68.1846 43.1632 66.6947 44.0346 65.1954 44.8967C63.5463 45.8525 61.8971 46.8176 60.2385 47.7734C58.58 48.7385 56.9214 49.7037 55.2535 50.6688C53.7262 51.559 52.2082 52.4398 50.6808 53.33C49.4346 54.0515 48.1977 54.773 46.9514 55.4945C46.1362 55.963 45.321 56.4409 44.5058 56.9094C43.8873 57.2655 43.3064 57.6216 42.6036 57.8277C40.7764 58.3525 38.7524 58.1744 37.1032 57.2186C36.5129 56.8719 35.9132 56.5346 35.3229 56.1879C34.2359 55.5601 33.1583 54.9417 32.0714 54.3139C30.6471 53.4893 29.2228 52.6647 27.7985 51.8495C26.1774 50.9124 24.547 49.9754 22.9259 49.0384C21.2487 48.0732 19.5714 47.0987 17.8941 46.1336C16.3105 45.2153 14.7269 44.3064 13.134 43.3881L9.08599 41.0549C8.12085 40.4926 7.14634 39.9398 6.18119 39.3776C5.74079 39.1246 5.30038 38.8716 4.85998 38.6092C4.16658 38.2063 3.48254 37.5691 3.48254 36.707C3.48254 37.4941 3.48254 38.2812 3.47317 39.0777C3.47317 39.3588 3.45443 39.6493 3.47317 39.9398C3.52939 40.6988 4.12909 41.2891 4.75691 41.6639C5.14109 41.8982 5.53464 42.1137 5.92819 42.3386C6.94019 42.9195 7.95218 43.5099 8.96418 44.0908C10.4259 44.9342 11.8783 45.7775 13.3401 46.6208C15.0736 47.6234 16.8165 48.6261 18.55 49.6287C20.3585 50.6782 22.167 51.7183 23.9848 52.7677C25.7089 53.761 27.4237 54.7543 29.1478 55.7475C30.5815 56.5721 32.0058 57.3967 33.4394 58.2213C34.4046 58.7835 35.3791 59.3363 36.3442 59.8986C36.9065 60.2172 37.4593 60.5826 38.0684 60.8075C39.9705 61.5009 42.2007 61.351 43.9529 60.3296C44.6182 59.9454 45.2835 59.5519 45.9488 59.1677C47.1763 58.4555 48.4038 57.7434 49.622 57.0312C51.2243 56.1036 52.8173 55.1759 54.4196 54.2389C56.2093 53.1988 57.999 52.1587 59.7794 51.1186L65.1486 47.9983C66.7509 47.0612 68.3532 46.1336 69.9649 45.1965C71.2112 44.475 72.4574 43.7535 73.7037 43.0226C74.3877 42.6197 75.0811 42.2261 75.7652 41.8232C75.9713 41.7014 76.1868 41.5796 76.3836 41.439C76.9083 41.0455 77.3206 40.502 77.33 39.818C77.3394 39.4713 77.33 39.1339 77.33 38.7872C77.33 38.1032 77.33 37.4098 77.3394 36.7258C77.3768 36.8007 77.3675 36.8476 77.3675 36.8944C77.3675 36.8757 77.3581 36.9225 77.3675 36.8944Z" fill="#89FD7A"/>
<path d="M76.0274 34.8801C77.8078 35.9108 77.8172 37.5881 76.0462 38.6188L43.7842 57.3688C42.0132 58.3996 39.1178 58.3996 37.3374 57.3688L4.84115 38.6188C3.06079 37.5881 3.05142 35.9108 4.82241 34.8801L37.0938 16.1207C38.8648 15.09 41.7602 15.09 43.5405 16.1207L76.0274 34.8801Z" fill="#F2FFDD"/>
<path d="M53.5274 12.5412L52.1406 11.7354C52.15 11.7354 52.1687 11.7447 52.1781 11.7541L53.5649 12.5599C53.5555 12.5506 53.5368 12.5506 53.5274 12.5412Z" fill="#444444"/>
<path d="M53.5665 12.5598L52.1797 11.7539C52.2078 11.7633 52.2359 11.782 52.264 11.7914L53.6508 12.5972C53.6227 12.5879 53.5946 12.5691 53.5665 12.5598Z" fill="#424242"/>
<path d="M53.6524 12.5978L52.2656 11.792C52.2656 11.792 52.275 11.792 52.275 11.8014L53.6524 12.5978Z" fill="#404040"/>
<path d="M46.2464 9.92694L44.8596 9.12109L52.1404 11.7354L53.5272 12.5413L46.2464 9.92694ZM24.9008 43.1072L24.8634 28.9674L23.4766 28.1616L23.514 42.3014C23.514 42.9667 23.8045 43.4727 24.2449 43.7257L25.6317 44.5315C25.2007 44.2785 24.9102 43.7819 24.9008 43.1072Z" fill="#166636"/>
<path d="M36.5513 6.98439C36.9074 6.77824 37.2728 6.70328 37.5633 6.81573L43.1855 8.83035L43.1761 6.29099C43.1761 5.58822 43.6727 4.71678 44.2912 4.3607L45.2001 3.83597C45.8185 3.47989 46.3152 3.77037 46.3245 4.47315L46.3339 9.36445C46.3339 9.54249 46.3058 9.72989 46.2402 9.92667L53.5209 12.541C54.205 12.7846 54.3174 13.8903 53.7552 15.0054C53.4366 15.6332 52.9775 16.1298 52.5089 16.4016C52.1529 16.6077 51.7968 16.6827 51.4969 16.5702L48.311 15.427L48.3485 29.5669C48.3485 30.9162 47.1866 32.9402 46.0153 33.6148L27.2653 44.4469C26.094 45.1216 24.9134 44.4563 24.9134 43.107L24.8665 28.9671L21.6993 33.7835C21.3995 34.2333 21.0434 34.58 20.6873 34.7861C20.2188 35.0579 19.7597 35.086 19.4411 34.8236C18.8789 34.3551 18.9819 33.1369 19.666 32.0968L35.5393 7.98702C35.8298 7.53724 36.1952 7.19054 36.5513 6.98439Z" fill="#1CB15A"/>
<path d="M44.61 2.95582C44.5819 2.94645 44.5631 2.93708 44.5444 2.92771H44.535C44.5256 2.92771 44.5256 2.92771 44.5163 2.91834C44.5069 2.91834 44.4975 2.90897 44.4882 2.90897C44.4788 2.90897 44.4694 2.8996 44.46 2.8996C44.4507 2.8996 44.4507 2.8996 44.4413 2.89023H44.4319C44.4132 2.89023 44.3851 2.88086 44.3663 2.88086H44.2071C44.1977 2.88086 44.1883 2.88086 44.1789 2.89023C44.1602 2.89023 44.1508 2.8996 44.1321 2.8996C44.1227 2.8996 44.1133 2.8996 44.104 2.90897C44.0946 2.90897 44.0852 2.91834 44.0759 2.91834C44.0478 2.92771 44.0196 2.93708 44.0009 2.94645C43.9915 2.94645 43.9822 2.95582 43.9728 2.95582C43.9634 2.95582 43.9634 2.96519 43.9541 2.96519C43.9072 2.98393 43.8603 3.00267 43.8135 3.03078L42.9046 3.55552L42.7359 3.66797C42.7265 3.67734 42.7172 3.68671 42.7078 3.68671C42.6516 3.73356 42.6047 3.77104 42.5485 3.82726L42.5391 3.83663L42.511 3.86474C42.4829 3.89285 42.4642 3.92096 42.4361 3.93971L42.408 3.96782C42.3986 3.97719 42.3986 3.98656 42.3892 3.99593C42.3705 4.01467 42.3611 4.03341 42.3424 4.05215C42.333 4.06152 42.3236 4.07089 42.3142 4.08963C42.3049 4.099 42.2955 4.10837 42.2955 4.11774C42.2861 4.12711 42.2768 4.14585 42.2674 4.16459C42.258 4.17396 42.2487 4.18333 42.2487 4.1927C42.2393 4.21144 42.2299 4.23019 42.2112 4.24893C42.2018 4.2583 42.1924 4.26767 42.1924 4.27704L42.1831 4.28641C42.1643 4.31452 42.1456 4.352 42.1268 4.38011V4.38948C42.1268 4.39885 42.1175 4.39885 42.1175 4.40822C42.1081 4.42696 42.0894 4.45507 42.08 4.47381C42.0706 4.48318 42.0706 4.49255 42.0612 4.50192C42.0519 4.51129 42.0519 4.52066 42.0425 4.5394C42.0331 4.54878 42.0331 4.55815 42.0238 4.56752C42.0144 4.59563 42.005 4.61437 41.9863 4.64248C41.9863 4.65185 41.9769 4.65185 41.9769 4.66122V4.67059C41.9582 4.70807 41.9488 4.73618 41.9394 4.77366C41.9394 4.78303 41.9394 4.78303 41.9301 4.7924C41.9301 4.80177 41.9207 4.82051 41.9207 4.82989C41.9113 4.84863 41.9113 4.86737 41.902 4.88611C41.902 4.89548 41.8926 4.91422 41.8926 4.92359C41.8832 4.94233 41.8832 4.9517 41.8738 4.97044C41.8738 4.97981 41.8645 4.98918 41.8645 4.99855C41.8645 5.01729 41.8551 5.03603 41.8551 5.0454C41.8457 5.06414 41.8457 5.08288 41.8457 5.10162C41.8457 5.11099 41.8457 5.12037 41.8364 5.12037C41.8364 5.12974 41.8364 5.14848 41.827 5.15785C41.8176 5.18596 41.8176 5.21407 41.8082 5.24218V5.28903C41.7989 5.35462 41.7989 5.42021 41.7989 5.48581L41.8082 8.02516L36.1861 6.01055C36.1673 6.00117 36.1579 6.00117 36.1392 5.9918C36.1205 5.9918 36.1111 5.98243 36.0924 5.98243C36.083 5.98243 36.0736 5.97306 36.0642 5.97306H36.0549C36.0268 5.96369 35.9987 5.96369 35.9612 5.96369H35.8487H35.8394C35.8206 5.96369 35.8019 5.96369 35.7925 5.97306C35.7738 5.97306 35.755 5.97306 35.7363 5.98243H35.7269C35.6988 5.9918 35.6707 5.9918 35.6332 6.00117C35.6238 6.00117 35.6051 6.01055 35.5957 6.01055H35.5864L35.4177 6.06677C35.4083 6.06677 35.4083 6.06677 35.399 6.07614C35.3896 6.07614 35.3802 6.08551 35.3802 6.08551C35.3146 6.11362 35.2397 6.1511 35.1741 6.18858C35.1272 6.21669 35.0804 6.2448 35.0429 6.27291C35.0335 6.28228 35.0148 6.29165 35.0054 6.30102C34.9773 6.31976 34.9398 6.34788 34.9117 6.36662C34.893 6.37599 34.8742 6.39473 34.8555 6.41347C34.8274 6.43221 34.7993 6.46032 34.7711 6.47906L34.7149 6.53528C34.6868 6.55402 34.6681 6.58213 34.64 6.60087C34.64 6.60087 34.6306 6.61025 34.6306 6.61962C34.5837 6.66647 34.5369 6.71332 34.49 6.76954C34.4807 6.77891 34.4807 6.78828 34.4713 6.78828C34.4619 6.79765 34.4526 6.81639 34.4432 6.82576C34.4244 6.85387 34.3963 6.88198 34.3776 6.91009C34.3682 6.91947 34.3589 6.92884 34.3495 6.94758C34.3401 6.95695 34.3307 6.97569 34.3214 6.99443C34.3026 7.01317 34.2933 7.04128 34.2745 7.06002C34.2651 7.06939 34.2558 7.07876 34.2464 7.0975C34.2277 7.12561 34.1996 7.16309 34.1808 7.1912L18.27 31.2917C18.2606 31.3104 18.2513 31.3198 18.2419 31.3385L18.1576 31.4791C18.1576 31.4791 18.1576 31.4884 18.1482 31.4884C18.1388 31.4978 18.1388 31.5072 18.1295 31.5165C18.1107 31.554 18.092 31.5821 18.0732 31.6196L18.0451 31.6758C18.0358 31.6946 18.0264 31.7039 18.0264 31.7227C18.017 31.7321 18.017 31.7414 18.0076 31.7602C17.9889 31.807 17.9608 31.8539 17.9421 31.9007V31.9101C17.9421 31.9195 17.9327 31.9195 17.9327 31.9288C17.9139 31.9663 17.8952 32.0038 17.8858 32.0506C17.8765 32.06 17.8765 32.0788 17.8671 32.0881C17.8577 32.1069 17.8577 32.1256 17.8484 32.1444C17.839 32.1631 17.839 32.1818 17.8296 32.2006C17.8202 32.2287 17.8109 32.2474 17.8109 32.2755C17.8015 32.2943 17.8015 32.313 17.7921 32.3411C17.7921 32.3505 17.7828 32.3599 17.7828 32.3692C17.7734 32.3974 17.7734 32.4255 17.764 32.4536C17.7547 32.4817 17.7547 32.5098 17.7453 32.5379V32.5566C17.7453 32.5754 17.7359 32.5941 17.7359 32.6129C17.7265 32.6597 17.7172 32.7066 17.7078 32.7628C17.7078 32.7722 17.7078 32.7815 17.6984 32.7909C17.6984 32.8096 17.6984 32.8284 17.6891 32.8471C17.6891 32.8846 17.6797 32.9221 17.6797 32.9596V33.2313C17.6797 33.2688 17.6891 33.2969 17.6891 33.325C17.6891 33.3531 17.6984 33.3719 17.6984 33.4C17.7078 33.4281 17.7078 33.4656 17.7172 33.4937C17.7265 33.5218 17.7265 33.5405 17.7359 33.5593L17.764 33.6436C17.7734 33.6623 17.7828 33.6905 17.7828 33.7092C17.7921 33.7373 17.8109 33.7654 17.8202 33.7935L17.8484 33.8497C17.8671 33.8779 17.8858 33.906 17.9046 33.9247C17.9139 33.9341 17.9233 33.9528 17.9327 33.9622C17.9608 33.9997 17.9983 34.0372 18.0358 34.0653C18.0732 34.0934 18.1014 34.1215 18.1388 34.1402L19.5256 34.9461C19.4882 34.9273 19.4507 34.8992 19.4226 34.8711C19.3851 34.843 19.357 34.8055 19.3195 34.768C19.3101 34.7587 19.3008 34.7399 19.2914 34.7306C19.2726 34.7024 19.2539 34.6837 19.2352 34.6556L19.2071 34.5994C19.1977 34.5713 19.1789 34.5431 19.1696 34.515C19.1602 34.4963 19.1508 34.4776 19.1508 34.4494L19.1227 34.3651C19.1133 34.3464 19.1133 34.3183 19.104 34.2995C19.0946 34.2714 19.0946 34.2433 19.0852 34.2058C19.0852 34.1777 19.0759 34.159 19.0759 34.1309C19.0759 34.1027 19.0665 34.0653 19.0665 34.0372V33.9528V33.8497V33.7654C19.0665 33.7279 19.0759 33.6904 19.0759 33.653C19.0759 33.6249 19.0852 33.5968 19.0852 33.5686C19.0946 33.5218 19.104 33.4749 19.1133 33.4187C19.1133 33.4 19.1227 33.3719 19.1227 33.3531C19.1321 33.325 19.1321 33.2969 19.1415 33.2688L19.1696 33.1563C19.1789 33.1376 19.1789 33.1189 19.1883 33.0907C19.1977 33.0439 19.2164 33.0064 19.2258 32.9596C19.2352 32.9408 19.2352 32.9221 19.2445 32.9033C19.2633 32.8471 19.282 32.8003 19.3101 32.7441C19.3101 32.7347 19.3195 32.7347 19.3195 32.7253C19.3476 32.6691 19.3757 32.6035 19.4038 32.5473C19.4132 32.5285 19.4226 32.5192 19.4226 32.5004C19.4507 32.4442 19.4788 32.3973 19.5069 32.3411C19.5163 32.3318 19.5163 32.3224 19.5163 32.313C19.5538 32.2474 19.5912 32.1818 19.6381 32.1256L35.5114 8.01579C35.5395 7.96894 35.5676 7.93146 35.6051 7.88461C35.6238 7.86587 35.6332 7.83776 35.652 7.81901C35.6707 7.7909 35.6894 7.76279 35.7082 7.74405C35.7269 7.71594 35.755 7.68783 35.7738 7.65972C35.7925 7.64098 35.8112 7.62224 35.83 7.59413C35.8768 7.53791 35.9237 7.49105 35.9705 7.4442L35.9893 7.42546C36.0174 7.39735 36.0361 7.37861 36.0642 7.35987L36.1205 7.30365C36.1486 7.28491 36.1767 7.2568 36.1954 7.23806C36.2142 7.21932 36.2329 7.20994 36.2517 7.1912C36.2798 7.17246 36.3079 7.14435 36.3454 7.12561C36.3641 7.11624 36.3735 7.10687 36.3922 7.0975C36.4391 7.06939 36.4859 7.04128 36.5234 7.01317C36.589 6.97569 36.6639 6.93821 36.7295 6.91009C36.7389 6.90072 36.7577 6.90072 36.767 6.89135L36.9357 6.83513C36.9544 6.83513 36.9638 6.82576 36.9825 6.82576C37.0106 6.81639 37.0388 6.80702 37.0762 6.80702C37.1044 6.80702 37.1231 6.79765 37.1512 6.79765C37.1699 6.79765 37.1887 6.79765 37.1981 6.78828H37.3199C37.3573 6.78828 37.3855 6.79765 37.4229 6.79765C37.4323 6.79765 37.4417 6.80702 37.4511 6.80702C37.4792 6.81639 37.5166 6.82576 37.5448 6.83513L43.1669 8.84975L43.1576 6.3104C43.1576 6.2448 43.1669 6.17921 43.1669 6.11362C43.1669 6.09488 43.1669 6.08551 43.1763 6.06677C43.1763 6.03866 43.1857 6.01055 43.1951 5.98243C43.1951 5.96369 43.2044 5.94495 43.2044 5.91684C43.2044 5.8981 43.2138 5.87936 43.2138 5.86062C43.2232 5.83251 43.2232 5.8044 43.2325 5.77629C43.2325 5.75755 43.2419 5.74818 43.2513 5.72944C43.2607 5.70132 43.27 5.67321 43.2794 5.63573C43.2794 5.62636 43.2888 5.60762 43.2888 5.59825C43.3075 5.56077 43.3169 5.51392 43.3356 5.47644C43.3356 5.46707 43.345 5.46707 43.345 5.4577C43.3637 5.42021 43.3731 5.38273 43.3918 5.35462C43.4012 5.34525 43.4012 5.33588 43.4106 5.31714C43.4293 5.27966 43.4481 5.25155 43.4668 5.21407C43.4668 5.2047 43.4762 5.2047 43.4762 5.19533C43.4949 5.15785 43.523 5.12036 43.5511 5.08288C43.5605 5.07351 43.5699 5.06414 43.5699 5.05477L43.6261 4.97044C43.6355 4.9517 43.6448 4.94233 43.6542 4.92359C43.6729 4.90485 43.6917 4.87674 43.7011 4.858C43.7198 4.83926 43.7292 4.82051 43.7479 4.80177C43.7573 4.78303 43.776 4.77366 43.7948 4.75492C43.8229 4.72681 43.8416 4.6987 43.8697 4.67996L43.9072 4.64248C43.9541 4.59563 44.0103 4.54878 44.0665 4.50192C44.0759 4.49255 44.0852 4.48318 44.0946 4.48318C44.1508 4.43633 44.2071 4.39885 44.2633 4.37074L45.1722 3.846C45.219 3.81789 45.2659 3.79915 45.3127 3.78041C45.3315 3.77104 45.3409 3.77104 45.3596 3.76167C45.3877 3.7523 45.4158 3.74293 45.4346 3.73356C45.4533 3.72419 45.472 3.72419 45.4814 3.72419C45.5002 3.72419 45.5095 3.71482 45.5283 3.71482C45.547 3.71482 45.5657 3.70545 45.5845 3.70545H45.7157C45.7438 3.70545 45.7719 3.71482 45.8 3.71482C45.8094 3.71482 45.8094 3.71482 45.8187 3.72419C45.8375 3.73356 45.8562 3.73356 45.8843 3.74293C45.8937 3.74293 45.8937 3.74293 45.9031 3.7523C45.9312 3.76167 45.9499 3.77104 45.978 3.78978L44.61 2.95582Z" fill="#EDF3F1"/>
<path d="M37.0914 24.6667C38.3845 23.9171 39.4434 24.5168 39.4434 26.0067L39.4715 35.049L32.4344 39.1157L32.4062 30.0734C32.4062 28.5835 33.4464 26.775 34.7395 26.0254L37.0914 24.6667Z" fill="#28CE2E"/>
<path d="M39.1353 25.9037C39.2009 25.8756 39.2759 25.8475 39.3414 25.8194H39.3508C39.407 25.8006 39.4633 25.7819 39.5195 25.7725C39.5476 25.7632 39.5851 25.7538 39.6132 25.7538C39.6507 25.7444 39.6975 25.735 39.735 25.735C39.7631 25.735 39.7819 25.7257 39.8006 25.7257H39.988C40.0442 25.7257 40.1098 25.735 40.166 25.7444C40.1754 25.7444 40.1941 25.7538 40.2035 25.7538C40.2504 25.7632 40.2878 25.7725 40.3347 25.7913C40.3441 25.7913 40.3628 25.8006 40.3722 25.8006C40.4284 25.8194 40.4753 25.8475 40.5221 25.8756L39.5101 25.2853L39.5007 25.2759C39.4633 25.2572 39.4258 25.2384 39.3789 25.2197C39.3696 25.2197 39.3602 25.2103 39.3602 25.2103C39.3508 25.2009 39.3321 25.2009 39.3227 25.2009C39.304 25.1916 39.2852 25.1822 39.2571 25.1822C39.2384 25.1728 39.2103 25.1728 39.1915 25.1635C39.1822 25.1635 39.1634 25.1541 39.154 25.1541C39.1447 25.1541 39.1353 25.1541 39.1353 25.1447C39.0884 25.1353 39.0416 25.1353 38.9947 25.126H38.798C38.7792 25.126 38.7511 25.126 38.723 25.1353C38.7043 25.1353 38.6762 25.1353 38.6574 25.1447C38.6387 25.1447 38.6199 25.1541 38.6012 25.1541C38.5731 25.1635 38.5356 25.1635 38.5075 25.1728C38.4887 25.1728 38.47 25.1822 38.4513 25.1822C38.4138 25.1916 38.3763 25.2009 38.3295 25.2197H38.3201L38.1795 25.2759L38.1233 25.304L38.0671 25.3321C37.9921 25.3696 37.9265 25.3977 37.8516 25.4446L35.509 26.8033L35.2841 26.9438C35.256 26.9626 35.2372 26.9813 35.2091 26.9907C35.1623 27.0281 35.1061 27.0656 35.0592 27.1031C35.0311 27.1219 35.003 27.15 34.9749 27.1687C34.928 27.2062 34.8812 27.2437 34.8437 27.2811C34.8156 27.3093 34.7875 27.328 34.7687 27.3561C34.75 27.3749 34.7313 27.3842 34.7219 27.403C34.7031 27.4217 34.6844 27.4404 34.675 27.4592C34.6188 27.5154 34.572 27.5716 34.5157 27.6278C34.497 27.6466 34.4783 27.6653 34.4689 27.6841C34.4595 27.7028 34.4408 27.7122 34.4314 27.7309C34.4033 27.7684 34.3752 27.8059 34.3377 27.8434C34.319 27.8715 34.3002 27.8902 34.2815 27.9183C34.2627 27.9371 34.2534 27.9558 34.2346 27.9839C34.2159 28.012 34.1878 28.0401 34.169 28.0683C34.1503 28.087 34.1409 28.1057 34.1222 28.1338C34.0941 28.1713 34.0753 28.2088 34.0472 28.2369C34.0285 28.2557 34.0191 28.2838 34.0004 28.3025C33.991 28.3119 33.991 28.3213 33.9816 28.3306C33.9441 28.3962 33.8973 28.4618 33.8598 28.5274L33.8504 28.5368C33.8411 28.5461 33.8317 28.5649 33.8317 28.5743L33.7474 28.7148C33.738 28.7335 33.7286 28.7617 33.7099 28.7804C33.7005 28.7991 33.6818 28.8272 33.6724 28.8554C33.663 28.8741 33.6537 28.8928 33.6443 28.921C33.6162 28.9772 33.5974 29.0334 33.5693 29.0896C33.5693 29.099 33.56 29.1084 33.56 29.1177V29.1271C33.5319 29.1927 33.5037 29.2677 33.4756 29.3332C33.4663 29.3426 33.4663 29.3614 33.4663 29.3707C33.4569 29.3988 33.4475 29.4176 33.4381 29.4457C33.4288 29.4832 33.41 29.5113 33.4007 29.5488L33.3726 29.6331C33.3632 29.6612 33.3538 29.6987 33.3444 29.7268C33.3351 29.7455 33.3351 29.7643 33.3257 29.783C33.3163 29.8205 33.307 29.858 33.2976 29.8861C33.2882 29.9236 33.2789 29.9704 33.2695 30.0079C33.2695 30.0173 33.2601 30.036 33.2601 30.0454C33.2507 30.0735 33.2507 30.1016 33.2414 30.1297C33.232 30.1953 33.2226 30.2515 33.2133 30.3171C33.2133 30.3359 33.2039 30.3546 33.2039 30.3734C33.1945 30.4108 33.1945 30.4483 33.1945 30.4858C33.1945 30.5139 33.1851 30.542 33.1851 30.5701C33.1758 30.6545 33.1758 30.7482 33.1758 30.8325L33.2039 39.8749L34.2159 40.4652L34.1878 31.4228C34.1878 31.3385 34.1878 31.2542 34.1971 31.1605C34.1971 31.1323 34.2065 31.1042 34.2065 31.0761C34.2159 31.0199 34.2159 30.9637 34.2253 30.9075C34.2346 30.8419 34.244 30.7856 34.2534 30.7201C34.2627 30.6732 34.2721 30.6357 34.2815 30.5889C34.2908 30.5514 34.3002 30.5045 34.3096 30.4671C34.3283 30.4108 34.3377 30.3546 34.3564 30.2984C34.3658 30.2703 34.3752 30.2328 34.3846 30.2047C34.4033 30.1391 34.422 30.0829 34.4501 30.0173C34.4595 29.9892 34.4689 29.9611 34.4783 29.9423C34.5064 29.858 34.5438 29.7737 34.5813 29.6893C34.5813 29.6799 34.5907 29.6706 34.5907 29.6612C34.6282 29.5862 34.6563 29.5113 34.6938 29.4363C34.7031 29.4082 34.7219 29.3895 34.7313 29.3614C34.7687 29.2864 34.8062 29.2208 34.8437 29.1458C34.8531 29.1365 34.8624 29.1177 34.8624 29.1084C34.9093 29.024 34.9561 28.9491 35.0124 28.8647C35.0311 28.846 35.0405 28.8179 35.0592 28.7991L35.1717 28.6305C35.1904 28.6024 35.2185 28.5743 35.2373 28.5461C35.2747 28.4993 35.3028 28.4524 35.3403 28.415C35.3684 28.3775 35.3965 28.34 35.434 28.3025C35.4621 28.265 35.4902 28.2369 35.5277 28.1994C35.5746 28.1432 35.6308 28.087 35.687 28.0308L35.7901 27.9277C35.8182 27.8996 35.8463 27.8808 35.8651 27.8527C35.9119 27.8153 35.9494 27.7778 35.9962 27.7403C36.0244 27.7216 36.0525 27.6934 36.0806 27.6747C36.1274 27.6372 36.1743 27.5997 36.2305 27.5623C36.2586 27.5435 36.2774 27.5248 36.3055 27.5154C36.3804 27.4686 36.4554 27.4123 36.5304 27.3749L38.8729 26.0162C38.9479 25.9787 39.0135 25.9412 39.0884 25.9037C39.0978 25.9225 39.1166 25.9131 39.1353 25.9037Z" fill="#ACC5EA"/>
<path d="M38.8648 26.0349C40.1579 25.2852 41.2168 25.8849 41.2168 27.3748L41.2449 36.4172L34.2078 40.4839L34.1797 31.4415C34.1797 29.9517 35.2198 28.1432 36.5129 27.3936L38.8648 26.0349Z" fill="white"/>
<path d="M57.1735 34.9271L55.6836 34.0557L59.1693 36.0422L60.6592 36.9042L57.1735 34.9271Z" fill="#9E7F1D"/>
<path d="M46.9801 41.2799C46.952 41.2518 46.9239 41.2331 46.8958 41.2049L46.7552 41.0644L46.6802 40.9894L46.5397 40.8208C46.5209 40.802 46.5022 40.7739 46.4835 40.7552C46.4272 40.6708 46.3616 40.5959 46.3148 40.5022C46.3054 40.4834 46.2961 40.4741 46.2867 40.4553C46.2398 40.3804 46.2024 40.3054 46.1649 40.2304C46.1461 40.2023 46.1368 40.1648 46.118 40.1367L46.0337 39.94C46.0149 39.9025 46.0056 39.865 45.9868 39.8275C45.9587 39.7619 45.94 39.6963 45.9119 39.6214C45.9025 39.5839 45.8838 39.5464 45.8744 39.5089C45.8463 39.4246 45.8275 39.3403 45.7994 39.2559C45.7901 39.2278 45.7901 39.2091 45.7807 39.181C45.7526 39.0685 45.7245 38.9561 45.7057 38.8436C45.6964 38.8155 45.6964 38.7874 45.687 38.7499C45.6682 38.6656 45.6589 38.5719 45.6495 38.4876C45.6401 38.4407 45.6401 38.4032 45.6308 38.3564C45.6214 38.272 45.612 38.1971 45.612 38.1127C45.612 38.0659 45.6027 38.019 45.6027 37.9722C45.5933 37.8879 45.5933 37.8035 45.5933 37.7098V37.5786V37.2319V37.1851C45.6027 37.0539 45.6027 36.9133 45.6214 36.7822C45.6214 36.7447 45.6308 36.6978 45.6308 36.6603C45.6401 36.5666 45.6495 36.4636 45.6589 36.3699C45.6682 36.3136 45.6682 36.2668 45.6776 36.2106C45.687 36.1262 45.7057 36.0419 45.7151 35.9576C45.7245 35.9014 45.7338 35.8545 45.7432 35.7983C45.7619 35.7139 45.7807 35.6202 45.7901 35.5265C45.7994 35.4703 45.8088 35.4235 45.8275 35.3672C45.8369 35.311 45.8556 35.2548 45.865 35.2079C45.8838 35.133 45.9025 35.0674 45.9119 34.9924C45.9306 34.9362 45.94 34.88 45.9587 34.8238C45.9775 34.7675 45.9868 34.702 46.0056 34.6457L46.1742 34.0835C46.1836 34.046 46.2024 34.0085 46.2117 33.9711C46.2586 33.8211 46.3148 33.6806 46.371 33.5307C46.3898 33.4932 46.3991 33.4463 46.4179 33.4088C46.4835 33.2402 46.5491 33.0809 46.624 32.9122C46.6334 32.8841 46.6521 32.856 46.6615 32.8279C46.7177 32.6967 46.7833 32.5561 46.8489 32.425C46.877 32.3781 46.8958 32.3219 46.9239 32.275C46.9801 32.1532 47.0457 32.022 47.1113 31.9002C47.13 31.8627 47.1488 31.8159 47.1769 31.7784C47.2518 31.6285 47.3362 31.4786 47.4205 31.338C47.4486 31.2912 47.4767 31.2443 47.5048 31.2068C47.5798 31.0756 47.6641 30.9445 47.7391 30.8133C47.7672 30.7664 47.7953 30.7196 47.8234 30.6821C47.9265 30.5134 48.0389 30.3541 48.1514 30.1948C48.2732 30.0262 48.395 29.8575 48.5262 29.6888C48.5637 29.642 48.5918 29.6045 48.6293 29.5576L48.7417 29.4171C48.7886 29.3609 48.8354 29.2953 48.8916 29.2391C48.9291 29.1922 48.9666 29.1454 49.0134 29.0985C49.0603 29.0516 49.0978 28.9954 49.1446 28.9486C49.2102 28.8736 49.2852 28.7987 49.3508 28.7237C49.3883 28.6862 49.4257 28.6394 49.4632 28.6019C49.5382 28.5175 49.6225 28.4426 49.6975 28.3582L49.7818 28.2739L49.8755 28.1802C49.9317 28.124 49.9973 28.0678 50.0535 28.0115C50.091 27.9741 50.1285 27.946 50.166 27.9085C50.2222 27.8616 50.2784 27.8054 50.3347 27.7585C50.3721 27.7211 50.4096 27.693 50.4471 27.6555L50.6158 27.5149C50.6532 27.4868 50.6907 27.4493 50.7376 27.4212C50.7938 27.3744 50.85 27.3369 50.9063 27.29C50.9437 27.2619 50.9812 27.2338 51.0281 27.2057C51.0843 27.1588 51.1405 27.1214 51.2061 27.0839C51.2436 27.0558 51.2811 27.0277 51.3185 27.0089C51.3841 26.9621 51.4497 26.9246 51.5153 26.8777C51.5434 26.859 51.5809 26.8403 51.609 26.8121C51.7027 26.7559 51.7964 26.6903 51.8995 26.6341C52.0307 26.5591 52.1619 26.4842 52.2931 26.4186C52.3305 26.3998 52.3586 26.3811 52.3961 26.3717C52.5179 26.3155 52.6398 26.2499 52.7709 26.2031C52.7803 26.2031 52.7897 26.1937 52.7991 26.1937C52.9115 26.1469 53.0239 26.1 53.1364 26.0625C53.1739 26.0531 53.202 26.0438 53.2395 26.0344C53.3238 26.0063 53.3988 25.9782 53.4831 25.9594C53.5299 25.9501 53.5768 25.9313 53.6236 25.922C53.6705 25.9126 53.7173 25.9032 53.7548 25.8939C53.8017 25.8845 53.8579 25.8751 53.9048 25.8657C53.9516 25.8564 53.9891 25.847 54.0359 25.8376C54.0922 25.8283 54.1578 25.8189 54.214 25.8095C54.2421 25.8095 54.2702 25.8001 54.2983 25.8001C54.3826 25.7908 54.467 25.7814 54.5513 25.7814H54.8886C54.9355 25.7814 54.9823 25.7908 55.0292 25.7908C55.1323 25.8002 55.226 25.8095 55.3197 25.8283C55.3384 25.8283 55.3478 25.8283 55.3665 25.8376C55.4696 25.8564 55.5727 25.8845 55.6757 25.9126L55.7601 25.9407C55.835 25.9688 55.91 25.9876 55.985 26.0157C56.0131 26.025 56.0412 26.0438 56.0787 26.0531C56.163 26.0906 56.2473 26.1281 56.3317 26.175C56.341 26.1843 56.3598 26.1843 56.3691 26.1937L54.8793 25.3316L54.8699 25.3223C54.8605 25.3129 54.8512 25.3129 54.8418 25.3129C54.7575 25.266 54.6731 25.2286 54.5888 25.1911C54.5794 25.1817 54.5607 25.1817 54.5513 25.1723C54.5326 25.163 54.5138 25.163 54.4951 25.1536C54.4201 25.1255 54.3452 25.0974 54.2702 25.0786C54.2515 25.0693 54.2327 25.0693 54.214 25.0599C54.2046 25.0599 54.1952 25.0599 54.1859 25.0505C54.0828 25.0224 53.9797 24.9943 53.8766 24.9756H53.8298C53.7361 24.9568 53.633 24.9475 53.5393 24.9381C53.5206 24.9381 53.5112 24.9381 53.4925 24.9287H53.0708H53.0614C52.9771 24.9287 52.8928 24.9381 52.8084 24.9475C52.7803 24.9475 52.7522 24.9568 52.7241 24.9568C52.6866 24.9662 52.6398 24.9662 52.6023 24.9756C52.5835 24.9756 52.5648 24.9849 52.5461 24.9849C52.4992 24.9943 52.4617 25.0037 52.4149 25.013C52.368 25.0224 52.3118 25.0318 52.2649 25.0412C52.2181 25.0505 52.1806 25.0599 52.1338 25.0693C52.1056 25.0786 52.0775 25.0786 52.0494 25.088C52.0307 25.0974 52.0119 25.0974 51.9932 25.1067C51.9089 25.1255 51.8339 25.1536 51.7496 25.1817C51.7121 25.1911 51.684 25.2005 51.6465 25.2098C51.5341 25.2473 51.4216 25.2942 51.3092 25.341H51.2998C51.2904 25.341 51.2811 25.3504 51.2811 25.3504C51.1593 25.3972 51.0374 25.4628 50.9156 25.519C50.8781 25.5378 50.85 25.5565 50.8125 25.5659C50.6814 25.6315 50.5502 25.7064 50.419 25.7814C50.3253 25.8376 50.2316 25.8939 50.1285 25.9594C50.1004 25.9782 50.0629 25.9969 50.0348 26.025C49.9692 26.0625 49.9036 26.1094 49.838 26.1562C49.8006 26.1843 49.7631 26.2124 49.7256 26.2312C49.6694 26.2687 49.6038 26.3155 49.5476 26.353L49.4351 26.4373C49.3789 26.4842 49.3227 26.5217 49.2664 26.5685C49.229 26.5966 49.1915 26.6341 49.1446 26.6622L48.976 26.8028C48.9385 26.8309 48.901 26.8684 48.8635 26.9058C48.8073 26.9527 48.7511 27.0089 48.6949 27.0558C48.6574 27.0933 48.6199 27.1214 48.5824 27.1588C48.5262 27.2151 48.4606 27.2713 48.4044 27.3275C48.3763 27.3556 48.3388 27.3837 48.3107 27.4212L48.2919 27.44C48.2732 27.4587 48.2451 27.4868 48.2263 27.5149C48.1514 27.5899 48.067 27.6742 47.9921 27.7585C47.9546 27.796 47.9171 27.8429 47.8796 27.8804C47.814 27.9553 47.7391 28.0303 47.6735 28.1052C47.6548 28.1334 47.6266 28.1521 47.6079 28.1708C47.5892 28.199 47.561 28.2271 47.5423 28.2458L47.4299 28.3864C47.383 28.4426 47.3362 28.5082 47.2799 28.5644L47.1675 28.7049C47.1488 28.7331 47.13 28.7518 47.1113 28.7799C47.0925 28.7987 47.0832 28.8174 47.0644 28.8361C46.9426 29.0048 46.8114 29.1641 46.6896 29.3421C46.5772 29.5014 46.4741 29.6607 46.371 29.82C46.3616 29.8388 46.3429 29.8575 46.3335 29.8762C46.3148 29.9043 46.3054 29.9231 46.2867 29.9512C46.2023 30.0824 46.1274 30.2136 46.0524 30.3448C46.0337 30.3729 46.0243 30.3916 46.0056 30.4197C45.9962 30.4385 45.9775 30.4572 45.9681 30.4759C45.8838 30.6259 45.7994 30.7664 45.7245 30.9163C45.7151 30.9257 45.7151 30.9351 45.7057 30.9538C45.687 30.9819 45.6776 31.01 45.6589 31.0382C45.5933 31.16 45.5277 31.2912 45.4715 31.413C45.4621 31.4411 45.4434 31.4692 45.434 31.4879C45.4246 31.516 45.4152 31.5348 45.3965 31.5629C45.3309 31.6941 45.2747 31.8346 45.2091 31.9658C45.1997 31.9846 45.1904 32.0127 45.181 32.0314C45.181 32.0408 45.1716 32.0408 45.1716 32.0501C45.0967 32.2188 45.0311 32.3875 44.9655 32.5468C44.9561 32.5655 44.9561 32.5749 44.9467 32.5936C44.9374 32.6217 44.928 32.6498 44.9186 32.6686C44.8624 32.8185 44.8062 32.9591 44.7593 33.109C44.75 33.1371 44.7406 33.1558 44.7312 33.184C44.7312 33.1933 44.7218 33.2027 44.7218 33.2121C44.6563 33.3995 44.6 33.5869 44.5532 33.7743C44.5438 33.793 44.5438 33.8118 44.5344 33.8211C44.5251 33.868 44.5157 33.9055 44.497 33.9523C44.4782 34.0085 44.4688 34.0648 44.4501 34.121C44.4314 34.1959 44.4126 34.2615 44.4033 34.3365C44.3939 34.3927 44.3751 34.449 44.3658 34.5052C44.3658 34.5239 44.3564 34.5427 44.3564 34.5614C44.347 34.5989 44.347 34.6364 44.3377 34.6645C44.3189 34.7582 44.3002 34.8425 44.2908 34.9362C44.2814 34.9924 44.2721 35.0393 44.2627 35.0955C44.2533 35.1798 44.2346 35.2642 44.2252 35.3485C44.2252 35.3766 44.2158 35.4141 44.2158 35.4422C44.2158 35.4609 44.2158 35.4797 44.2065 35.5078C44.1971 35.6015 44.1877 35.7046 44.1784 35.7983C44.1784 35.8358 44.169 35.8826 44.169 35.9201C44.1596 36.0513 44.1503 36.1918 44.1409 36.323V36.3605C44.1409 36.4823 44.1315 36.5948 44.1409 36.7166V36.8384C44.1409 36.9227 44.1503 37.0164 44.1503 37.1008C44.1503 37.1476 44.1596 37.1945 44.1596 37.2413C44.169 37.3256 44.169 37.4006 44.1784 37.4849C44.1877 37.5318 44.1877 37.5693 44.1971 37.6161C44.2065 37.7098 44.2252 37.7942 44.2346 37.8785C44.244 37.9066 44.244 37.9441 44.2533 37.9722C44.2721 38.0846 44.3002 38.1971 44.3283 38.3095C44.3377 38.3376 44.3377 38.3564 44.347 38.3845C44.3658 38.4688 44.3939 38.5531 44.422 38.6375C44.4314 38.675 44.4501 38.7124 44.4595 38.7499C44.4876 38.8155 44.5063 38.8905 44.5344 38.9561C44.5532 38.9936 44.5625 39.031 44.5813 39.0685L44.6656 39.2653C44.6844 39.2934 44.6937 39.3309 44.7125 39.359C44.75 39.434 44.7968 39.5089 44.8343 39.5839C44.8437 39.6026 44.853 39.612 44.8624 39.6307L45.0311 39.8837C45.0498 39.9025 45.0685 39.9306 45.0873 39.9493L45.2278 40.118C45.2559 40.1461 45.2747 40.1742 45.3028 40.193L45.4434 40.3335C45.4715 40.3616 45.4996 40.3804 45.5277 40.4085C45.5745 40.4553 45.6308 40.4928 45.687 40.5397C45.7151 40.5584 45.7338 40.5771 45.7619 40.5959C45.8463 40.6521 45.9212 40.7083 46.0149 40.7552L47.5048 41.6172C47.4205 41.5704 47.3362 41.5142 47.2518 41.4579C47.2237 41.4392 47.205 41.4205 47.1769 41.4017C47.0925 41.3642 47.0363 41.3268 46.9801 41.2799Z" fill="#4CC620"/>
<path d="M51.9 26.6619C53.5117 25.7249 55.1328 25.5 56.3696 26.2122C58.5436 27.449 58.8153 31.1503 57.1755 34.9266L60.6612 36.9131C61.1391 37.1848 61.1391 38.0844 60.6706 38.9089C60.4364 39.3212 60.1178 39.6398 59.8086 39.8179C59.4993 39.9959 59.1807 40.0427 58.9371 39.9116L55.4514 37.9251C54.3925 39.3493 53.165 40.4738 51.9375 41.1766C50.3258 42.1136 48.7047 42.3291 47.4678 41.6263C44.9941 40.2208 44.9847 35.62 47.4397 31.3658C48.6672 29.2388 50.2789 27.5896 51.9 26.6619Z" fill="#067200"/>
<path d="M51.9153 28.6587C53.1147 27.9653 54.3234 27.7966 55.2417 28.3213C57.0877 29.3708 57.097 32.791 55.2605 35.9581C54.3422 37.5417 53.1428 38.7692 51.9434 39.4626C50.744 40.156 49.5352 40.3247 48.6169 39.8C46.771 38.7505 46.7616 35.3303 48.5982 32.1632C49.5071 30.5702 50.7159 29.3521 51.9153 28.6587Z" fill="white"/>
<path d="M52.5169 28.9483C52.6668 28.864 52.8167 28.8359 52.9292 28.9015C53.1634 29.0327 53.1634 29.4637 52.9292 29.8572C52.8167 30.054 52.6668 30.2133 52.5169 30.2977C52.367 30.382 52.217 30.4101 52.1046 30.3445C51.8703 30.2133 51.8703 29.7823 52.1046 29.3887C52.217 29.1826 52.367 29.0327 52.5169 28.9483ZM52.9573 31.2347C53.0416 31.1878 53.1353 31.1691 53.2009 31.2066C53.3321 31.2815 53.3321 31.5345 53.2009 31.7594L52.4045 33.1369L53.1447 32.7152C53.3321 32.6027 53.4914 32.6965 53.4914 32.912C53.4914 33.1275 53.3415 33.3899 53.1541 33.5023L52.2733 34.0083V34.533L53.1541 34.027C53.3415 33.9146 53.5008 34.0083 53.5008 34.2238C53.5008 34.4393 53.3509 34.7017 53.1634 34.8141L52.2826 35.3201V36.0135C52.2826 36.2291 52.1327 36.4914 51.9453 36.6039C51.7579 36.7163 51.608 36.6226 51.608 36.4071V35.7137L50.7272 36.2197C50.5398 36.3321 50.3898 36.2384 50.3805 36.0229C50.3805 35.8074 50.5304 35.545 50.7178 35.4326L51.5986 34.9266V34.4018L50.7178 34.9078C50.5304 35.0203 50.3805 34.9266 50.3711 34.7111C50.3711 34.4956 50.521 34.2332 50.7084 34.1207L51.4487 33.6991L50.6522 33.2399C50.521 33.165 50.521 32.912 50.6522 32.6871C50.7178 32.5746 50.8021 32.4809 50.8958 32.4341C50.9802 32.3872 51.0739 32.3685 51.1395 32.406L51.9359 32.8557L52.7324 31.4877C52.7886 31.3752 52.873 31.2815 52.9573 31.2347Z" fill="#FFCD2E"/>
</svg>
