<svg width="28" height="28" viewBox="0 0 28 28" fill="none" xmlns="http://www.w3.org/2000/svg">
<g clip-path="url(#clip0_1262_23479)">
<path d="M16.625 10.5H11.375C11.1429 10.5 10.9204 10.5922 10.7563 10.7563C10.5922 10.9204 10.5 11.1429 10.5 11.375V16.625C10.5 16.8571 10.5922 17.0796 10.7563 17.2437C10.9204 17.4078 11.1429 17.5 11.375 17.5H16.625C16.8571 17.5 17.0796 17.4078 17.2437 17.2437C17.4078 17.0796 17.5 16.8571 17.5 16.625V11.375C17.5 11.1429 17.4078 10.9204 17.2437 10.7563C17.0796 10.5922 16.8571 10.5 16.625 10.5ZM15.75 15.75H12.25V12.25H15.75V15.75ZM25.375 15.75H23.625V12.25H25.375C25.6071 12.25 25.8296 12.1578 25.9937 11.9937C26.1578 11.8296 26.25 11.6071 26.25 11.375C26.25 11.1429 26.1578 10.9204 25.9937 10.7563C25.8296 10.5922 25.6071 10.5 25.375 10.5H23.625V6.125C23.625 5.66087 23.4406 5.21575 23.1124 4.88756C22.7842 4.55937 22.3391 4.375 21.875 4.375H17.5V2.625C17.5 2.39294 17.4078 2.17038 17.2437 2.00628C17.0796 1.84219 16.8571 1.75 16.625 1.75C16.3929 1.75 16.1704 1.84219 16.0063 2.00628C15.8422 2.17038 15.75 2.39294 15.75 2.625V4.375H12.25V2.625C12.25 2.39294 12.1578 2.17038 11.9937 2.00628C11.8296 1.84219 11.6071 1.75 11.375 1.75C11.1429 1.75 10.9204 1.84219 10.7563 2.00628C10.5922 2.17038 10.5 2.39294 10.5 2.625V4.375H6.125C5.66087 4.375 5.21575 4.55937 4.88756 4.88756C4.55937 5.21575 4.375 5.66087 4.375 6.125V10.5H2.625C2.39294 10.5 2.17038 10.5922 2.00628 10.7563C1.84219 10.9204 1.75 11.1429 1.75 11.375C1.75 11.6071 1.84219 11.8296 2.00628 11.9937C2.17038 12.1578 2.39294 12.25 2.625 12.25H4.375V15.75H2.625C2.39294 15.75 2.17038 15.8422 2.00628 16.0063C1.84219 16.1704 1.75 16.3929 1.75 16.625C1.75 16.8571 1.84219 17.0796 2.00628 17.2437C2.17038 17.4078 2.39294 17.5 2.625 17.5H4.375V21.875C4.375 22.3391 4.55937 22.7842 4.88756 23.1124C5.21575 23.4406 5.66087 23.625 6.125 23.625H10.5V25.375C10.5 25.6071 10.5922 25.8296 10.7563 25.9937C10.9204 26.1578 11.1429 26.25 11.375 26.25C11.6071 26.25 11.8296 26.1578 11.9937 25.9937C12.1578 25.8296 12.25 25.6071 12.25 25.375V23.625H15.75V25.375C15.75 25.6071 15.8422 25.8296 16.0063 25.9937C16.1704 26.1578 16.3929 26.25 16.625 26.25C16.8571 26.25 17.0796 26.1578 17.2437 25.9937C17.4078 25.8296 17.5 25.6071 17.5 25.375V23.625H21.875C22.3391 23.625 22.7842 23.4406 23.1124 23.1124C23.4406 22.7842 23.625 22.3391 23.625 21.875V17.5H25.375C25.6071 17.5 25.8296 17.4078 25.9937 17.2437C26.1578 17.0796 26.25 16.8571 26.25 16.625C26.25 16.3929 26.1578 16.1704 25.9937 16.0063C25.8296 15.8422 25.6071 15.75 25.375 15.75ZM21.875 21.875H6.125V6.125H21.875V21.875Z" fill="#166636"/>
</g>
<defs>
<clipPath id="clip0_1262_23479">
<rect width="28" height="28" fill="white"/>
</clipPath>
</defs>
</svg>
