<svg width="32" height="32" viewBox="0 0 32 32" fill="none" xmlns="http://www.w3.org/2000/svg">
<path d="M4.50336 6.77657C4 7.49373 4 9.62545 4 13.889V15.9886C4 23.5059 9.65195 27.154 13.1981 28.7031C14.16 29.1232 14.6409 29.3334 16 29.3334C17.3591 29.3334 17.84 29.1232 18.8019 28.7031C22.348 27.154 28 23.5059 28 15.9886V13.889C28 9.62545 28 7.49373 27.4967 6.77657C26.9933 6.05941 24.9889 5.3733 20.9801 4.00107L20.2164 3.73965C18.1267 3.02434 17.0819 2.66669 16 2.66669C14.9181 2.66669 13.8733 3.02434 11.7836 3.73965L11.0199 4.00107C7.01109 5.3733 5.00671 6.05941 4.50336 6.77657Z" fill="#166636"/>
<path d="M14.4818 11.1511L14.307 11.4646C14.115 11.809 14.019 11.9812 13.8694 12.0948C13.7197 12.2084 13.5333 12.2506 13.1605 12.3349L12.8212 12.4117C11.5093 12.7085 10.8534 12.857 10.6974 13.3588C10.5413 13.8606 10.9885 14.3834 11.8828 15.4293L12.1142 15.6998C12.3683 15.997 12.4954 16.1456 12.5525 16.3294C12.6097 16.5133 12.5905 16.7114 12.5521 17.108L12.5171 17.469C12.3819 18.8642 12.3143 19.562 12.7228 19.8721C13.1314 20.1822 13.7455 19.8994 14.9738 19.334L15.2915 19.1876C15.6406 19.0269 15.8151 18.9465 16.0001 18.9465C16.185 18.9465 16.3595 19.0269 16.7086 19.1876L17.0263 19.334C18.2546 19.8994 18.8687 20.1822 19.2773 19.8721C19.6859 19.562 19.6182 18.8642 19.483 17.469L19.4481 17.108C19.4097 16.7114 19.3905 16.5132 19.4477 16.3294C19.5047 16.1456 19.6318 15.997 19.8859 15.6998L20.1174 15.4293C21.0117 14.3834 21.4589 13.8606 21.3027 13.3588C21.1467 12.857 20.4909 12.7085 19.179 12.4117L18.8395 12.3349C18.4669 12.2506 18.2805 12.2084 18.1307 12.0948C17.9811 11.9812 17.8851 11.809 17.6931 11.4647L17.5183 11.1511C16.8429 9.93926 16.505 9.33331 16.0001 9.33331C15.4951 9.33331 15.1573 9.93926 14.4818 11.1511Z" fill="#EDF3F1"/>
</svg>
