<svg width="32" height="32" viewBox="0 0 32 32" fill="none" xmlns="http://www.w3.org/2000/svg">
<path d="M4.50336 6.77687C4 7.49403 4 9.62575 4 13.8893V15.9889C4 23.5062 9.65195 27.1543 13.1981 28.7034C14.16 29.1235 14.6409 29.3337 16 29.3337C17.3591 29.3337 17.84 29.1235 18.8019 28.7034C22.348 27.1543 28 23.5062 28 15.9889V13.8893C28 9.62575 28 7.49403 27.4967 6.77687C26.9933 6.05971 24.9889 5.37361 20.9801 4.00138L20.2164 3.73995C18.1267 3.02465 17.0819 2.66699 16 2.66699C14.9181 2.66699 13.8733 3.02465 11.7836 3.73995L11.0199 4.00138C7.01109 5.37361 5.00671 6.05971 4.50336 6.77687Z" fill="#1DD739"/>
<path d="M14.483 11.1508L14.3082 11.4643C14.1162 11.8087 14.0202 11.9809 13.8706 12.0945C13.7209 12.2081 13.5345 12.2503 13.1618 12.3346L12.8224 12.4114C11.5106 12.7082 10.8546 12.8566 10.6986 13.3585C10.5425 13.8603 10.9897 14.3831 11.884 15.429L12.1154 15.6995C12.3695 15.9967 12.4966 16.1453 12.5538 16.3291C12.6109 16.513 12.5917 16.7111 12.5533 17.1077L12.5183 17.4687C12.3831 18.8639 12.3155 19.5617 12.724 19.8718C13.1326 20.1819 13.7468 19.8991 14.975 19.3337L15.2928 19.1873C15.6418 19.0266 15.8164 18.9462 16.0013 18.9462C16.1862 18.9462 16.3608 19.0266 16.7098 19.1873L17.0276 19.3337C18.2558 19.8991 18.87 20.1819 19.2785 19.8718C19.6872 19.5617 19.6194 18.8639 19.4842 17.4687L19.4493 17.1077C19.4109 16.7111 19.3917 16.5129 19.4489 16.3291C19.506 16.1453 19.633 15.9967 19.8872 15.6995L20.1186 15.429C21.0129 14.3831 21.4601 13.8603 21.304 13.3585C21.148 12.8566 20.4921 12.7082 19.1802 12.4114L18.8408 12.3346C18.4681 12.2503 18.2817 12.2081 18.132 12.0945C17.9824 11.9809 17.8864 11.8087 17.6944 11.4644L17.5196 11.1508C16.8441 9.93895 16.5062 9.33301 16.0013 9.33301C15.4964 9.33301 15.1585 9.93895 14.483 11.1508Z" fill="#EDF3F1"/>
</svg>
