<svg width="43" height="43" viewBox="0 0 43 43" fill="none" xmlns="http://www.w3.org/2000/svg">
<path d="M34.9375 6.71875H8.0625C7.34973 6.71875 6.66615 7.0019 6.16215 7.5059C5.65815 8.0099 5.375 8.69348 5.375 9.40625V18.8125C5.375 27.6678 9.66156 33.0344 13.2578 35.9772C17.1311 39.1451 20.9843 40.2201 21.1523 40.2655C21.3833 40.3283 21.6268 40.3283 21.8578 40.2655C22.0257 40.2201 25.8739 39.1451 29.7523 35.9772C33.3384 33.0344 37.625 27.6678 37.625 18.8125V9.40625C37.625 8.69348 37.3419 8.0099 36.8378 7.5059C36.3338 7.0019 35.6503 6.71875 34.9375 6.71875ZM34.9375 18.8125C34.9375 25.0391 32.643 30.0933 28.118 33.8323C26.1482 35.4544 23.9079 36.7166 21.5 37.5612C19.1236 36.7314 16.911 35.4915 14.9627 33.8978C10.3838 30.1521 8.0625 25.0777 8.0625 18.8125V9.40625H34.9375V18.8125ZM13.8305 23.7945C13.5784 23.5423 13.4368 23.2003 13.4368 22.8438C13.4368 22.4872 13.5784 22.1452 13.8305 21.893C14.0827 21.6409 14.4247 21.4993 14.7812 21.4993C15.1378 21.4993 15.4798 21.6409 15.732 21.893L18.8125 24.9753L27.268 16.518C27.3929 16.3932 27.5411 16.2942 27.7042 16.2266C27.8674 16.159 28.0422 16.1243 28.2188 16.1243C28.3953 16.1243 28.5701 16.159 28.7333 16.2266C28.8964 16.2942 29.0446 16.3932 29.1695 16.518C29.2943 16.6429 29.3933 16.7911 29.4609 16.9542C29.5285 17.1174 29.5632 17.2922 29.5632 17.4688C29.5632 17.6453 29.5285 17.8201 29.4609 17.9833C29.3933 18.1464 29.2943 18.2946 29.1695 18.4195L19.7632 27.8257C19.6384 27.9506 19.4902 28.0498 19.3271 28.1174C19.1639 28.185 18.9891 28.2198 18.8125 28.2198C18.6359 28.2198 18.4611 28.185 18.2979 28.1174C18.1348 28.0498 17.9866 27.9506 17.8618 27.8257L13.8305 23.7945Z" fill="#166636"/>
</svg>
