<svg width="80" height="71" viewBox="0 0 80 71" fill="none" xmlns="http://www.w3.org/2000/svg">
<g clip-path="url(#clip0_1307_43924)">
<path d="M78.6017 43.8634C78.492 44.9599 77.4853 45.5082 76.628 46.0066C75.8306 46.4651 75.0331 46.9336 74.2456 47.3921C72.9697 48.1298 71.7038 48.8674 70.4278 49.605C68.8329 50.5321 67.248 51.4591 65.6531 52.3762C63.8987 53.3929 62.1444 54.4196 60.38 55.4364C58.6156 56.4631 56.8513 57.4898 55.077 58.5165C53.4522 59.4635 51.8373 60.4005 50.2125 61.3475C48.8868 62.115 47.571 62.8826 46.2452 63.6501C45.378 64.1485 44.5108 64.6569 43.6436 65.1553C42.9857 65.5341 42.3676 65.9129 41.62 66.1322C39.6762 66.6904 37.5231 66.501 35.7688 65.4842C35.1408 65.1154 34.5028 64.7566 33.8748 64.3877C32.7185 63.7199 31.5722 63.062 30.4159 62.3941C28.9007 61.5169 27.3856 60.6397 25.8704 59.7725C24.1459 58.7757 22.4115 57.7789 20.687 56.7821C18.9027 55.7554 17.1184 54.7187 15.3341 53.692C13.6495 52.7151 11.9649 51.7482 10.2703 50.7713L5.96413 48.2893C4.93742 47.6912 3.90073 47.1031 2.87402 46.505C2.40552 46.2358 1.93702 45.9667 1.46851 45.6876C0.730875 45.259 0.00320425 44.5811 0.00320425 43.6641C0.00320425 44.5014 0.00320364 45.3387 -0.00676447 46.186C-0.00676447 46.485 -0.0267007 46.794 -0.00676447 47.1031C0.0530441 47.9105 0.691002 48.5385 1.35887 48.9372C1.76756 49.1864 2.18622 49.4157 2.60488 49.6549C3.68143 50.2729 4.75799 50.9009 5.83454 51.5189C7.38957 52.4161 8.93462 53.3132 10.4896 54.2103C12.3337 55.2769 14.1878 56.3435 16.0319 57.4101C17.9558 58.5265 19.8796 59.633 21.8134 60.7494C23.6475 61.806 25.4717 62.8626 27.3058 63.9192C28.831 64.7964 30.3461 65.6736 31.8712 66.5508C32.8979 67.1489 33.9346 67.737 34.9613 68.3351C35.5594 68.674 36.1475 69.0628 36.7955 69.302C38.819 70.0397 41.1914 69.8802 43.0554 68.7936C43.7632 68.385 44.4709 67.9663 45.1786 67.5576C46.4845 66.8 47.7903 66.0424 49.0861 65.2849C50.7907 64.298 52.4853 63.3112 54.1898 62.3144C56.0937 61.2079 57.9976 60.1015 59.8916 58.995L65.6033 55.6756C67.3078 54.6788 69.0124 53.692 70.7269 52.6952C72.0526 51.9276 73.3784 51.1601 74.7042 50.3826C75.4318 49.9539 76.1695 49.5353 76.8971 49.1066C77.1164 48.9771 77.3457 48.8475 77.555 48.698C78.1133 48.2793 78.5518 47.7011 78.5618 46.9735C78.5718 46.6046 78.5618 46.2458 78.5618 45.877C78.5618 45.1493 78.5618 44.4117 78.5718 43.684C78.6117 43.7637 78.6017 43.8136 78.6017 43.8634C78.6017 43.8435 78.5917 43.8933 78.6017 43.8634Z" fill="#89FD7A"/>
<path d="M77.1778 41.7209C79.0718 42.8174 79.0817 44.6017 77.1977 45.6982L42.8776 65.6443C40.9936 66.7408 37.9135 66.7408 36.0195 65.6443L1.45014 45.6982C-0.443795 44.6017 -0.453763 42.8174 1.43021 41.7209L35.7604 21.7648C37.6443 20.6683 40.7245 20.6683 42.6184 21.7648L77.1778 41.7209Z" fill="#F2FFDD"/>
<path d="M17.928 34.6734C17.928 34.6435 17.938 34.6136 17.938 34.5837C17.938 34.5637 17.9479 34.5438 17.9479 34.5238C17.9479 34.5039 17.9579 34.484 17.9579 34.474C17.9679 34.4441 17.9679 34.4242 17.9778 34.3943C17.9778 34.3843 17.9878 34.3644 17.9878 34.3544L18.0177 34.2647C18.0177 34.2547 18.0277 34.2447 18.0277 34.2248C18.0376 34.1849 18.0576 34.1451 18.0775 34.1052C18.0775 34.1052 18.0775 34.0952 18.0875 34.0952C18.1074 34.0553 18.1174 34.0254 18.1373 33.9955C18.1473 33.9856 18.1473 33.9756 18.1573 33.9656C18.1772 33.9357 18.1872 33.9058 18.2071 33.866C18.2071 33.856 18.2171 33.856 18.2171 33.846C18.237 33.8061 18.2569 33.7762 18.2869 33.7364C18.2968 33.7264 18.2968 33.7164 18.3068 33.7065C18.3267 33.6766 18.3367 33.6566 18.3566 33.6267C18.3666 33.6168 18.3766 33.5968 18.3865 33.5868C18.4065 33.5669 18.4164 33.547 18.4364 33.527C18.4463 33.5071 18.4663 33.4971 18.4762 33.4772C18.4862 33.4573 18.5061 33.4473 18.5161 33.4274C18.5361 33.3975 18.566 33.3775 18.5859 33.3476L18.6258 33.3077C18.6756 33.2579 18.7254 33.218 18.7753 33.1782C18.7853 33.1682 18.7952 33.1682 18.8052 33.1582C18.855 33.1183 18.9148 33.0785 18.9747 33.0486C19.0145 33.0187 19.0644 32.9987 19.1042 32.9888C19.1142 32.9788 19.1341 32.9788 19.1441 32.9688C19.174 32.9589 19.1939 32.9489 19.2239 32.9389C19.2438 32.9389 19.2538 32.929 19.2737 32.929C19.2837 32.929 19.3036 32.919 19.3136 32.919C19.3335 32.919 19.3534 32.909 19.3734 32.909H19.493C19.5229 32.909 19.5428 32.919 19.5727 32.919H19.5927C19.6126 32.919 19.6325 32.929 19.6525 32.9389C19.6624 32.9389 19.6624 32.9389 19.6724 32.9489C19.6924 32.9589 19.7223 32.9688 19.7422 32.9788L18.2669 32.1215H18.2569C18.237 32.1116 18.2171 32.1016 18.2071 32.0916H18.1971C18.1872 32.0916 18.1872 32.0916 18.1772 32.0817C18.1672 32.0817 18.1573 32.0717 18.1473 32.0717C18.1373 32.0717 18.1274 32.0717 18.1174 32.0617H18.0875C18.0676 32.0617 18.0476 32.0518 18.0277 32.0518H17.8782C17.8682 32.0518 17.8582 32.0518 17.8483 32.0617C17.8383 32.0617 17.8183 32.0717 17.8084 32.0717C17.7984 32.0717 17.7884 32.0717 17.7884 32.0817C17.7785 32.0817 17.7685 32.0916 17.7685 32.0916C17.7486 32.1016 17.7187 32.1116 17.6888 32.1215C17.6788 32.1215 17.6688 32.1315 17.6589 32.1315C17.6589 32.1315 17.6489 32.1415 17.6389 32.1415C17.5991 32.1614 17.5492 32.1813 17.5093 32.2112C17.4495 32.2412 17.3997 32.281 17.3498 32.3209C17.3399 32.3309 17.3299 32.3309 17.3199 32.3408C17.2701 32.3807 17.2203 32.4305 17.1704 32.4704L17.1605 32.4804L17.1405 32.5003C17.1206 32.5203 17.0907 32.5502 17.0707 32.5801L17.0508 32.6L17.0309 32.6199C17.0209 32.6399 17.001 32.6498 16.991 32.6698L16.9611 32.6997C16.9511 32.7097 16.9511 32.7196 16.9412 32.7296C16.9312 32.7396 16.9212 32.7595 16.9113 32.7695C16.9013 32.7794 16.9013 32.7894 16.8913 32.7994C16.8813 32.8193 16.8714 32.8293 16.8614 32.8492C16.8514 32.8592 16.8514 32.8691 16.8415 32.8791L16.8315 32.8891L16.7717 32.9788V32.9888C16.7717 32.9987 16.7617 32.9987 16.7617 33.0087C16.7518 33.0286 16.7418 33.0486 16.7219 33.0785C16.7119 33.0884 16.7119 33.0984 16.7019 33.1084C16.692 33.1183 16.692 33.1283 16.682 33.1383C16.682 33.1482 16.672 33.1582 16.672 33.1682C16.6621 33.1981 16.6521 33.218 16.6421 33.2479C16.6421 33.2479 16.6421 33.2579 16.6321 33.2579C16.6222 33.2878 16.6022 33.3177 16.5923 33.3576C16.5923 33.3675 16.5923 33.3675 16.5823 33.3775C16.5823 33.3875 16.5723 33.3975 16.5723 33.4174C16.5624 33.4373 16.5624 33.4473 16.5524 33.4672C16.5524 33.4772 16.5424 33.4971 16.5424 33.5071C16.5424 33.5171 16.5325 33.537 16.5325 33.547C16.5325 33.5569 16.5225 33.5669 16.5225 33.5769C16.5225 33.5968 16.5125 33.6068 16.5125 33.6267C16.5125 33.6467 16.5026 33.6666 16.5026 33.6766V33.6965C16.5026 33.7065 16.5026 33.7264 16.4926 33.7364C16.4826 33.7663 16.4826 33.7962 16.4826 33.8261V33.866C16.4727 33.9258 16.4727 33.9955 16.4727 34.0553C16.4727 34.3943 16.5923 34.6335 16.7817 34.7431L18.2569 35.6004C18.0676 35.4908 17.9479 35.2515 17.9479 34.9126C17.9479 34.8528 17.9479 34.793 17.9579 34.7232C17.918 34.7033 17.918 34.6833 17.928 34.6734Z" fill="#ACC5EA"/>
<path d="M21.1655 32.9184C21.1755 32.9184 21.1954 32.9084 21.2054 32.9084C21.2154 32.9084 21.2253 32.8985 21.2353 32.8985C21.2552 32.8985 21.2652 32.8885 21.2752 32.8885H21.3749C21.3948 32.8885 21.4147 32.8885 21.4347 32.8985H21.4546C21.4745 32.8985 21.4845 32.9084 21.5044 32.9084C21.5044 32.9084 21.5144 32.9084 21.5144 32.9184L21.5742 32.9483L20.0989 32.0911C20.089 32.0811 20.069 32.0811 20.0591 32.0711H20.0491C20.0491 32.0711 20.0391 32.0711 20.0391 32.0612C20.0292 32.0612 20.0292 32.0512 20.0192 32.0512C20.0092 32.0512 19.9993 32.0512 19.9993 32.0412H19.9693C19.9494 32.0412 19.9394 32.0412 19.9195 32.0313H19.7899C19.78 32.0313 19.77 32.0312 19.76 32.0412H19.7401C19.7301 32.0412 19.7301 32.0412 19.7201 32.0512C19.7002 32.0612 19.6803 32.0612 19.6603 32.0711C19.6504 32.0711 19.6504 32.0711 19.6404 32.0811C19.6404 32.0811 19.6304 32.0811 19.6304 32.0911C19.6005 32.101 19.5607 32.121 19.5308 32.1409L18.5938 32.6792L20.069 33.5364L21.006 32.9982C21.0459 32.9782 21.0758 32.9583 21.1057 32.9483C21.1157 32.9483 21.1256 32.9383 21.1356 32.9383C21.1256 32.9284 21.1456 32.9284 21.1655 32.9184Z" fill="#166636"/>
<path d="M18.2175 35.6004L16.7422 34.7432H16.7522L18.2175 35.6004Z" fill="#0F6732"/>
<path d="M18.2253 35.6102L16.75 34.7529C16.7699 34.7629 16.7899 34.7729 16.7998 34.7828L18.2751 35.6401C18.2552 35.6202 18.2352 35.6202 18.2253 35.6102Z" fill="#29A352"/>
<path d="M18.2761 35.6297L16.8008 34.7725C16.8207 34.7824 16.8407 34.7824 16.8606 34.7924L18.3359 35.6497C18.3159 35.6497 18.296 35.6397 18.2761 35.6297Z" fill="#2AA854"/>
<path d="M18.3347 35.6502L16.8594 34.793C16.8793 34.8029 16.8992 34.8029 16.9192 34.8029L18.3945 35.6602C18.3745 35.6602 18.3546 35.6602 18.3347 35.6502Z" fill="#2CAD44"/>
<path d="M18.3932 35.6698L16.918 34.8125C16.9379 34.8125 16.9578 34.8225 16.9778 34.8225L18.4531 35.6797C18.4331 35.6698 18.4132 35.6698 18.3932 35.6698Z" fill="#2DB341"/>
<path d="M18.4557 35.6698L16.9805 34.8125H17.0502L18.5255 35.6698H18.4557Z" fill="#2EB857"/>
<path d="M18.5261 35.67L17.0508 34.8127C17.0807 34.8127 17.1006 34.8127 17.1305 34.8027L18.6058 35.66C18.5759 35.67 18.556 35.67 18.5261 35.67Z" fill="#40BD2F"/>
<path d="M18.6042 35.6702L17.1289 34.8129C17.1588 34.8129 17.1887 34.8029 17.2186 34.793L18.6939 35.6502C18.664 35.6502 18.6341 35.6602 18.6042 35.6702Z" fill="#31C242"/>
<path d="M18.694 35.6501L17.2188 34.7928C17.2586 34.7828 17.2985 34.7629 17.3483 34.7529L18.8236 35.6102C18.7837 35.6202 18.7439 35.6301 18.694 35.6501Z" fill="#32C74D"/>
<path d="M18.8229 35.6007L17.3477 34.7434C17.3975 34.7235 17.4473 34.6936 17.4972 34.6736C17.6268 34.6039 17.7464 34.5042 17.856 34.3945L19.3313 35.2518C19.2217 35.3614 19.102 35.4511 18.9725 35.5309C18.9226 35.5608 18.8728 35.5807 18.8229 35.6007Z" fill="#3BCC33"/>
<path d="M19.3307 35.2513L17.8555 34.394L17.9751 34.2744L19.4504 35.1317L19.3307 35.2513Z" fill="#32C74D"/>
<path d="M19.4518 35.1319L17.9766 34.2747C18.0065 34.2448 18.0364 34.2049 18.0663 34.165L19.5416 35.0223C19.5017 35.0622 19.4718 35.0921 19.4518 35.1319Z" fill="#31C242"/>
<path d="M19.53 35.0224L18.0547 34.1651C18.0746 34.1352 18.1045 34.1053 18.1245 34.0654L19.5997 34.9227C19.5798 34.9626 19.5599 34.9925 19.53 35.0224Z" fill="#40BD2F"/>
<path d="M19.6003 34.9226L18.125 34.0653L18.1848 33.9756L19.6601 34.8328C19.6501 34.8627 19.6202 34.8927 19.6003 34.9226Z" fill="#2EB857"/>
<path d="M19.6706 34.8327L18.1953 33.9755L18.2551 33.8857L19.7304 34.743C19.7005 34.7729 19.6806 34.8028 19.6706 34.8327Z" fill="#2DB341"/>
<path d="M19.7214 34.7429L18.2461 33.8856C18.266 33.8557 18.276 33.8258 18.2959 33.7959L19.7712 34.6532C19.7513 34.6831 19.7413 34.713 19.7214 34.7429Z" fill="#2CAD44"/>
<path d="M19.7722 34.653L18.2969 33.7958C18.3168 33.7659 18.3268 33.736 18.3467 33.7061L19.822 34.5633C19.8021 34.5932 19.7921 34.6231 19.7722 34.653Z" fill="#2AA854"/>
<path d="M19.819 34.5632L18.3438 33.7059C18.3537 33.676 18.3737 33.6461 18.3836 33.6162L19.8589 34.4735C19.8489 34.5034 19.829 34.5333 19.819 34.5632Z" fill="#29A352"/>
<path d="M19.862 34.4735L18.3867 33.6163C18.3967 33.5864 18.4166 33.5565 18.4266 33.5166L19.9019 34.3739C19.8919 34.4038 19.872 34.4337 19.862 34.4735Z" fill="#0F6732"/>
<path d="M19.9011 34.3739L18.4258 33.5167C18.4357 33.4868 18.4557 33.4469 18.4657 33.417L19.9409 34.2742C19.921 34.3042 19.911 34.344 19.9011 34.3739Z" fill="#399926"/>
<path d="M19.9284 34.2745L18.4531 33.4173C18.4631 33.3774 18.4731 33.3475 18.483 33.3076L19.9583 34.1649C19.9583 34.2047 19.9483 34.2347 19.9284 34.2745Z" fill="#25943D"/>
<path d="M19.9714 34.1654L18.4961 33.3081L18.526 33.1885L20.0013 34.0457L19.9714 34.1654Z" fill="#248F24"/>
<path d="M19.9987 34.0449L18.5234 33.1876L18.5533 33.0381L20.0286 33.8953L19.9987 34.0449Z" fill="#238A36"/>
<path d="M20.0182 33.8956L18.543 33.0383C18.5529 32.9686 18.5529 32.8988 18.5529 32.829C18.5529 32.7792 18.5529 32.7393 18.543 32.6895L20.0182 33.5467C20.0182 33.5966 20.0282 33.6364 20.0282 33.6863C20.0382 33.756 20.0282 33.8258 20.0182 33.8956Z" fill="#218556"/>
<path d="M16.4302 33.916L15.4932 34.4543C15.4433 34.4842 15.3835 34.5241 15.3337 34.5639C15.3137 34.5739 15.3038 34.5938 15.2838 34.6038C15.2639 34.6238 15.234 34.6437 15.2141 34.6636L15.1842 34.6935L15.1542 34.7234L15.1243 34.7533C15.1044 34.7832 15.0745 34.8032 15.0546 34.8331C15.0446 34.843 15.0346 34.853 15.0346 34.863C15.0346 34.873 15.0247 34.873 15.0247 34.8829C15.0147 34.8929 15.0147 34.9029 15.0047 34.9128C14.9848 34.9328 14.9748 34.9627 14.9549 34.9826C14.935 35.0025 14.925 35.0324 14.915 35.0524V35.0723L14.8851 35.1321C14.8751 35.1521 14.8652 35.182 14.8452 35.2019L14.8153 35.2617C14.8054 35.2916 14.7954 35.3115 14.7854 35.3415C14.7755 35.3714 14.7655 35.3913 14.7555 35.4212C14.7555 35.4312 14.7456 35.4511 14.7456 35.4611C14.7456 35.471 14.7456 35.471 14.7356 35.481C14.7356 35.491 14.7256 35.5009 14.7256 35.5109C14.7157 35.5408 14.7057 35.5707 14.7057 35.6106C14.7057 35.6305 14.6957 35.6505 14.6957 35.6704C14.6957 35.6804 14.6957 35.6903 14.6857 35.7003V35.7302C14.6758 35.79 14.6758 35.8399 14.6758 35.8897L14.7157 48.3C14.7157 48.5592 14.8153 48.7485 14.9649 48.8383L16.4401 49.6955C16.2906 49.6058 16.1909 49.4264 16.1909 49.1572L16.1511 36.747C16.1511 36.6871 16.161 36.6174 16.171 36.5576C16.171 36.5476 16.171 36.5376 16.181 36.5277C16.1909 36.4678 16.2009 36.408 16.2208 36.3482C16.2208 36.3383 16.2208 36.3383 16.2308 36.3283C16.2507 36.2585 16.2707 36.1987 16.3006 36.1289C16.3305 36.0592 16.3604 35.9993 16.4003 35.9296V35.9196L16.5199 35.7402C16.5199 35.7302 16.5298 35.7302 16.5298 35.7202L16.6495 35.5707L16.6794 35.5408C16.7093 35.5009 16.7491 35.471 16.789 35.4411C16.809 35.4312 16.8189 35.4112 16.8389 35.4013C16.8887 35.3614 16.9385 35.3215 16.9983 35.2916L17.9354 34.7533L16.4302 33.916Z" fill="#166636"/>
<path d="M20.9673 33.0089C21.4259 32.7397 21.8047 32.959 21.8146 33.4873L21.8545 45.8976C21.8545 46.4259 21.4757 47.0838 21.0172 47.343L17.02 49.6456C16.5614 49.9148 16.1827 49.6955 16.1727 49.1671L16.1328 36.7569C16.1328 36.2285 16.5116 35.5707 16.9701 35.3115L17.9071 34.7732C17.9071 34.823 17.8972 34.8729 17.8972 34.9227C17.8972 35.6006 18.3756 35.8697 18.9638 35.5308C19.5519 35.1919 20.0303 34.3645 20.0303 33.6867C20.0303 33.6368 20.0303 33.597 20.0204 33.5471L20.9673 33.0089Z" fill="#1CB15A"/>
<path d="M18.8232 32.4707L19.7502 32.999L17.9261 34.7833L17.5273 34.554L18.4344 32.4707H18.8232Z" fill="#ACC5EA"/>
<path d="M18.9728 33.0584C19.561 32.7195 20.0394 32.9887 20.0394 33.6665C20.0394 34.3443 19.561 35.1717 18.9728 35.5106C18.3847 35.8495 17.9062 35.5804 17.9062 34.9025C17.9062 34.2247 18.3748 33.4073 18.9728 33.0584Z" fill="white"/>
<path d="M30.5879 21.7645C30.6079 21.7546 30.6278 21.7546 30.6477 21.7446C30.6577 21.7446 30.6776 21.7346 30.6876 21.7346C30.6976 21.7346 30.7075 21.7246 30.7175 21.7246C30.7375 21.7246 30.7474 21.7147 30.7574 21.7147H30.8571C30.877 21.7147 30.8969 21.7147 30.9169 21.7246H30.9368C30.9568 21.7246 30.9667 21.7346 30.9867 21.7346C30.9867 21.7346 30.9966 21.7346 30.9966 21.7446L31.0564 21.7745L29.5812 20.9172C29.5712 20.9073 29.5512 20.9073 29.5413 20.8973H29.5313C29.5313 20.8973 29.5213 20.8973 29.5213 20.8873C29.5114 20.8873 29.5114 20.8774 29.5014 20.8774C29.4914 20.8774 29.4815 20.8774 29.4815 20.8674H29.4516C29.4316 20.8674 29.4217 20.8674 29.4017 20.8574H29.2721C29.2622 20.8574 29.2522 20.8574 29.2422 20.8674H29.2223C29.2123 20.8674 29.2123 20.8674 29.2024 20.8774C29.1824 20.8873 29.1625 20.8873 29.1426 20.8973C29.1326 20.8973 29.1326 20.8973 29.1226 20.9073C29.1226 20.9073 29.1127 20.9073 29.1127 20.9172C29.0827 20.9272 29.0429 20.9471 29.013 20.9671L28.0859 21.5053L29.5612 22.3626L30.4883 21.8243C30.5281 21.8044 30.558 21.7845 30.5879 21.7745C30.568 21.7745 30.578 21.7645 30.5879 21.7645Z" fill="#166636"/>
<path d="M27.694 24.2869L26.2188 23.4297H26.2287L27.694 24.2869C27.704 24.2869 27.704 24.2869 27.694 24.2869Z" fill="#0F6732"/>
<path d="M27.7057 24.2869L26.2305 23.4297C26.2504 23.4397 26.2703 23.4496 26.2803 23.4596L27.7556 24.3168C27.7456 24.3069 27.7257 24.2969 27.7057 24.2869Z" fill="#29A352"/>
<path d="M27.7565 24.3162L26.2812 23.459C26.3012 23.469 26.3211 23.469 26.3411 23.4789L27.8163 24.3362C27.7964 24.3262 27.7765 24.3162 27.7565 24.3162Z" fill="#2AA854"/>
<path d="M27.8151 24.3367L26.3398 23.4795C26.3598 23.4895 26.3797 23.4895 26.3997 23.4895L27.8749 24.3467C27.855 24.3467 27.8351 24.3367 27.8151 24.3367Z" fill="#2CAD44"/>
<path d="M27.8737 24.3465L26.3984 23.4893C26.4184 23.4893 26.4383 23.4992 26.4582 23.4992L27.9335 24.3565C27.9136 24.3565 27.8937 24.3465 27.8737 24.3465Z" fill="#2DB341"/>
<path d="M27.944 24.3563L26.4688 23.499H26.5385L28.0138 24.3563H27.944Z" fill="#2EB857"/>
<path d="M28.0143 24.3565L26.5391 23.4992C26.569 23.4992 26.5889 23.4992 26.6188 23.4893L28.0941 24.3465C28.0642 24.3465 28.0343 24.3565 28.0143 24.3565Z" fill="#40BD2F"/>
<path d="M28.0925 24.3459L26.6172 23.4887C26.6471 23.4887 26.677 23.4787 26.7069 23.4688L28.1822 24.326C28.1523 24.336 28.1224 24.336 28.0925 24.3459Z" fill="#31C242"/>
<path d="M28.1823 24.3268L26.707 23.4696C26.7469 23.4596 26.7868 23.4397 26.8366 23.4297L28.3119 24.2869C28.2621 24.2969 28.2222 24.3168 28.1823 24.3268Z" fill="#32C74D"/>
<path d="M28.3151 24.2862L26.8398 23.429C26.8897 23.409 26.9395 23.3791 26.9894 23.3592C27.119 23.2894 27.2386 23.1897 27.3482 23.0801L28.8235 23.9373C28.7138 24.047 28.5942 24.1367 28.4646 24.2164C28.4148 24.2364 28.365 24.2663 28.3151 24.2862Z" fill="#3BCC33"/>
<path d="M28.8112 23.928L27.3359 23.0708L27.4556 22.9512L28.9308 23.8084C28.891 23.8483 28.8511 23.8981 28.8112 23.928Z" fill="#32C74D"/>
<path d="M28.9323 23.8077L27.457 22.9505C27.4869 22.9206 27.5168 22.8807 27.5467 22.8408L29.022 23.6981C28.9921 23.738 28.9622 23.7778 28.9323 23.8077Z" fill="#31C242"/>
<path d="M29.0222 23.6981L27.5469 22.8409C27.5668 22.811 27.5967 22.7811 27.6166 22.7412L29.0919 23.5985C29.072 23.6383 29.0421 23.6682 29.0222 23.6981Z" fill="#40BD2F"/>
<path d="M29.0925 23.6091L27.6172 22.7518L27.677 22.6621L29.1523 23.5194L29.0925 23.6091Z" fill="#2EB857"/>
<path d="M29.1511 23.5192L27.6758 22.662L27.7356 22.5723L29.2109 23.4295L29.1511 23.5192Z" fill="#2DB341"/>
<path d="M29.2097 23.4294L27.7344 22.5721C27.7543 22.5422 27.7643 22.5123 27.7842 22.4824L29.2595 23.3397C29.2396 23.3696 29.2196 23.3995 29.2097 23.4294Z" fill="#2CAD44"/>
<path d="M29.2604 23.3395L27.7852 22.4823C27.8051 22.4524 27.8151 22.4225 27.835 22.3926L29.3103 23.2498C29.2903 23.2698 29.2704 23.3096 29.2604 23.3395Z" fill="#2AA854"/>
<path d="M29.2995 23.2399L27.8242 22.3827C27.8342 22.3528 27.8541 22.3229 27.8641 22.293L29.3394 23.1502C29.3294 23.1801 29.3194 23.21 29.2995 23.2399Z" fill="#29A352"/>
<path d="M29.3386 23.1503L27.8633 22.293C27.8732 22.2631 27.8932 22.2332 27.9032 22.1934L29.3784 23.0506C29.3685 23.0905 29.3585 23.1204 29.3386 23.1503Z" fill="#0F6732"/>
<path d="M29.3815 23.0507L27.9062 22.1934C27.9162 22.1635 27.9362 22.1237 27.9461 22.0938L29.4214 22.951C29.4114 22.9909 29.4015 23.0208 29.3815 23.0507Z" fill="#399926"/>
<path d="M29.4206 22.9503L27.9453 22.093C27.9553 22.0532 27.9652 22.0233 27.9752 21.9834L29.4505 22.8407C29.4405 22.8805 29.4306 22.9204 29.4206 22.9503Z" fill="#25943D"/>
<path d="M29.4479 22.8411L27.9727 21.9839L28.0026 21.8643L29.4778 22.7215L29.4479 22.8411Z" fill="#248F24"/>
<path d="M29.4792 22.7216L28.0039 21.8644L28.0338 21.7148L29.5091 22.5721L29.4792 22.7216Z" fill="#238A36"/>
<path d="M29.5104 22.5724L28.0352 21.7152C28.0451 21.6454 28.0451 21.5756 28.0451 21.5059L29.5204 22.3631C29.5204 22.4329 29.5204 22.5027 29.5104 22.5724Z" fill="#218556"/>
<path d="M25.9124 22.7412L24.9854 23.2795C24.9355 23.3094 24.8757 23.3493 24.8259 23.3891C24.8059 23.3991 24.796 23.419 24.776 23.429C24.7561 23.4489 24.7262 23.4689 24.7062 23.4888C24.6963 23.4988 24.6863 23.5088 24.6763 23.5287L24.6464 23.5586L24.6165 23.5885C24.5966 23.6184 24.5667 23.6383 24.5468 23.6682C24.5368 23.6782 24.5268 23.6882 24.5268 23.6981C24.5268 23.7081 24.5169 23.7081 24.5169 23.7181C24.5069 23.7281 24.5069 23.738 24.4969 23.748C24.477 23.7679 24.467 23.7978 24.4471 23.8178C24.4271 23.8377 24.4172 23.8676 24.4072 23.8875V23.9075L24.3773 23.9673C24.3673 23.9872 24.3574 24.0171 24.3374 24.0371L24.3075 24.0969C24.2976 24.1268 24.2876 24.1467 24.2776 24.1766C24.2676 24.2065 24.2577 24.2265 24.2477 24.2564C24.2477 24.2663 24.2377 24.2863 24.2377 24.2962C24.2377 24.3062 24.2377 24.3062 24.2278 24.3162C24.2278 24.3261 24.2178 24.3361 24.2178 24.3461C24.2078 24.376 24.1979 24.4059 24.1979 24.4458C24.1979 24.4657 24.1879 24.4856 24.1879 24.5056C24.1879 24.5155 24.1879 24.5255 24.1779 24.5355V24.5654C24.168 24.6252 24.168 24.675 24.168 24.7249L24.2278 44.4816C24.2278 44.7408 24.3175 44.9302 24.477 45.0199L25.9523 45.8772C25.8027 45.7875 25.7031 45.608 25.7031 45.3389L25.6233 25.5821C25.6233 25.5223 25.6333 25.4525 25.6432 25.3927C25.6432 25.3828 25.6432 25.3728 25.6532 25.3628C25.6632 25.303 25.6732 25.2432 25.6931 25.1834C25.6931 25.1734 25.6931 25.1734 25.7031 25.1635C25.723 25.0937 25.7429 25.0339 25.7728 24.9641C25.8027 24.8943 25.8326 24.8345 25.8725 24.7647V24.7548L25.9921 24.5753C25.9921 24.5654 26.0021 24.5654 26.0021 24.5554L26.1217 24.4059L26.1516 24.376C26.1815 24.3361 26.2214 24.3062 26.2613 24.2763C26.2812 24.2663 26.2912 24.2464 26.3111 24.2364C26.361 24.1966 26.4108 24.1567 26.4706 24.1268L27.3976 23.5885L25.9124 22.7412Z" fill="#EDF3F1"/>
<path d="M30.4556 21.8243C30.9142 21.5551 31.2929 21.7744 31.3029 22.3028L31.3627 42.0595C31.3627 42.5878 30.9839 43.2457 30.5254 43.5049L26.5182 45.8175C26.0597 46.0866 25.6809 45.8673 25.6709 45.339L25.6211 25.5823C25.6211 25.0539 25.9999 24.3961 26.4584 24.1369L27.3854 23.5986C27.3854 24.2764 27.8639 24.5456 28.452 24.2067C29.0402 23.8677 29.5186 23.0404 29.5186 22.3626L30.4556 21.8243Z" fill="#1CB15A"/>
<path d="M27.9935 21.4658L28.9504 22.0041L27.5648 23.7086L26.7773 23.2401L27.9935 21.4658Z" fill="#ACC5EA"/>
<path d="M28.4416 21.7244C29.0297 21.3855 29.5082 21.6547 29.5082 22.3325C29.5082 23.0103 29.0297 23.8377 28.4416 24.1766C27.8535 24.5155 27.375 24.2464 27.375 23.5685C27.385 22.8907 27.8535 22.0634 28.4416 21.7244Z" fill="white"/>
<path d="M27.7261 20.7973L27.6663 20.7674H27.6563C27.6464 20.7674 27.6464 20.7674 27.6364 20.7574C27.6264 20.7574 27.6165 20.7475 27.6065 20.7475C27.5965 20.7475 27.5865 20.7475 27.5766 20.7375H27.5467C27.5267 20.7375 27.5068 20.7275 27.4869 20.7275H27.3373C27.3274 20.7275 27.3174 20.7275 27.3074 20.7375C27.2975 20.7375 27.2775 20.7475 27.2676 20.7475C27.2576 20.7475 27.2476 20.7475 27.2476 20.7574C27.2377 20.7574 27.2277 20.7674 27.2277 20.7674C27.2078 20.7774 27.1779 20.7873 27.148 20.7973C27.138 20.7973 27.128 20.8073 27.118 20.8073C27.118 20.8073 27.1081 20.8173 27.0981 20.8173C27.0582 20.8372 27.0084 20.8571 26.9685 20.887C26.9087 20.9169 26.8589 20.9568 26.7991 20.9967C26.7891 21.0066 26.7791 21.0066 26.7692 21.0166C26.7193 21.0565 26.6695 21.1063 26.6196 21.1462L26.6097 21.1562L26.5897 21.1761C26.5698 21.196 26.5399 21.2259 26.52 21.2559L26.5 21.2758L26.4801 21.2957C26.4701 21.3157 26.4502 21.3256 26.4402 21.3456L26.4103 21.3755C26.4003 21.3854 26.4003 21.3954 26.3904 21.4054C26.3804 21.4153 26.3704 21.4353 26.3605 21.4452C26.3505 21.4552 26.3505 21.4652 26.3405 21.4751C26.3306 21.4951 26.3206 21.5051 26.3106 21.525C26.3007 21.535 26.3007 21.5449 26.2907 21.5549L26.2807 21.5649L26.2209 21.6546V21.6645C26.2209 21.6745 26.211 21.6745 26.211 21.6845C26.201 21.7044 26.191 21.7244 26.1711 21.7443C26.1611 21.7543 26.1611 21.7642 26.1511 21.7742C26.1412 21.7842 26.1412 21.7941 26.1312 21.8041C26.1312 21.8141 26.1212 21.824 26.1212 21.834C26.1113 21.8639 26.1013 21.8838 26.0913 21.9137C26.0913 21.9137 26.0913 21.9237 26.0814 21.9237C26.0714 21.9536 26.0515 21.9835 26.0415 22.0234C26.0415 22.0334 26.0415 22.0334 26.0315 22.0433C26.0315 22.0533 26.0216 22.0633 26.0216 22.0832C26.0116 22.1031 26.0116 22.1131 26.0016 22.133C26.0016 22.143 25.9917 22.1629 25.9917 22.1729C25.9917 22.1829 25.9817 22.2028 25.9817 22.2128C25.9817 22.2228 25.9717 22.2327 25.9717 22.2427C25.9717 22.2626 25.9617 22.2726 25.9617 22.2925C25.9617 22.3125 25.9518 22.3324 25.9518 22.3424V22.3623C25.9518 22.3723 25.9518 22.3922 25.9418 22.4022C25.9318 22.4321 25.9318 22.462 25.9318 22.4919V22.5318C25.9219 22.5916 25.9219 22.6614 25.9219 22.7212V22.7511L27.3972 23.6083V23.5784C27.3972 23.5186 27.3972 23.4588 27.4071 23.389C27.4071 23.3691 27.4071 23.3591 27.4171 23.3392C27.4171 23.3093 27.4271 23.2794 27.4271 23.2495C27.4271 23.2295 27.437 23.2096 27.437 23.1897C27.437 23.1697 27.447 23.1498 27.447 23.1398C27.457 23.1099 27.457 23.09 27.4669 23.0601C27.4669 23.0501 27.4769 23.0302 27.4769 23.0202L27.5068 22.9305C27.5068 22.9205 27.5168 22.9106 27.5168 22.8906C27.5267 22.8507 27.5467 22.8109 27.5666 22.771C27.5666 22.771 27.5666 22.761 27.5766 22.761C27.5965 22.7311 27.6065 22.6913 27.6264 22.6614C27.6364 22.6514 27.6364 22.6414 27.6464 22.6314C27.6663 22.6015 27.6763 22.5716 27.6962 22.5318C27.6962 22.5218 27.7062 22.5218 27.7062 22.5118C27.7261 22.472 27.746 22.4421 27.7759 22.4022C27.7859 22.3922 27.7859 22.3822 27.7959 22.3723C27.8158 22.3424 27.8358 22.3224 27.8457 22.2925C27.8557 22.2826 27.8657 22.2626 27.8756 22.2527C27.8956 22.2327 27.9055 22.2128 27.9255 22.1929C27.9354 22.1729 27.9554 22.1629 27.9653 22.143C27.9753 22.1231 27.9952 22.1131 28.0052 22.0932C28.0251 22.0633 28.055 22.0433 28.075 22.0134L28.1149 21.9736C28.1647 21.9237 28.2145 21.8838 28.2644 21.844C28.2743 21.834 28.2843 21.834 28.2943 21.824C28.3441 21.7842 28.4039 21.7443 28.4637 21.7144C28.5136 21.6845 28.5535 21.6645 28.5933 21.6446C28.6033 21.6346 28.6232 21.6346 28.6332 21.6247C28.6631 21.6147 28.683 21.6047 28.7129 21.5948C28.7329 21.5948 28.7428 21.5848 28.7628 21.5848C28.7728 21.5848 28.7927 21.5748 28.8027 21.5748C28.8226 21.5748 28.8425 21.5649 28.8625 21.5649H28.9821C29.012 21.5649 29.0319 21.5748 29.0618 21.5748H29.0818C29.1017 21.5748 29.1216 21.5848 29.1416 21.5948C29.1515 21.5948 29.1515 21.5948 29.1615 21.6047C29.1814 21.6147 29.2113 21.6247 29.2313 21.6346L27.7261 20.7973Z" fill="#ACC5EA"/>
<path d="M40.094 22.4423C40.1139 22.4323 40.1339 22.4323 40.1538 22.4223C40.1638 22.4223 40.1837 22.4124 40.1937 22.4124C40.2036 22.4124 40.2136 22.4024 40.2236 22.4024C40.2435 22.4024 40.2535 22.3924 40.2635 22.3924H40.3532C40.3731 22.3924 40.393 22.3924 40.413 22.4024H40.4329C40.4528 22.4024 40.4628 22.4124 40.4828 22.4124C40.4828 22.4124 40.4927 22.4123 40.4927 22.4223L40.5525 22.4522L39.0772 21.595C39.0673 21.585 39.0473 21.585 39.0374 21.575H39.0274C39.0274 21.575 39.0174 21.575 39.0174 21.5651C39.0075 21.5651 39.0075 21.5551 38.9975 21.5551C38.9875 21.5551 38.9776 21.5551 38.9776 21.5451H38.9477C38.9277 21.5451 38.9178 21.5451 38.8978 21.5352H38.7682C38.7583 21.5352 38.7483 21.5352 38.7383 21.5451H38.7184C38.7084 21.5451 38.7084 21.5451 38.6985 21.5551C38.6785 21.5651 38.6586 21.5651 38.6387 21.575C38.6287 21.575 38.6287 21.575 38.6187 21.585C38.6187 21.585 38.6087 21.585 38.6087 21.595C38.5788 21.6049 38.539 21.6249 38.5091 21.6448L37.582 22.1831L39.0573 23.0403L39.9843 22.5021C40.0242 22.4821 40.0541 22.4622 40.084 22.4522C40.0741 22.4522 40.084 22.4522 40.094 22.4423Z" fill="#166636"/>
<path d="M37.2057 24.9647L35.7305 24.1074H35.7404L37.2057 24.9647Z" fill="#0F6732"/>
<path d="M37.2057 24.9647L35.7305 24.1074C35.7504 24.1174 35.7703 24.1274 35.7803 24.1373L37.2556 24.9946C37.2456 24.9846 37.2257 24.9746 37.2057 24.9647Z" fill="#29A352"/>
<path d="M37.2643 24.994L35.7891 24.1367C35.809 24.1467 35.8289 24.1467 35.8489 24.1567L37.3242 25.0139C37.2942 25.0039 37.2843 24.994 37.2643 24.994Z" fill="#2AA854"/>
<path d="M37.3151 25.0145L35.8398 24.1572C35.8598 24.1672 35.8797 24.1672 35.8997 24.1672L37.3749 25.0244C37.355 25.0244 37.3351 25.0145 37.3151 25.0145Z" fill="#2CAD44"/>
<path d="M37.3737 25.0242L35.8984 24.167C35.9184 24.167 35.9383 24.177 35.9582 24.177L37.4335 25.0342C37.4236 25.0342 37.3937 25.0242 37.3737 25.0242Z" fill="#2DB341"/>
<path d="M37.444 25.034L35.9688 24.1768H36.0385L37.5138 25.034H37.444Z" fill="#2EB857"/>
<path d="M37.5143 25.0342L36.0391 24.177C36.069 24.177 36.0889 24.177 36.1188 24.167L37.5941 25.0242C37.5642 25.0242 37.5442 25.0342 37.5143 25.0342Z" fill="#40BD2F"/>
<path d="M37.5925 25.0237L36.1172 24.1664C36.1471 24.1664 36.177 24.1565 36.2069 24.1465L37.6822 25.0037C37.6523 25.0137 37.6224 25.0237 37.5925 25.0237Z" fill="#31C242"/>
<path d="M37.6823 25.0046L36.207 24.1473C36.2469 24.1373 36.2868 24.1174 36.3366 24.1074L37.8119 24.9647C37.772 24.9746 37.7222 24.9946 37.6823 25.0046Z" fill="#32C74D"/>
<path d="M37.8112 24.964L36.3359 24.1067C36.3858 24.0868 36.4356 24.0569 36.4855 24.0369C36.615 23.9671 36.7347 23.8675 36.8443 23.7578L38.3196 24.6151C38.2099 24.7247 38.0903 24.8144 37.9607 24.8942C37.9109 24.9141 37.8611 24.944 37.8112 24.964Z" fill="#3BCC33"/>
<path d="M38.3229 24.6058L36.8477 23.7485L36.9673 23.6289L38.4426 24.4862C38.4027 24.526 38.3628 24.5759 38.3229 24.6058Z" fill="#32C74D"/>
<path d="M38.4323 24.4855L36.957 23.6282C36.9869 23.5983 37.0168 23.5584 37.0467 23.5186L38.522 24.3758C38.4921 24.4157 38.4622 24.4556 38.4323 24.4855Z" fill="#31C242"/>
<path d="M38.5222 24.3759L37.0469 23.5186C37.0668 23.4887 37.0967 23.4588 37.1167 23.4189L38.5919 24.2762C38.572 24.3161 38.5521 24.346 38.5222 24.3759Z" fill="#40BD2F"/>
<path d="M38.5886 24.2868L37.1133 23.4296L37.1731 23.3398L38.6484 24.1971L38.5886 24.2868Z" fill="#2EB857"/>
<path d="M38.6511 24.197L37.1758 23.3397L37.2356 23.25L38.7109 24.1073L38.6511 24.197Z" fill="#2DB341"/>
<path d="M38.7097 24.0974L37.2344 23.2401C37.2543 23.2102 37.2643 23.1803 37.2842 23.1504L38.7595 24.0076C38.7396 24.0376 38.7296 24.0675 38.7097 24.0974Z" fill="#2CAD44"/>
<path d="M38.7604 24.0075L37.2852 23.1503C37.3051 23.1204 37.3151 23.0905 37.335 23.0605L38.8103 23.9178C38.7903 23.9477 38.7804 23.9776 38.7604 24.0075Z" fill="#2AA854"/>
<path d="M38.8112 23.9177L37.3359 23.0604C37.3459 23.0305 37.3658 23.0006 37.3758 22.9707L38.8511 23.828C38.8411 23.8579 38.8212 23.8878 38.8112 23.9177Z" fill="#29A352"/>
<path d="M38.8503 23.828L37.375 22.9708C37.385 22.9409 37.4049 22.911 37.4149 22.8711L38.8901 23.7284C38.8802 23.7682 38.8602 23.7981 38.8503 23.828Z" fill="#0F6732"/>
<path d="M38.8893 23.7284L37.4141 22.8712C37.424 22.8413 37.434 22.8014 37.4539 22.7715L38.9292 23.6287C38.9093 23.6686 38.8993 23.6985 38.8893 23.7284Z" fill="#399926"/>
<path d="M38.9206 23.629L37.4453 22.7718C37.4553 22.7319 37.4653 22.702 37.4752 22.6621L38.9505 23.5194C38.9505 23.5592 38.9405 23.5991 38.9206 23.629Z" fill="#25943D"/>
<path d="M38.9597 23.5189L37.4844 22.6616L37.5143 22.542L38.9896 23.3992L38.9597 23.5189Z" fill="#248F24"/>
<path d="M38.9909 23.3994L37.5156 22.5421L37.5455 22.3926L39.0208 23.2498L38.9909 23.3994Z" fill="#238A36"/>
<path d="M39.0104 23.2502L37.5352 22.3929C37.5451 22.3231 37.5451 22.2534 37.5451 22.1836L39.0204 23.0409C39.0304 23.1106 39.0204 23.1804 39.0104 23.2502Z" fill="#218556"/>
<path d="M33.9371 40.5741L35.4124 41.4313C35.2629 41.3416 35.1632 41.1622 35.1632 40.893L33.6879 40.0358C33.6979 40.3049 33.7876 40.4943 33.9371 40.5741ZM35.4124 23.4189L34.4854 23.9572C34.4355 23.9871 34.3757 24.027 34.3259 24.0669C34.3059 24.0768 34.296 24.0968 34.276 24.1067C34.2561 24.1267 34.2262 24.1466 34.2062 24.1666C34.1963 24.1765 34.1863 24.1865 34.1763 24.2064L34.1464 24.2363L34.1165 24.2662C34.0966 24.2961 34.0667 24.3161 34.0468 24.346C34.0368 24.3559 34.0268 24.3659 34.0268 24.3759C34.0268 24.3859 34.0169 24.3859 34.0169 24.3958C34.0069 24.4058 34.0069 24.4158 33.9969 24.4257C33.977 24.4457 33.967 24.4756 33.9471 24.4955C33.9271 24.5154 33.9172 24.5453 33.9072 24.5653V24.5852L33.8773 24.645C33.8673 24.665 33.8574 24.6949 33.8374 24.7148C33.8275 24.7347 33.8175 24.7547 33.8075 24.7846C33.7976 24.8145 33.7876 24.8344 33.7776 24.8643C33.7677 24.8942 33.7577 24.9142 33.7477 24.9441C33.7477 24.954 33.7377 24.974 33.7377 24.9839C33.7377 24.9939 33.7377 24.9939 33.7278 25.0039C33.7278 25.0138 33.7178 25.0238 33.7178 25.0338C33.7078 25.0637 33.6979 25.0936 33.6979 25.1335C33.6979 25.1534 33.6879 25.1733 33.6879 25.1933C33.6879 25.2032 33.6879 25.2132 33.6779 25.2232V25.2531C33.668 25.3129 33.668 25.3627 33.668 25.4126L33.7078 40.0457L35.1831 40.903L35.1432 26.2698C35.1432 26.21 35.1532 26.1402 35.1632 26.0804C35.1632 26.0705 35.1632 26.0605 35.1732 26.0505C35.1831 25.9907 35.1931 25.9309 35.213 25.8711C35.213 25.8611 35.213 25.8611 35.223 25.8512C35.2429 25.7814 35.2629 25.7216 35.2928 25.6518C35.3227 25.582 35.3526 25.5222 35.3924 25.4524V25.4425L35.5121 25.263C35.5121 25.2531 35.522 25.2531 35.522 25.2431L35.6417 25.0936L35.6716 25.0637C35.7015 25.0238 35.7413 24.9939 35.7812 24.964C35.8011 24.954 35.8111 24.9341 35.831 24.9241C35.8809 24.8843 35.9307 24.8444 35.9905 24.8145L36.9176 24.2762L35.4124 23.4189Z" fill="#166636"/>
<path d="M39.9574 22.5118C40.4159 22.2426 40.7947 22.4619 40.7947 22.9902L40.8346 37.6234C40.8346 38.1517 40.4558 38.8096 39.9972 39.0688L36.01 41.3814C35.5515 41.6505 35.1727 41.4312 35.1727 40.9029L35.1328 26.2698C35.1328 25.7414 35.5116 25.0835 35.9701 24.8244L36.8972 24.2861C36.8972 24.9639 37.3756 25.2331 37.9638 24.8942C38.5519 24.5552 39.0303 23.7279 39.0303 23.0501L39.9574 22.5118Z" fill="#1CB15A"/>
<path d="M37.9611 22.4325C38.5492 22.0935 39.0277 22.3627 39.0277 23.0405C39.0277 23.7183 38.5492 24.5457 37.9611 24.8846C37.373 25.2235 36.8945 24.9544 36.8945 24.2766C36.8945 23.5987 37.373 22.7714 37.9611 22.4325Z" fill="white"/>
<path d="M37.2439 21.5053L37.1841 21.4754H37.1741C37.1641 21.4754 37.1641 21.4754 37.1542 21.4655C37.1442 21.4655 37.1342 21.4555 37.1243 21.4555C37.1143 21.4555 37.1043 21.4555 37.0944 21.4455H37.0645C37.0445 21.4455 37.0246 21.4355 37.0046 21.4355H36.8551C36.8452 21.4355 36.8352 21.4355 36.8252 21.4455C36.8153 21.4455 36.7953 21.4555 36.7853 21.4555C36.7754 21.4555 36.7654 21.4555 36.7654 21.4655C36.7554 21.4655 36.7455 21.4754 36.7455 21.4754C36.7255 21.4854 36.6956 21.4954 36.6657 21.5053C36.6558 21.5053 36.6458 21.5153 36.6358 21.5153C36.6358 21.5153 36.6259 21.5253 36.6159 21.5253C36.576 21.5452 36.5262 21.5651 36.4863 21.595C36.4265 21.6249 36.3767 21.6648 36.3168 21.7047C36.3069 21.7147 36.2969 21.7147 36.2869 21.7246C36.2371 21.7645 36.1873 21.8143 36.1374 21.8542L36.1275 21.8642L36.1075 21.8841C36.0876 21.904 36.0577 21.934 36.0377 21.9639C36.0278 21.9738 36.0278 21.9838 36.0178 21.9838L35.9979 22.0037C35.9879 22.0237 35.968 22.0336 35.958 22.0536L35.9281 22.0835C35.9181 22.0934 35.9181 22.1034 35.9082 22.1134C35.8982 22.1233 35.8882 22.1433 35.8783 22.1533C35.8683 22.1632 35.8683 22.1732 35.8583 22.1832C35.8483 22.2031 35.8384 22.2131 35.8284 22.233C35.8184 22.243 35.8184 22.2529 35.8085 22.2629L35.7985 22.2729L35.7387 22.3626V22.3725C35.7387 22.3825 35.7287 22.3825 35.7287 22.3925C35.7188 22.4124 35.7088 22.4324 35.6889 22.4623C35.6789 22.4722 35.6789 22.4822 35.6689 22.4922C35.659 22.5021 35.659 22.5121 35.649 22.5221C35.649 22.532 35.639 22.542 35.639 22.552C35.629 22.5819 35.6191 22.6018 35.5991 22.6317C35.5991 22.6317 35.5991 22.6417 35.5892 22.6417C35.5792 22.6716 35.5593 22.7015 35.5493 22.7414C35.5493 22.7513 35.5493 22.7513 35.5393 22.7613C35.5393 22.7713 35.5294 22.7812 35.5294 22.8012C35.5194 22.8211 35.5194 22.8311 35.5094 22.851C35.5094 22.861 35.4995 22.871 35.4995 22.8909C35.4995 22.9009 35.4895 22.9208 35.4895 22.9308C35.4895 22.9407 35.4895 22.9507 35.4795 22.9607C35.4795 22.9806 35.4696 22.9906 35.4696 23.0105C35.4696 23.0304 35.4596 23.0504 35.4596 23.0603V23.0803C35.4596 23.0903 35.4496 23.1102 35.4496 23.1202C35.4397 23.1501 35.4397 23.18 35.4397 23.2099V23.2497C35.4297 23.3096 35.4297 23.3793 35.4297 23.4391V23.4591L36.905 24.2964C36.905 24.2366 36.905 24.1768 36.9149 24.117V24.0771C36.9149 24.0472 36.9249 24.0173 36.9249 23.9874C36.9249 23.9774 36.9249 23.9575 36.9349 23.9475V23.9276C36.9349 23.9076 36.9448 23.8877 36.9448 23.8777C36.9448 23.8578 36.9548 23.8478 36.9548 23.8279C36.9548 23.8179 36.9648 23.808 36.9648 23.798C36.9648 23.788 36.9747 23.7681 36.9747 23.7581C36.9747 23.7481 36.9847 23.7282 36.9847 23.7182C36.9947 23.6983 36.9947 23.6883 37.0046 23.6684C37.0046 23.6584 37.0146 23.6485 37.0146 23.6285C37.0146 23.6186 37.0146 23.6186 37.0246 23.6086C37.0346 23.5787 37.0545 23.5488 37.0645 23.5089C37.0645 23.5089 37.0645 23.4989 37.0744 23.4989C37.0844 23.469 37.0944 23.4491 37.1043 23.4192C37.1043 23.4092 37.1143 23.3993 37.1143 23.3893C37.1243 23.3793 37.1243 23.3694 37.1342 23.3594C37.1442 23.3494 37.1442 23.3395 37.1542 23.3295C37.1641 23.3096 37.1741 23.2896 37.194 23.2597C37.194 23.2497 37.204 23.2497 37.204 23.2398V23.2298L37.2638 23.1401L37.2738 23.1301C37.2838 23.1202 37.2838 23.1102 37.2937 23.1002C37.3037 23.0803 37.3137 23.0703 37.3236 23.0504C37.3336 23.0404 37.3336 23.0304 37.3436 23.0205C37.3535 23.0105 37.3635 22.9906 37.3735 22.9806C37.3834 22.9706 37.3834 22.9607 37.3934 22.9507L37.4233 22.9208C37.4333 22.9009 37.4532 22.8909 37.4632 22.871L37.4831 22.851L37.5031 22.8311C37.523 22.8012 37.5529 22.7812 37.5728 22.7513C37.5828 22.7414 37.5828 22.7314 37.5928 22.7314L37.6027 22.7214C37.6526 22.6716 37.7024 22.6317 37.7523 22.5918C37.7622 22.5819 37.7722 22.5819 37.7822 22.5719C37.832 22.532 37.8918 22.4922 37.9516 22.4623C38.0015 22.4324 38.0413 22.4124 38.0812 22.3925C38.0912 22.3825 38.1111 22.3825 38.1211 22.3725C38.151 22.3626 38.1709 22.3526 38.2008 22.3426C38.2208 22.3426 38.2307 22.3327 38.2507 22.3327C38.2606 22.3327 38.2806 22.3227 38.2905 22.3227C38.3105 22.3227 38.3304 22.3127 38.3503 22.3127H38.47C38.4999 22.3127 38.5198 22.3227 38.5497 22.3227H38.5696C38.5896 22.3227 38.6095 22.3327 38.6294 22.3426C38.6394 22.3426 38.6394 22.3426 38.6494 22.3526C38.6693 22.3626 38.6992 22.3725 38.7192 22.3825L37.2439 21.5053Z" fill="#ACC5EA"/>
<path d="M49.5645 4.56921C49.5844 4.55924 49.6044 4.55924 49.6243 4.54927C49.6343 4.54927 49.6542 4.5393 49.6642 4.5393C49.6741 4.5393 49.6841 4.52933 49.6941 4.52933C49.714 4.52933 49.724 4.51937 49.734 4.51937H49.8336C49.8536 4.51937 49.8735 4.51937 49.8934 4.52933H49.9134C49.9333 4.52933 49.9433 4.5393 49.9632 4.5393C49.9632 4.5393 49.9732 4.5393 49.9732 4.54927L50.033 4.57917L48.5577 3.72192C48.5477 3.71195 48.5278 3.71195 48.5178 3.70198H48.5079C48.5079 3.70198 48.4979 3.70198 48.4979 3.69201C48.4879 3.69201 48.4879 3.68205 48.478 3.68205C48.468 3.68205 48.458 3.68204 48.458 3.67208H48.4281C48.4082 3.67208 48.3982 3.67208 48.3783 3.66211H48.2487C48.2387 3.66211 48.2288 3.66211 48.2188 3.67208H48.1989C48.1889 3.67208 48.1889 3.67208 48.1789 3.68205C48.159 3.69201 48.1391 3.69201 48.1191 3.70198C48.1091 3.70198 48.1091 3.70198 48.0992 3.71195C48.0992 3.71195 48.0892 3.71195 48.0892 3.72192C48.0593 3.73189 48.0194 3.75182 47.9895 3.77176L47.0625 4.31004L48.5378 5.16729L49.4648 4.62901C49.5047 4.60908 49.5346 4.58914 49.5645 4.57917C49.5446 4.57917 49.5545 4.56921 49.5645 4.56921Z" fill="#166636"/>
<path d="M46.6745 7.09163L45.1992 6.23438H45.2092L46.6745 7.09163C46.6845 7.09163 46.6845 7.09163 46.6745 7.09163Z" fill="#0F6732"/>
<path d="M46.6862 7.09163L45.2109 6.23438C45.2309 6.24434 45.2508 6.25431 45.2608 6.26428L46.7361 7.12154C46.7161 7.11157 46.7062 7.1016 46.6862 7.09163Z" fill="#29A352"/>
<path d="M46.7331 7.12191L45.2578 6.26465C45.2777 6.27462 45.2977 6.27462 45.3176 6.28458L46.7929 7.14184C46.773 7.13187 46.753 7.12191 46.7331 7.12191Z" fill="#2AA854"/>
<path d="M46.7956 7.14144L45.3203 6.28418C45.3402 6.29415 45.3602 6.29415 45.3801 6.29415L46.8554 7.15141C46.8355 7.15141 46.8155 7.14144 46.7956 7.14144Z" fill="#2CAD44"/>
<path d="M46.8542 7.1512L45.3789 6.29395C45.3988 6.29395 45.4188 6.30391 45.4387 6.30391L46.914 7.16117C46.8941 7.16117 46.8741 7.1512 46.8542 7.1512Z" fill="#2DB341"/>
<path d="M46.9128 7.16097L45.4375 6.30371H45.5073L46.9826 7.16097H46.9128Z" fill="#2EB857"/>
<path d="M46.9948 7.16117L45.5195 6.30391C45.5494 6.30391 45.5694 6.30391 45.5993 6.29395L47.0746 7.1512C47.0446 7.1512 47.0147 7.16117 46.9948 7.16117Z" fill="#40BD2F"/>
<path d="M47.0729 7.15161L45.5977 6.29435C45.6276 6.29435 45.6575 6.28438 45.6874 6.27441L47.1626 7.13167C47.1327 7.14164 47.1028 7.15161 47.0729 7.15161Z" fill="#31C242"/>
<path d="M47.1628 7.1315L45.6875 6.27425C45.7274 6.26428 45.7672 6.24434 45.8171 6.23438L47.2924 7.09163C47.2425 7.11157 47.2027 7.12154 47.1628 7.1315Z" fill="#32C74D"/>
<path d="M47.2917 7.09188L45.8164 6.23463C45.8662 6.21469 45.9161 6.18479 45.9659 6.16485C46.0955 6.09507 46.2151 5.99539 46.3248 5.88574L47.8001 6.743C47.6904 6.85265 47.5708 6.94236 47.4412 7.02211C47.3814 7.04204 47.3316 7.07195 47.2917 7.09188Z" fill="#3BCC33"/>
<path d="M47.7917 6.7425L46.3164 5.88524L46.436 5.76562L47.9113 6.62288L47.7917 6.7425Z" fill="#32C74D"/>
<path d="M47.9089 6.61339L46.4336 5.75613C46.4635 5.72623 46.4934 5.68636 46.5233 5.64648L47.9986 6.50374C47.9687 6.54361 47.9388 6.58349 47.9089 6.61339Z" fill="#31C242"/>
<path d="M47.9987 6.51358L46.5234 5.65632C46.5434 5.62642 46.5733 5.59651 46.5932 5.55664L48.0685 6.4139C48.0386 6.4438 48.0187 6.47371 47.9987 6.51358Z" fill="#40BD2F"/>
<path d="M48.069 6.41377L46.5938 5.55651L46.6536 5.4668L48.1288 6.32405L48.069 6.41377Z" fill="#2EB857"/>
<path d="M48.1315 6.32392L46.6562 5.46667L46.7161 5.37695L48.1913 6.23421L48.1315 6.32392Z" fill="#2DB341"/>
<path d="M48.1784 6.23408L46.7031 5.37682C46.7231 5.34692 46.733 5.31701 46.753 5.28711L48.2282 6.14437C48.2183 6.17427 48.1983 6.20417 48.1784 6.23408Z" fill="#2CAD44"/>
<path d="M48.2292 6.14424L46.7539 5.28698C46.7738 5.25707 46.7838 5.22717 46.8037 5.19727L48.279 6.05452C48.2691 6.08443 48.2491 6.11433 48.2292 6.14424Z" fill="#2AA854"/>
<path d="M48.28 6.05439L46.8047 5.19713C46.8147 5.16723 46.8346 5.13733 46.8446 5.10742L48.3198 5.96468C48.3099 5.98461 48.2999 6.01452 48.28 6.05439Z" fill="#29A352"/>
<path d="M48.319 5.95499L46.8438 5.09773C46.8537 5.06782 46.8737 5.03792 46.8836 4.99805L48.3589 5.8553C48.3489 5.89518 48.339 5.92508 48.319 5.95499Z" fill="#0F6732"/>
<path d="M48.3581 5.86514L46.8828 5.00788C46.8928 4.97798 46.9127 4.93811 46.9227 4.9082L48.398 5.76546C48.388 5.79536 48.378 5.82527 48.3581 5.86514Z" fill="#399926"/>
<path d="M48.4011 5.75597L46.9258 4.89871C46.9357 4.85884 46.9457 4.82893 46.9557 4.78906L48.431 5.64632C48.421 5.68619 48.411 5.72607 48.4011 5.75597Z" fill="#25943D"/>
<path d="M48.4284 5.65656L46.9531 4.7993L46.983 4.67969L48.4583 5.53694C48.4483 5.56685 48.4384 5.60672 48.4284 5.65656Z" fill="#248F24"/>
<path d="M48.4597 5.52631L46.9844 4.66905L47.0143 4.51953L48.4896 5.37679L48.4597 5.52631Z" fill="#238A36"/>
<path d="M48.487 5.37713L47.0117 4.51988C47.0217 4.4501 47.0217 4.38032 47.0217 4.31055L48.497 5.1678C48.497 5.23758 48.497 5.30736 48.487 5.37713Z" fill="#218556"/>
<path d="M43.4562 35.3215L44.9315 36.1787C44.782 36.089 44.6823 35.9096 44.6823 35.6405L43.207 34.7832C43.207 35.0523 43.3067 35.2417 43.4562 35.3215Z" fill="#166636"/>
<path d="M44.9007 5.54688L43.9736 6.08515C43.9238 6.11506 43.864 6.15493 43.8141 6.1948C43.7942 6.20477 43.7842 6.22471 43.7643 6.23467C43.7444 6.25461 43.7145 6.27455 43.6945 6.29448L43.6646 6.32439L43.6347 6.35429L43.6048 6.38419C43.5849 6.4141 43.555 6.43404 43.535 6.46394C43.5251 6.47391 43.5151 6.48388 43.5151 6.49384C43.5151 6.50381 43.5051 6.50381 43.5051 6.51378C43.4952 6.52375 43.4952 6.53372 43.4852 6.54369C43.4653 6.56362 43.4553 6.59353 43.4354 6.61346C43.4154 6.6334 43.4054 6.6633 43.3955 6.68324V6.70318L43.3656 6.76298C43.3556 6.78292 43.3456 6.81282 43.3257 6.83276L43.2958 6.89257C43.2858 6.92247 43.2759 6.94241 43.2659 6.97231C43.2559 7.00222 43.246 7.02215 43.236 7.05206C43.236 7.06203 43.226 7.08196 43.226 7.09193C43.226 7.1019 43.226 7.1019 43.2161 7.11187C43.2161 7.12183 43.2061 7.1318 43.2061 7.14177C43.1961 7.17168 43.1862 7.20158 43.1862 7.24145C43.1862 7.26139 43.1762 7.28133 43.1762 7.30126C43.1762 7.31123 43.1762 7.3212 43.1662 7.33116V7.36107C43.1562 7.42088 43.1563 7.47072 43.1563 7.52056L43.236 34.7734L44.6814 35.6505L44.6016 8.39775C44.6016 8.33794 44.6116 8.26817 44.6216 8.20836C44.6216 8.19839 44.6216 8.18842 44.6315 8.17845C44.6415 8.11864 44.6515 8.05884 44.6714 7.99903C44.6714 7.98906 44.6714 7.98906 44.6814 7.97909C44.7013 7.90931 44.7212 7.84951 44.7511 7.77973C44.7811 7.70995 44.811 7.65014 44.8508 7.58037V7.5704L44.9704 7.39097C44.9704 7.38101 44.9804 7.38101 44.9804 7.37104L45.1 7.22152L45.1299 7.19161C45.1598 7.15174 45.1997 7.12184 45.2396 7.09193C45.2595 7.08196 45.2695 7.06203 45.2894 7.05206C45.3393 7.01219 45.3891 6.97231 45.4489 6.94241L46.3759 6.40413L44.9007 5.54688Z" fill="#EDF3F1"/>
<path d="M49.4244 4.63971C49.8829 4.37057 50.2617 4.58987 50.2717 5.11818L50.3514 32.371C50.3514 32.8993 49.9726 33.5572 49.5141 33.8163L45.5169 36.119C45.0583 36.3881 44.6796 36.1688 44.6696 35.6405L44.5898 8.38772C44.5898 7.85941 44.9686 7.20151 45.4272 6.94234L46.3542 6.40406C46.3542 7.0819 46.8327 7.35103 47.4208 7.01212C48.0089 6.6732 48.4874 5.84585 48.4874 5.16802L49.4244 4.63971Z" fill="#1CB15A"/>
<path d="M47.4416 4.55941C48.0297 4.22049 48.5082 4.48963 48.5082 5.16746C48.5082 5.84529 48.0297 6.67264 47.4416 7.01156C46.8535 7.35047 46.375 7.08133 46.375 6.4035C46.375 5.72567 46.8535 4.89832 47.4416 4.55941Z" fill="white"/>
<path d="M46.7244 3.63228L46.6645 3.60237H46.6546C46.6446 3.60237 46.6446 3.60237 46.6346 3.5924C46.6247 3.5924 46.6147 3.58244 46.6047 3.58244C46.5948 3.58244 46.5848 3.58244 46.5748 3.57247H46.5449C46.525 3.57247 46.5051 3.5625 46.4851 3.5625H46.3356C46.3256 3.5625 46.3157 3.5625 46.3057 3.57247C46.2957 3.57247 46.2758 3.58244 46.2658 3.58244C46.2559 3.58244 46.2459 3.58243 46.2459 3.5924C46.2359 3.5924 46.2259 3.60237 46.2259 3.60237C46.206 3.61234 46.1761 3.62231 46.1462 3.63228C46.1362 3.63228 46.1263 3.64224 46.1163 3.64224C46.1063 3.64224 46.1063 3.65221 46.0964 3.65221C46.0565 3.67215 46.0067 3.69208 45.9668 3.72199C45.907 3.75189 45.8571 3.79177 45.7973 3.83164C45.7874 3.84161 45.7774 3.84161 45.7674 3.85157C45.7176 3.89145 45.6677 3.94129 45.6179 3.98116L45.6079 3.99113L45.588 4.01106C45.568 4.031 45.5382 4.0609 45.5182 4.09081C45.5082 4.10078 45.5082 4.11075 45.4983 4.11075L45.4783 4.13068C45.4684 4.15062 45.4484 4.16059 45.4385 4.18052L45.4086 4.21043C45.3986 4.22039 45.3986 4.23036 45.3886 4.24033C45.3787 4.2503 45.3687 4.27024 45.3587 4.2802C45.3488 4.29017 45.3488 4.30014 45.3388 4.31011C45.3288 4.33004 45.3188 4.34001 45.3089 4.35995C45.2989 4.36992 45.2989 4.37988 45.2889 4.38985L45.279 4.39982L45.2192 4.48953V4.4995C45.2192 4.50947 45.2092 4.50947 45.2092 4.51944C45.1992 4.53937 45.1893 4.55931 45.1693 4.58921C45.1594 4.59918 45.1594 4.60915 45.1494 4.61912C45.1394 4.62909 45.1394 4.63905 45.1295 4.64902C45.1295 4.65899 45.1195 4.66896 45.1195 4.67893C45.1095 4.70883 45.0996 4.72877 45.0796 4.75867C45.0796 4.75867 45.0796 4.76864 45.0696 4.76864C45.0597 4.79854 45.0397 4.82845 45.0298 4.86832C45.0298 4.87829 45.0298 4.87829 45.0198 4.88826C45.0198 4.89822 45.0098 4.90819 45.0098 4.91816C44.9999 4.9381 44.9999 4.94807 44.9899 4.968C44.9899 4.97797 44.9799 4.98794 44.9799 5.00787C44.9799 5.01784 44.97 5.03778 44.97 5.04775C44.97 5.05771 44.97 5.06768 44.96 5.07765C44.96 5.09759 44.95 5.10756 44.95 5.12749C44.95 5.14743 44.9401 5.16736 44.9401 5.17733V5.19727C44.9401 5.20724 44.9301 5.22717 44.9301 5.23714C44.9201 5.26704 44.9201 5.29695 44.9201 5.32685V5.36673C44.9102 5.42653 44.9102 5.48634 44.9102 5.54615L46.3854 6.42335V6.41338C46.3854 6.35357 46.3854 6.29376 46.3954 6.22398V6.18411C46.3954 6.15421 46.4054 6.1243 46.4054 6.0944C46.4054 6.08443 46.4054 6.06449 46.4153 6.05453V6.03459C46.4153 6.01465 46.4253 5.99472 46.4253 5.98475C46.4253 5.96481 46.4353 5.95484 46.4353 5.93491C46.4353 5.92494 46.4452 5.91497 46.4452 5.905C46.4452 5.89504 46.4552 5.8751 46.4552 5.86513C46.4552 5.85516 46.4652 5.83523 46.4652 5.82526C46.4752 5.80532 46.4751 5.79535 46.4851 5.77542C46.4851 5.76545 46.4951 5.75548 46.4951 5.74551C46.4951 5.73555 46.4951 5.73555 46.5051 5.72558C46.515 5.69567 46.535 5.66577 46.5449 5.6259C46.5449 5.6259 46.5449 5.61593 46.5549 5.61593C46.5649 5.58602 46.5748 5.56609 46.5848 5.53618C46.5848 5.52622 46.5948 5.51625 46.5948 5.50628C46.6047 5.49631 46.6047 5.48634 46.6147 5.47638C46.6247 5.46641 46.6247 5.45644 46.6346 5.44647C46.6446 5.42653 46.6546 5.4066 46.6745 5.37669C46.6745 5.36673 46.6845 5.36673 46.6845 5.35676V5.34679L46.7443 5.25708L46.7543 5.24711C46.7642 5.23714 46.7642 5.22717 46.7742 5.2172C46.7842 5.19727 46.7941 5.1873 46.8041 5.16736C46.8141 5.1574 46.8141 5.14743 46.824 5.13746C46.834 5.12749 46.844 5.10756 46.8539 5.09759C46.8639 5.08762 46.8639 5.07765 46.8739 5.06768L46.9038 5.03778C46.9137 5.01784 46.9337 5.00787 46.9437 4.98794L46.9636 4.968L46.9835 4.94807C47.0035 4.91816 47.0334 4.89822 47.0533 4.86832L47.0732 4.84838L47.0832 4.83842C47.133 4.78858 47.1829 4.7487 47.2327 4.70883C47.2427 4.69886 47.2527 4.69886 47.2626 4.68889C47.3125 4.64902 47.3723 4.60915 47.4321 4.57925C47.4819 4.54934 47.5218 4.52941 47.5617 4.50947C47.5716 4.4995 47.5916 4.4995 47.6015 4.48953C47.6314 4.47956 47.6514 4.4696 47.6813 4.45963C47.7012 4.45963 47.7112 4.44966 47.7311 4.44966C47.7411 4.44966 47.761 4.43969 47.771 4.43969C47.7909 4.43969 47.8109 4.42972 47.8308 4.42972H47.9504C47.9803 4.42972 48.0003 4.43969 48.0302 4.43969H48.0501C48.07 4.43969 48.09 4.44966 48.1099 4.45963C48.1199 4.45963 48.1199 4.45963 48.1299 4.4696C48.1498 4.47956 48.1797 4.48953 48.1996 4.4995L46.7244 3.63228Z" fill="#ACC5EA"/>
<path d="M59.9537 29.0018C59.9437 29.0018 59.9437 29.0018 59.9537 29.0018C59.9238 28.9819 59.9039 28.9719 59.8739 28.9619H59.864C59.854 28.9619 59.844 28.952 59.844 28.952C59.8341 28.952 59.8241 28.942 59.8042 28.942C59.7942 28.942 59.7743 28.932 59.7643 28.932C59.7543 28.932 59.7444 28.932 59.7444 28.9221H59.7344C59.7045 28.9221 59.6846 28.9121 59.6546 28.9121H59.4653C59.4553 28.9121 59.4453 28.9221 59.4353 28.9221C59.4154 28.9221 59.3955 28.932 59.3755 28.932C59.3656 28.932 59.3556 28.932 59.3456 28.942C59.3357 28.942 59.3257 28.952 59.3157 28.952C59.2858 28.9619 59.2559 28.9719 59.216 28.9819C59.2061 28.9819 59.1961 28.9919 59.1861 28.9919C59.1762 28.9919 59.1762 29.0018 59.1662 29.0018C59.1064 29.0218 59.0566 29.0517 58.9967 29.0816L45.0514 37.1458C44.9816 37.1856 44.9118 37.2355 44.842 37.2853C44.8321 37.2953 44.8221 37.3053 44.8022 37.3152C44.7324 37.3651 44.6726 37.4249 44.6128 37.4847C44.6028 37.4946 44.6028 37.4946 44.5928 37.4946L44.5629 37.5245C44.533 37.5545 44.5031 37.5844 44.4732 37.6242L44.4433 37.6541C44.4334 37.6641 44.4334 37.6741 44.4234 37.684C44.4035 37.704 44.3835 37.7239 44.3735 37.7438C44.3636 37.7538 44.3536 37.7738 44.3436 37.7837C44.3337 37.7937 44.3237 37.8037 44.3137 37.8236C44.3038 37.8435 44.2838 37.8535 44.2739 37.8734C44.2639 37.8834 44.2539 37.8934 44.244 37.9133C44.234 37.9332 44.2141 37.9532 44.2041 37.9731C44.1941 37.9831 44.1842 38.003 44.1742 38.013C44.1742 38.023 44.1642 38.023 44.1642 38.0329C44.1443 38.0728 44.1144 38.1127 44.0944 38.1426V38.1525C44.0944 38.1625 44.0845 38.1725 44.0845 38.1725C44.0645 38.2024 44.0546 38.2323 44.0346 38.2522C44.0247 38.2622 44.0247 38.2821 44.0147 38.2921C44.0047 38.3021 44.0047 38.322 43.9948 38.332C43.9848 38.3419 43.9848 38.3519 43.9748 38.3718C43.9549 38.4017 43.9449 38.4316 43.9349 38.4616C43.9349 38.4715 43.925 38.4715 43.925 38.4815C43.905 38.5214 43.8951 38.5612 43.8751 38.6011C43.8751 38.6111 43.8652 38.6111 43.8652 38.621C43.8552 38.631 43.8552 38.6509 43.8452 38.6609C43.8353 38.6809 43.8253 38.7008 43.8253 38.7207C43.8153 38.7407 43.8153 38.7506 43.8153 38.7706C43.8054 38.7905 43.8054 38.8104 43.7954 38.8304C43.7954 38.8403 43.7854 38.8503 43.7854 38.8702C43.7755 38.8902 43.7755 38.9101 43.7655 38.9301C43.7555 38.95 43.7555 38.9799 43.7456 38.9998C43.7456 39.0098 43.7456 39.0198 43.7356 39.0198C43.7356 39.0397 43.7256 39.0497 43.7256 39.0696C43.7157 39.1095 43.7157 39.1394 43.7057 39.1793C43.7057 39.1892 43.7057 39.1992 43.6957 39.2092V39.2391C43.6857 39.3188 43.6758 39.3986 43.6758 39.4783L43.7057 48.7785C43.7057 49.0975 43.7954 49.3467 43.9349 49.5062C43.9848 49.556 44.0346 49.6059 44.0944 49.6458L45.5697 50.503C45.3305 50.3635 45.181 50.0644 45.171 49.6358L45.181 40.3356C45.181 40.2558 45.1909 40.1761 45.2009 40.0963C45.2009 40.0764 45.2009 40.0564 45.2109 40.0365C45.2208 39.9966 45.2208 39.9667 45.2308 39.9269C45.2308 39.9069 45.2408 39.877 45.2408 39.8571C45.2507 39.8372 45.2507 39.8072 45.2607 39.7873C45.2707 39.7574 45.2806 39.7275 45.2906 39.6876C45.3006 39.6677 45.3006 39.6478 45.3105 39.6278C45.3205 39.5879 45.3305 39.558 45.3504 39.5182C45.3604 39.5082 45.3604 39.4883 45.3704 39.4783L45.4302 39.3288C45.4302 39.3188 45.4401 39.3188 45.4401 39.3088C45.4601 39.269 45.48 39.2191 45.4999 39.1793C45.5099 39.1693 45.5099 39.1494 45.5199 39.1394C45.5398 39.0995 45.5597 39.0596 45.5897 39.0198C45.5897 39.0098 45.5996 38.9998 45.5996 38.9998C45.6295 38.95 45.6594 38.9101 45.6893 38.8603C45.6993 38.8503 45.7093 38.8304 45.7192 38.8204C45.7392 38.7905 45.7591 38.7606 45.789 38.7207C45.799 38.7008 45.809 38.6908 45.8289 38.6709C45.8488 38.641 45.8688 38.621 45.8887 38.5911C45.9086 38.5712 45.9186 38.5513 45.9385 38.5313C45.9585 38.5114 45.9684 38.4915 45.9884 38.4715C46.0183 38.4416 46.0482 38.4017 46.0781 38.3718C46.0881 38.3519 46.108 38.3419 46.118 38.332C46.1778 38.2722 46.2475 38.2123 46.3074 38.1625C46.3173 38.1525 46.3273 38.1426 46.3472 38.1326C46.417 38.0828 46.4868 38.0329 46.5566 37.9931L60.5019 29.9488C60.5617 29.9189 60.6116 29.889 60.6714 29.869C60.6913 29.8591 60.7113 29.8591 60.7212 29.8491C60.7511 29.8391 60.781 29.8292 60.8209 29.8192C60.8409 29.8092 60.8608 29.8092 60.8807 29.7993C60.9007 29.7993 60.9206 29.7893 60.9405 29.7893C60.9605 29.7893 60.9904 29.7793 61.0103 29.7793H61.1598C61.1897 29.7793 61.2296 29.7893 61.2595 29.7893C61.2695 29.7893 61.2794 29.7893 61.2794 29.7993C61.3094 29.8092 61.3293 29.8092 61.3492 29.8192C61.3592 29.8192 61.3692 29.8292 61.3692 29.8292C61.3991 29.8391 61.429 29.8591 61.4589 29.869L59.9537 29.0018Z" fill="#4CC620"/>
<path d="M60.4608 29.948C61.2084 29.5194 61.8165 29.8583 61.8165 30.7156L61.8464 40.0158C61.8464 40.8731 61.2483 41.9197 60.5007 42.3484L46.5553 50.3926C45.8077 50.8213 45.1996 50.4724 45.1996 49.6251L45.1797 40.3348C45.1797 39.4776 45.7778 38.4309 46.5254 38.0023L60.4608 29.948Z" fill="#067200"/>
<path d="M57.2502 38.6505L56.2135 38.0524C56.2035 38.0424 56.1936 38.0424 56.1836 38.0225L57.2203 38.6205C57.2302 38.6405 57.2402 38.6505 57.2502 38.6505Z" fill="#674611"/>
<path d="M56.9117 38.1918L55.875 37.5938L56.194 38.0224L57.2307 38.6304L56.9117 38.1918Z" fill="#E8CFAC"/>
<path d="M57.1701 34.6629C57.3096 34.5831 57.3994 34.7027 57.3296 34.8822L56.3926 37.3044C56.3627 37.3941 56.2929 37.4639 56.2331 37.5038C56.1733 37.5437 56.1135 37.5437 56.0736 37.4938L55.7646 37.0552L52.9536 40.564C52.9037 40.6238 52.8439 40.6736 52.7941 40.7135C52.6844 40.7733 52.5748 40.7733 52.515 40.6936L51.7175 39.5771L48.9165 43.066C48.8667 43.1258 48.8068 43.1756 48.757 43.2155C48.6474 43.2853 48.5377 43.2753 48.4779 43.1956C48.3882 43.066 48.438 42.8068 48.5975 42.6174L51.6777 38.7797C51.7275 38.7199 51.7873 38.6701 51.8371 38.6302C51.9468 38.5604 52.0564 38.5704 52.1163 38.6501L52.9137 39.7665L55.4456 36.6067L55.1366 36.1681C55.0668 36.0684 55.1565 35.8491 55.2861 35.7693L57.1701 34.6629Z" fill="#4CC620"/>
<path d="M53.0156 40.2957L54.0523 40.8938L56.5842 37.734L56.2752 37.2954L55.2385 36.6973L55.5475 37.1259L53.0156 40.2957Z" fill="#E8CFAC"/>
<path d="M58.4352 35.7897L57.9069 35.4807L57.3985 35.1816H57.2889C57.2789 35.1816 57.269 35.1916 57.259 35.1916L55.375 36.2881C55.3551 36.2981 55.3352 36.318 55.3152 36.328L55.2953 36.3479L55.2853 36.3579C55.2853 36.3678 55.2753 36.3678 55.2753 36.3778C55.2753 36.3878 55.2654 36.3878 55.2654 36.3978C55.2654 36.4077 55.2554 36.4077 55.2554 36.4177V36.4277C55.2554 36.4376 55.2454 36.4376 55.2454 36.4476C55.2454 36.4576 55.2454 36.4576 55.2355 36.4675C55.2355 36.4775 55.2355 36.4775 55.2255 36.4875C55.2255 36.4974 55.2255 36.4974 55.2155 36.5074C55.2155 36.5174 55.2155 36.5174 55.2056 36.5273C55.2056 36.5373 55.2056 36.5373 55.1956 36.5473V36.637C55.1956 36.6569 55.2056 36.6769 55.2155 36.6868L56.2522 37.2849C56.2422 37.2749 56.2323 37.255 56.2323 37.2351V37.1354C56.2422 37.0955 56.2522 37.0556 56.2721 37.0257C56.2821 37.0058 56.2921 36.9859 56.3021 36.9759C56.312 36.9659 56.322 36.946 56.3419 36.936C56.3619 36.9161 56.3818 36.9061 56.4017 36.8962L58.2857 35.7997C58.2957 35.7897 58.3056 35.7897 58.3156 35.7797H58.3256C58.3355 35.7797 58.3455 35.7698 58.3555 35.7698H58.3854C58.4253 35.7897 58.4352 35.7897 58.4352 35.7897C58.4452 35.7897 58.4452 35.7897 58.4352 35.7897ZM53.6505 41.8204L52.8531 40.704L51.8164 40.1059L52.6139 41.2223C52.6238 41.2423 52.6438 41.2622 52.6637 41.2722L53.7004 41.8702C53.6804 41.8603 53.6705 41.8403 53.6505 41.8204Z" fill="#E8CFAC"/>
<path d="M52.1564 39.1293C52.1464 39.1293 52.1464 39.1193 52.1365 39.1193C52.1265 39.1193 52.1265 39.1193 52.1165 39.1094H52.0468C52.0368 39.1094 52.0268 39.1094 52.0168 39.1193C52.0168 39.1193 52.0069 39.1193 52.0069 39.1293H51.9869C51.967 39.1393 51.957 39.1393 51.9371 39.1492C51.9172 39.1592 51.8873 39.1791 51.8673 39.1991L51.8474 39.219L51.8275 39.239L51.7876 39.2788L51.7676 39.2988L48.6875 43.1365L49.7242 43.7346L52.8043 39.8969C52.8243 39.8669 52.8542 39.847 52.8741 39.8171L52.894 39.7972C52.914 39.7772 52.9439 39.7573 52.9638 39.7473L53.0236 39.7174H53.0336C53.0535 39.7075 53.0735 39.7075 53.0834 39.7075H53.1333C53.1532 39.7075 53.1632 39.7174 53.1831 39.7274L52.1564 39.1293Z" fill="#E8CFAC"/>
<path d="M48.6587 43.1756C48.6487 43.1856 48.6487 43.1956 48.6387 43.2055V43.2155C48.6387 43.2255 48.6288 43.2255 48.6288 43.2354C48.6188 43.2454 48.6188 43.2554 48.6088 43.2653C48.6088 43.2753 48.5989 43.2853 48.5989 43.2952C48.5989 43.3052 48.5889 43.3052 48.5889 43.3152C48.5889 43.3251 48.5789 43.3351 48.5789 43.3451C48.5789 43.355 48.569 43.365 48.569 43.375C48.569 43.3849 48.559 43.3949 48.559 43.4049C48.559 43.4149 48.549 43.4348 48.549 43.4448V43.4547C48.549 43.4647 48.549 43.4747 48.5391 43.4846V43.6142C48.549 43.6441 48.559 43.684 48.5789 43.7039C48.5889 43.7239 48.6088 43.7438 48.6288 43.7538L49.6655 44.3519C49.6455 44.3419 49.6256 44.3219 49.6156 44.302C49.5957 44.2721 49.5857 44.2422 49.5757 44.2123V44.2023C49.5658 44.1724 49.5658 44.1326 49.5757 44.0927C49.5757 44.0827 49.5757 44.0628 49.5857 44.0528V44.0428C49.5957 44.0129 49.5957 43.993 49.6057 43.9631C49.6156 43.9332 49.6256 43.9133 49.6356 43.8833C49.6455 43.8534 49.6655 43.8335 49.6754 43.8036C49.6954 43.7737 49.7053 43.7538 49.7253 43.7338L48.6886 43.1357L48.6786 43.1457C48.6686 43.1557 48.6686 43.1656 48.6587 43.1756Z" fill="#E8CFAC"/>
<path d="M58.3168 35.8094C58.4563 35.7296 58.546 35.8492 58.4763 36.0287L57.5393 38.4409C57.5094 38.5306 57.4396 38.6004 57.3798 38.6403C57.32 38.6802 57.2601 38.6802 57.2203 38.6303L56.9113 38.1917L54.0903 41.7005C54.0405 41.7603 53.9806 41.8102 53.9308 41.85C53.8212 41.9198 53.7115 41.9098 53.6517 41.8301L52.8542 40.7137L50.0532 44.2025C50.0034 44.2623 49.9436 44.3121 49.8937 44.352C49.7841 44.4218 49.6744 44.4118 49.6146 44.3321C49.5249 44.2025 49.5747 43.9433 49.7342 43.7539L52.8144 39.9162C52.8642 39.8564 52.924 39.8066 52.9739 39.7667C53.0835 39.6969 53.1932 39.7069 53.253 39.7866L54.0504 40.9031L56.5823 37.7432L56.2733 37.3046C56.2035 37.2049 56.2932 36.9856 56.4228 36.9058L58.3168 35.8094Z" fill="white"/>
</g>
<defs>
<clipPath id="clip0_1307_43924">
<rect width="80" height="70.941" fill="white"/>
</clipPath>
</defs>
</svg>
