<svg width="28" height="28" viewBox="0 0 28 28" fill="none" xmlns="http://www.w3.org/2000/svg">
<g clip-path="url(#clip0_1262_23459)">
<path d="M20.125 2.625H7.875C7.41087 2.625 6.96575 2.80937 6.63756 3.13756C6.30937 3.46575 6.125 3.91087 6.125 4.375V8.3125C6.12563 8.58407 6.18916 8.8518 6.31061 9.0947C6.43206 9.33759 6.60812 9.54905 6.825 9.7125L12.5417 14L6.825 18.2875C6.60812 18.4509 6.43206 18.6624 6.31061 18.9053C6.18916 19.1482 6.12563 19.4159 6.125 19.6875V23.625C6.125 24.0891 6.30937 24.5342 6.63756 24.8624C6.96575 25.1906 7.41087 25.375 7.875 25.375H20.125C20.5891 25.375 21.0342 25.1906 21.3624 24.8624C21.6906 24.5342 21.875 24.0891 21.875 23.625V19.7272C21.8745 19.4567 21.8116 19.19 21.6912 18.9477C21.5708 18.7055 21.3962 18.4944 21.1808 18.3307L15.4525 14L21.1808 9.66817C21.3961 9.50466 21.5707 9.29369 21.6911 9.05168C21.8115 8.80967 21.8744 8.54314 21.875 8.27283V4.375C21.875 3.91087 21.6906 3.46575 21.3624 3.13756C21.0342 2.80937 20.5891 2.625 20.125 2.625ZM20.125 4.375V6.125H7.875V4.375H20.125ZM20.125 23.625H7.875V19.6875L14 15.0932L20.125 19.7248V23.625ZM14 12.9057L7.875 8.31367V7.875H20.125V8.27283L14 12.9057Z" fill="#166636"/>
</g>
<defs>
<clipPath id="clip0_1262_23459">
<rect width="28" height="28" fill="white"/>
</clipPath>
</defs>
</svg>
