<svg width="23" height="32" viewBox="0 0 23 32" fill="none" xmlns="http://www.w3.org/2000/svg">
<path d="M11.2 1.60001L11.9827 0.204564C11.4967 -0.068188 10.9034 -0.068188 10.4173 0.204564L11.2 1.60001ZM13.4362 2.85441L12.6535 4.24985C12.8867 4.38068 13.149 4.45097 13.4163 4.45428L13.4362 2.85441ZM16 2.88617L17.3757 2.06906C17.0909 1.58975 16.5773 1.29319 16.0199 1.28628L16 2.88617ZM17.3095 5.0906L15.9338 5.9077C16.0704 6.13762 16.2624 6.32966 16.4923 6.46623L17.3095 5.0906ZM19.5139 6.40001L21.1138 6.38018C21.1069 5.82274 20.8103 5.30908 20.3309 5.02438L19.5139 6.40001ZM19.5456 8.96382L17.9458 8.98363C17.949 9.25103 18.0194 9.51336 18.1501 9.74659L19.5456 8.96382ZM20.8 11.2L22.1955 11.9828C22.4682 11.4966 22.4682 10.9035 22.1955 10.4172L20.8 11.2ZM19.5456 13.4362L18.1501 12.6534C18.0194 12.8867 17.949 13.149 17.9458 13.4163L19.5456 13.4362ZM19.5139 16L20.3309 17.3757C20.8103 17.0909 21.1069 16.5773 21.1138 16.0199L19.5139 16ZM17.3095 17.3095L16.4923 15.9338C16.2624 16.0704 16.0704 16.2624 15.9338 16.4923L17.3095 17.3095ZM16 19.5139L16.0199 21.1138C16.5773 21.1069 17.0909 20.8103 17.3757 20.3309L16 19.5139ZM13.4362 19.5456L13.4163 17.9458C13.149 17.949 12.8867 18.0194 12.6535 18.1501L13.4362 19.5456ZM11.2 20.8L10.4173 22.1955C10.9034 22.4682 11.4967 22.4682 11.9827 22.1955L11.2 20.8ZM8.96385 19.5456L9.74657 18.1501C9.51329 18.0194 9.25105 17.949 8.98369 17.9458L8.96385 19.5456ZM6.40001 19.5139L5.02438 20.3309C5.30908 20.8103 5.82274 21.1069 6.38019 21.1138L6.40001 19.5139ZM5.0906 17.3095L6.46623 16.4923C6.32966 16.2624 6.13764 16.0704 5.90771 15.9338L5.0906 17.3095ZM2.88617 16L1.28628 16.0199C1.29319 16.5773 1.58975 17.0909 2.06906 17.3757L2.88617 16ZM2.85441 13.4362L4.45428 13.4163C4.45097 13.149 4.38068 12.8867 4.24985 12.6534L2.85441 13.4362ZM1.60001 11.2L0.204564 10.4172C-0.0681881 10.9035 -0.0681881 11.4966 0.204564 11.9828L1.60001 11.2ZM2.85441 8.96382L4.24985 9.74659C4.38068 9.51336 4.45097 9.25103 4.45428 8.98363L2.85441 8.96382ZM2.88617 6.40001L2.06906 5.02438C1.58975 5.30908 1.29319 5.82274 1.28628 6.3802L2.88617 6.40001ZM5.0906 5.0906L5.90771 6.46623C6.13764 6.32966 6.32966 6.13764 6.46623 5.9077L5.0906 5.0906ZM6.40001 2.88617L6.3802 1.28628C5.82275 1.29319 5.30908 1.58975 5.02438 2.06906L6.40001 2.88617ZM8.96385 2.85441L8.98369 4.45428C9.25105 4.45097 9.51329 4.38068 9.74657 4.24985L8.96385 2.85441ZM5.60001 30.4H4.00001C4.00001 30.9704 4.30362 31.4976 4.79692 31.7839C5.29023 32.0701 5.89863 32.0722 6.39383 31.7891L5.60001 30.4ZM11.2 27.2L11.9938 25.8109C11.5019 25.5298 10.8981 25.5298 10.4063 25.8109L11.2 27.2ZM16.8 30.4L16.0063 31.7891C16.5015 32.0722 17.1098 32.0701 17.6031 31.7839C18.0963 31.4976 18.4 30.9704 18.4 30.4H16.8ZM10.4173 2.99545L12.6535 4.24985L14.2191 1.45896L11.9827 0.204564L10.4173 2.99545ZM13.4163 4.45428L15.9802 4.48604L16.0199 1.28628L13.456 1.25453L13.4163 4.45428ZM14.6243 3.70327L15.9338 5.9077L18.685 4.27351L17.3757 2.06906L14.6243 3.70327ZM16.4923 6.46623L18.6968 7.77564L20.3309 5.02438L18.1266 3.71498L16.4923 6.46623ZM17.9139 6.41983L17.9458 8.98363L21.1455 8.94399L21.1138 6.38018L17.9139 6.41983ZM18.1501 9.74659L19.4045 11.9828L22.1955 10.4172L20.9411 8.18103L18.1501 9.74659ZM19.4045 10.4172L18.1501 12.6534L20.9411 14.2191L22.1955 11.9828L19.4045 10.4172ZM17.9458 13.4163L17.9139 15.9802L21.1138 16.0199L21.1455 13.456L17.9458 13.4163ZM15.9802 17.9139L13.4163 17.9458L13.456 21.1455L16.0199 21.1138L15.9802 17.9139ZM8.98369 17.9458L6.41983 17.9139L6.38019 21.1138L8.94401 21.1455L8.98369 17.9458ZM4.48604 15.9802L4.45428 13.4163L1.25453 13.456L1.28628 16.0199L4.48604 15.9802ZM4.24985 12.6534L2.99545 10.4172L0.204564 11.9828L1.45897 14.2191L4.24985 12.6534ZM2.99545 11.9828L4.24985 9.74659L1.45897 8.18103L0.204564 10.4172L2.99545 11.9828ZM4.45428 8.98363L4.48604 6.41982L1.28628 6.3802L1.25453 8.94399L4.45428 8.98363ZM3.70327 7.77564L5.90771 6.46623L4.27351 3.71498L2.06906 5.02438L3.70327 7.77564ZM6.46623 5.9077L7.77564 3.70327L5.02438 2.06906L3.71498 4.27351L6.46623 5.9077ZM6.41982 4.48604L8.98369 4.45428L8.94401 1.25453L6.3802 1.28628L6.41982 4.48604ZM9.74657 4.24985L11.9827 2.99545L10.4173 0.204564L8.18097 1.45896L9.74657 4.24985ZM18.6968 14.6243L16.4923 15.9338L18.1266 18.685L20.3309 17.3757L18.6968 14.6243ZM5.90771 15.9338L3.70327 14.6243L2.06906 17.3757L4.27351 18.685L5.90771 15.9338ZM12.6535 18.1501L10.4173 19.4045L11.9827 22.1955L14.2191 20.9411L12.6535 18.1501ZM11.9827 19.4045L9.74657 18.1501L8.18097 20.9411L10.4173 22.1955L11.9827 19.4045ZM6.39383 31.7891L11.9938 28.5891L10.4063 25.8109L4.80618 29.0109L6.39383 31.7891ZM10.4063 28.5891L16.0063 31.7891L17.5938 29.0109L11.9938 25.8109L10.4063 28.5891ZM18.4 30.4V18.1671H15.2V30.4H18.4ZM15.9338 16.4923L15.4243 17.3499L18.1757 18.9842L18.685 18.1266L15.9338 16.4923ZM15.4243 17.3499L14.6243 18.6968L17.3757 20.3309L18.1757 18.9842L15.4243 17.3499ZM4.00001 18.1671V30.4H7.20001V18.1671H4.00001ZM7.77564 18.6968L6.97564 17.3499L4.22438 18.9842L5.02438 20.3309L7.77564 18.6968ZM6.97564 17.3499L6.46623 16.4923L3.71498 18.1266L4.22438 18.9842L6.97564 17.3499ZM12.8 11.2C12.8 12.0837 12.0837 12.8 11.2 12.8V16C13.8511 16 16 13.8511 16 11.2H12.8ZM11.2 12.8C10.3163 12.8 9.60001 12.0837 9.60001 11.2H6.40001C6.40001 13.8511 8.54897 16 11.2 16V12.8ZM9.60001 11.2C9.60001 10.3164 10.3163 9.60001 11.2 9.60001V6.40001C8.54897 6.40001 6.40001 8.54905 6.40001 11.2H9.60001ZM11.2 9.60001C12.0837 9.60001 12.8 10.3164 12.8 11.2H16C16 8.54905 13.8511 6.40001 11.2 6.40001V9.60001Z" fill="#1DD739"/>
</svg>
