<svg width="33" height="34" viewBox="0 0 33 34" fill="none" xmlns="http://www.w3.org/2000/svg">
<path d="M29.3945 0H2.85547C2.09815 0 1.37185 0.300843 0.836347 0.836347C0.300843 1.37185 0 2.09815 0 2.85547V11.1212C0.000708174 11.6699 0.159507 12.2068 0.457394 12.6677C0.75528 13.1285 1.17964 13.4937 1.67969 13.7197L12.1945 18.4984C10.6376 19.3696 9.41367 20.7327 8.71437 22.374C8.01507 24.0153 7.87993 25.8423 8.33012 27.5686C8.7803 29.295 9.79038 30.8233 11.2021 31.9141C12.6139 33.0049 14.3476 33.5967 16.1317 33.5967C17.9158 33.5967 19.6495 33.0049 21.0613 31.9141C22.4731 30.8233 23.4831 29.295 23.9333 27.5686C24.3835 25.8423 24.2484 24.0153 23.5491 22.374C22.8498 20.7327 21.6258 19.3696 20.0689 18.4984L30.5703 13.7197C31.0704 13.4937 31.4947 13.1285 31.7926 12.6677C32.0905 12.2068 32.2493 11.6699 32.25 11.1212V2.85547C32.25 2.09815 31.9492 1.37185 31.4137 0.836347C30.8781 0.300843 30.1518 0 29.3945 0ZM21.5 2.6875V14.8938L16.125 17.3361L10.75 14.8938V2.6875H21.5ZM2.6875 11.1212V2.85547C2.6875 2.81092 2.7052 2.7682 2.7367 2.7367C2.7682 2.7052 2.81092 2.6875 2.85547 2.6875H8.0625V13.671L2.7866 11.2741C2.75713 11.2608 2.73211 11.2393 2.71453 11.2122C2.69695 11.1851 2.68757 11.1535 2.6875 11.1212ZM16.125 30.9062C15.0619 30.9062 14.0227 30.591 13.1388 30.0004C12.2549 29.4098 11.566 28.5703 11.1591 27.5882C10.7523 26.606 10.6459 25.5253 10.8533 24.4826C11.0607 23.44 11.5726 22.4823 12.3243 21.7306C13.076 20.9788 14.0337 20.4669 15.0764 20.2595C16.119 20.0521 17.1998 20.1586 18.1819 20.5654C19.1641 20.9722 20.0035 21.6611 20.5941 22.5451C21.1848 23.429 21.5 24.4682 21.5 25.5312C21.5 26.9568 20.9337 28.3239 19.9257 29.3319C18.9177 30.34 17.5505 30.9062 16.125 30.9062ZM29.5625 11.1212C29.5624 11.1535 29.553 11.1851 29.5355 11.2122C29.5179 11.2393 29.4929 11.2608 29.4634 11.2741L24.1875 13.671V2.6875H29.3945C29.4391 2.6875 29.4818 2.7052 29.5133 2.7367C29.5448 2.7682 29.5625 2.81092 29.5625 2.85547V11.1212Z" fill="#166636"/>
</svg>
