<svg width="18" height="18" viewBox="0 0 18 18" fill="none" xmlns="http://www.w3.org/2000/svg">
<path fill-rule="evenodd" clip-rule="evenodd" d="M1.5 0C0.67157 0 0 0.67157 0 1.5V16.5C0 17.3284 0.67157 18 1.5 18H16.5C17.3284 18 18 17.3284 18 16.5V1.5C18 0.67157 17.3284 0 16.5 0H1.5ZM5.52076 4.00272C5.52639 4.95897 4.81061 5.54819 3.96123 5.54397C3.16107 5.53975 2.46357 4.90272 2.46779 4.00413C2.47201 3.15897 3.13998 2.47975 4.00764 2.49944C4.88795 2.51913 5.52639 3.1646 5.52076 4.00272ZM9.2797 6.76172H6.75971H6.7583V15.3216H9.4217V15.1219C9.4217 14.742 9.4214 14.362 9.4211 13.9819C9.4203 12.9681 9.4194 11.9532 9.4246 10.9397C9.426 10.6936 9.4372 10.4377 9.5005 10.2028C9.7381 9.32532 10.5271 8.75862 11.4074 8.89792C11.9727 8.98642 12.3467 9.31412 12.5042 9.84712C12.6013 10.1803 12.6449 10.5389 12.6491 10.8863C12.6605 11.9339 12.6589 12.9815 12.6573 14.0292C12.6567 14.399 12.6561 14.769 12.6561 15.1388V15.3202H15.328V15.1149C15.328 14.6629 15.3278 14.211 15.3275 13.7591C15.327 12.6296 15.3264 11.5001 15.3294 10.3702C15.3308 9.85972 15.276 9.35632 15.1508 8.86272C14.9638 8.12862 14.5771 7.52112 13.9485 7.08242C13.5027 6.77022 13.0133 6.5691 12.4663 6.5466C12.404 6.54401 12.3412 6.54062 12.2781 6.53721C11.9984 6.52209 11.7141 6.50673 11.4467 6.56066C10.6817 6.71394 10.0096 7.06412 9.5019 7.68142C9.4429 7.75222 9.3852 7.82412 9.2991 7.93142L9.2797 7.95572V6.76172ZM2.68164 15.3244H5.33242V6.76732H2.68164V15.3244Z" fill="black"/>
</svg>
