<svg width="28" height="28" viewBox="0 0 28 28" fill="none" xmlns="http://www.w3.org/2000/svg">
<path d="M26.25 20.1248H25.375V6.33262L26.4327 6.10512C26.5474 6.08359 26.6568 6.0393 26.7542 5.97486C26.8516 5.91041 26.9351 5.82712 26.9998 5.72989C27.0645 5.63266 27.1091 5.52347 27.1309 5.40873C27.1528 5.294 27.1514 5.17606 27.127 5.06185C27.1025 4.94765 27.0554 4.8395 26.9885 4.74378C26.9216 4.64806 26.8362 4.5667 26.7373 4.50451C26.6385 4.44231 26.5282 4.40054 26.4129 4.38164C26.2977 4.36275 26.1798 4.36712 26.0662 4.3945L1.56625 9.6445C1.35518 9.69004 1.16841 9.81202 1.04186 9.98697C0.915303 10.1619 0.857907 10.3775 0.880709 10.5922C0.903511 10.8069 1.0049 11.0056 1.16537 11.1501C1.32585 11.2946 1.53407 11.3746 1.75 11.3748C1.81213 11.3747 1.87408 11.3681 1.93484 11.3551L2.625 11.2075V20.1248H1.75C1.51794 20.1248 1.29538 20.217 1.13128 20.3811C0.967187 20.5452 0.875 20.7677 0.875 20.9998C0.875 21.2319 0.967187 21.4544 1.13128 21.6185C1.29538 21.7826 1.51794 21.8748 1.75 21.8748H26.25C26.4821 21.8748 26.7046 21.7826 26.8687 21.6185C27.0328 21.4544 27.125 21.2319 27.125 20.9998C27.125 20.7677 27.0328 20.5452 26.8687 20.3811C26.7046 20.217 26.4821 20.1248 26.25 20.1248ZM4.375 10.8279L23.625 6.70778V20.1248H21V13.9998C21 13.7677 20.9078 13.5452 20.7437 13.3811C20.5796 13.217 20.3571 13.1248 20.125 13.1248H7.875C7.64294 13.1248 7.42038 13.217 7.25628 13.3811C7.09219 13.5452 7 13.7677 7 13.9998V20.1248H4.375V10.8279ZM19.25 16.6248H8.75V14.8748H19.25V16.6248ZM8.75 18.3748H19.25V20.1248H8.75V18.3748Z" fill="#166636"/>
</svg>
